<svg width="18" height="17" viewBox="0 0 18 17" fill="none" xmlns="http://www.w3.org/2000/svg">
<path d="M0.721847 -0.0250108C0.437789 -0.0254653 0.207936 0.191417 0.208457 0.459409L0.216935 4.8266C0.217456 5.09459 0.448152 5.31221 0.73221 5.31266C1.01627 5.31312 1.24612 5.09623 1.2456 4.82824L1.23806 0.946298L5.35272 0.952882C5.63678 0.953337 5.86663 0.736454 5.86611 0.468462C5.86559 0.20047 5.6349 -0.0171493 5.35084 -0.0176038L0.721847 -0.0250108ZM17.3647 16.6432C17.6488 16.6436 17.8787 16.4268 17.8781 16.1588L17.8697 11.7916C17.8691 11.5236 17.6384 11.306 17.3544 11.3055C17.0703 11.3051 16.8405 11.5219 16.841 11.7899L16.8485 15.6719L12.7339 15.6653C12.4498 15.6648 12.22 15.8817 12.2205 16.1497C12.221 16.4177 12.4517 16.6353 12.7358 16.6358L17.3647 16.6432ZM0.359767 0.802769L17.0008 16.5005L17.7268 15.8154L1.08581 0.117696L0.359767 0.802769Z" fill="black"/>
<path d="M17.8679 0.810547C17.8679 0.542585 17.6376 0.325358 17.3535 0.325358L12.7241 0.325358C12.44 0.325358 12.2097 0.542585 12.2097 0.810547C12.2097 1.07851 12.44 1.29574 12.7241 1.29574L16.8391 1.29574V5.17725C16.8391 5.44521 17.0694 5.66243 17.3535 5.66243C17.6376 5.66243 17.8679 5.44521 17.8679 5.17725V0.810547ZM0.839131 15.9024C0.839131 16.1704 1.06943 16.3876 1.35352 16.3876H5.98298C6.26707 16.3876 6.49737 16.1704 6.49737 15.9024C6.49737 15.6344 6.26707 15.4172 5.98298 15.4172H1.8679L1.8679 11.5357C1.8679 11.2677 1.6376 11.0505 1.35352 11.0505C1.06943 11.0505 0.839131 11.2677 0.839131 11.5357V15.9024ZM16.9898 0.467467L0.989791 15.5593L1.71724 16.2455L17.7172 1.15363L16.9898 0.467467Z" fill="black"/>
</svg>
