<svg width="40" height="40" viewBox="0 0 40 40" fill="none" xmlns="http://www.w3.org/2000/svg">
<path fill-rule="evenodd" clip-rule="evenodd" d="M25.0936 16.6563L23.8511 8.6482C23.834 8.54044 23.861 8.43052 23.9253 8.34247C23.9895 8.25449 24.0866 8.19568 24.1943 8.17898C24.649 8.10865 24.9915 7.70811 24.9915 7.24732C24.9915 7.0633 24.938 6.88567 24.8381 6.73354C24.7746 6.63714 24.7546 6.51866 24.7831 6.40684C24.8111 6.29494 24.8845 6.20015 24.9865 6.14548C26.1684 5.50858 27.4316 5.18581 28.7426 5.18581C30.0745 5.18567 31.3547 5.51772 32.5465 6.17231C32.6458 6.2267 32.7178 6.31969 32.7463 6.42915C32.7749 6.53854 32.7571 6.65499 32.6971 6.75086C32.6044 6.89839 32.5558 7.06985 32.5558 7.24651C32.5559 7.70963 32.9005 8.11047 33.3587 8.17864C33.4665 8.19474 33.5642 8.25343 33.6292 8.3416C33.6942 8.42965 33.7212 8.54017 33.7041 8.64834L32.4602 16.6562H33.9862L36.4475 4.62605C36.474 4.49486 36.4061 4.36325 36.2848 4.31285C34.0233 3.36953 31.4068 2.87109 28.7198 2.87109C26.08 2.87109 23.5021 3.35343 21.2647 4.2659C21.1427 4.31566 21.0735 4.44763 21.1006 4.57975L23.0725 14.2193C23.0733 14.2232 23.0739 14.227 23.0746 14.2309L23.5707 16.6563L25.0936 16.6563Z" fill="#214CDB"/>
<path fill-rule="evenodd" clip-rule="evenodd" d="M28.7775 9.40328C28.7668 9.40328 28.7561 9.40286 28.7455 9.40205C28.0477 9.41933 27.485 9.9927 27.485 10.6949C27.485 11.4079 28.0652 11.9881 28.7781 11.9881C29.9444 11.988 30.8935 12.937 30.8935 14.1034C30.8936 15.1293 30.159 15.987 29.1886 16.1786V16.6562H31.6282L32.8363 8.8814C32.1861 8.61563 31.7335 7.97197 31.7335 7.24638C31.7336 7.06589 31.7606 6.8882 31.8134 6.71871C30.8414 6.24664 29.8101 6.00781 28.7425 6.00781C27.697 6.0077 26.6835 6.23808 25.7243 6.69287C25.7829 6.87015 25.8135 7.05703 25.8135 7.24719C25.8136 7.98217 25.3718 8.61676 24.7188 8.88147L25.9252 16.6562H28.3664V16.1783C27.3965 15.9861 26.6628 15.1288 26.6628 14.1034C26.6629 13.8763 26.8469 13.6923 27.0739 13.6923C27.301 13.6921 27.485 13.8763 27.485 14.1034C27.485 14.8161 28.0648 15.3962 28.7775 15.3966C29.4906 15.3965 30.0713 14.8164 30.0713 14.1034C30.0714 13.3903 29.4911 12.8102 28.7781 12.8102C27.612 12.8101 26.6628 11.8613 26.6628 10.6949C26.6629 9.66929 27.3966 8.81206 28.3664 8.6199L28.3664 7.91521C28.3664 7.68814 28.5505 7.50424 28.7775 7.50424C29.0044 7.50413 29.1885 7.68826 29.1885 7.91532L29.1886 8.61963C30.1591 8.81123 30.8935 9.66887 30.8935 10.6949C30.8936 10.9219 30.7094 11.106 30.4824 11.106C30.2555 11.1059 30.0713 10.9219 30.0713 10.6949C30.0714 9.9922 29.5081 9.41881 28.8096 9.40201C28.799 9.40284 28.7883 9.40328 28.7775 9.40328Z" fill="#214CDB"/>
<path fill-rule="evenodd" clip-rule="evenodd" d="M9.46685 20.6727V20.6657V20.4097C9.46685 20.2763 9.35833 20.1681 9.2256 20.1681L7.1582 20.168V35.9438H9.22566C9.28988 35.9438 9.35049 35.9188 9.39614 35.8732C9.44195 35.8275 9.4668 35.767 9.4668 35.7024V35.443L9.46685 20.6727Z" fill="#214CDB"/>
<path fill-rule="evenodd" clip-rule="evenodd" d="M3.49463 37.129H6.09391C6.22734 37.129 6.33574 37.0207 6.33574 36.8874V36.355L6.33581 28.0546L6.33588 19.2239C6.33588 19.0908 6.22727 18.9824 6.0938 18.9824H3.49463L3.49463 37.129ZM4.91558 36.1267C4.80704 36.1267 4.7007 36.0832 4.62436 36.0068C4.60584 35.9875 4.58865 35.9668 4.57364 35.944C4.55878 35.9218 4.54584 35.8976 4.53585 35.8734C4.52522 35.8482 4.51728 35.8227 4.5123 35.7963C4.50658 35.7699 4.50443 35.7428 4.50443 35.7157C4.5045 35.6079 4.54798 35.5015 4.62436 35.4252C4.71998 35.3294 4.86199 35.286 4.99544 35.3132C5.02188 35.318 5.04755 35.326 5.07254 35.336C5.09752 35.3466 5.12105 35.3595 5.1432 35.3738C5.16608 35.3887 5.18673 35.4066 5.20599 35.4252C5.22454 35.4444 5.24167 35.4652 5.25667 35.488C5.27176 35.5101 5.28449 35.5337 5.2945 35.5586C5.30532 35.5836 5.31305 35.6093 5.31803 35.6357C5.32378 35.662 5.32659 35.6892 5.32659 35.7157C5.32666 35.7428 5.32373 35.7699 5.31803 35.7963C5.31319 35.8225 5.30521 35.8484 5.2945 35.8734C5.28461 35.8975 5.27166 35.9219 5.25667 35.944C5.24172 35.9667 5.22454 35.9875 5.20599 36.0068C5.18682 36.0254 5.16603 36.0425 5.1432 36.0575C5.12112 36.0724 5.0975 36.0853 5.07254 36.0953C5.04758 36.106 5.02186 36.1139 4.99544 36.1189C4.96905 36.1244 4.94195 36.1267 4.91558 36.1267Z" fill="#214CDB"/>
<path fill-rule="evenodd" clip-rule="evenodd" d="M11.5589 21.0807H10.2886L10.2886 35.0324L12.6181 35.0323C13.0862 35.0323 13.5465 35.112 13.9869 35.2692L16.6183 36.2089C16.9744 36.3357 17.3454 36.3969 17.7194 36.3981L31.4478 36.3613C32.5776 36.3577 33.4967 35.4363 33.4967 34.3069C33.4967 33.1741 32.5753 32.2526 31.4427 32.2526C31.4341 32.2526 31.4256 32.2523 31.4172 32.2518H29.6215C29.3945 32.2518 29.2103 32.0677 29.2103 31.8407C29.2104 31.6136 29.3945 31.4296 29.6214 31.4296L32.5397 31.4296C33.6709 31.4296 34.5908 30.5096 34.5908 29.3786C34.5908 28.2474 33.6708 27.3274 32.5396 27.3274L32.5326 27.3273H28.5959C28.369 27.3273 28.1848 27.1434 28.1848 26.9164C28.1848 26.6892 28.3689 26.5053 28.5958 26.5053H32.5396H33.2698C34.4009 26.5053 35.3208 25.5852 35.3208 24.4542C35.3209 23.3232 34.4009 22.4031 33.2697 22.4031L26.6275 22.403C26.4006 22.403 26.2164 22.2191 26.2164 21.9921C26.2164 21.7649 26.4006 21.581 26.6275 21.581L34.4546 21.5809C35.0012 21.5809 35.5164 21.3676 35.9046 20.9799C36.2922 20.5933 36.5056 20.0785 36.5056 19.5299C36.5056 18.3989 35.5856 17.4788 34.4545 17.4788H34.3285L34.3218 17.4789L34.3141 17.4788L23.234 17.4788C23.0291 17.4788 22.8589 17.3286 22.828 17.1322L22.3922 15.001C18.8755 17.4589 15.0946 19.6753 13.5829 20.5417C12.967 20.8942 12.2676 21.0807 11.5589 21.0807Z" fill="#214CDB"/>
</svg>
