<svg width="34" height="33" viewBox="0 0 34 33" fill="none" xmlns="http://www.w3.org/2000/svg">
<path d="M33.707 16.5C33.707 7.38633 26.3207 0 17.207 0C8.09336 0 0.707031 7.38633 0.707031 16.5C0.707031 25.6137 8.09336 33 17.207 33C17.3037 33 17.4004 33 17.4971 32.9936V20.1545H13.9521V16.023H17.4971V12.9809C17.4971 9.45527 19.6498 7.53457 22.7951 7.53457C24.3033 7.53457 25.5988 7.64414 25.9727 7.6957V11.3824H23.807C22.099 11.3824 21.7639 12.1945 21.7639 13.3869V16.0166H25.8566L25.3217 20.148H21.7639V32.3619C28.6604 30.3832 33.707 24.0346 33.707 16.5Z" fill="#214CDB"/>
</svg>
