<svg width="513" height="132" viewBox="0 0 513 132" fill="none" xmlns="http://www.w3.org/2000/svg">
<mask id="mask0_396_1466" style="mask-type:alpha" maskUnits="userSpaceOnUse" x="0" y="0" width="513" height="132">
<rect width="513" height="132" fill="#D9D9D9"/>
</mask>
<g mask="url(#mask0_396_1466)">
<rect width="549.854" height="23.8215" transform="matrix(0.997291 0.0735542 -0.0757305 0.997128 -9.36523 33.582)" fill="#214CDB"/>
<path d="M-1.92017 39.1848C-0.55588 39.2854 0.390768 39.6561 0.91977 40.2967C1.31607 40.7832 1.48786 41.3734 1.43515 42.0674C1.41698 42.3067 1.37396 42.5562 1.3061 42.8159L0.948452 44.1974C0.745772 44.9645 0.446744 45.5742 0.0513686 46.0263C-0.332039 46.4794 -0.746883 46.7917 -1.19316 46.9633L0.0423623 52.3247L-3.58379 52.0573L-4.72501 47.118L-5.83798 47.0359L-6.94067 51.8097L-10.3873 51.5555L-7.12603 38.8009L-1.92017 39.1848ZM-3.26375 41.9013L-4.6101 41.802L-5.31402 44.8906L-4.05743 44.9833C-3.42315 45.0301 -2.95703 44.9141 -2.65906 44.6352C-2.36018 44.3444 -2.19165 43.9477 -2.15348 43.4452C-2.07987 42.476 -2.44996 41.9614 -3.26375 41.9013ZM10.4047 53.089L1.39319 52.4244L4.65447 39.6697L13.666 40.3344L12.9507 43.0972L7.17041 42.6709L6.5735 45.0635L11.3485 45.4156L10.6332 48.1785L5.85822 47.8263L5.3397 49.8998L11.12 50.3261L10.4047 53.089ZM18.8631 53.7128L19.1848 50.9029L16.187 50.6818L15.0934 53.4348L11.6647 53.1819L17.2596 40.5994L23.1835 41.0363L22.2739 53.9644L18.8631 53.7128ZM18.87 43.8767L17.1056 48.331L19.4573 48.5044L20.001 43.9601L18.87 43.8767ZM28.4951 54.6759C26.7837 54.5497 25.6271 54.0914 25.0252 53.301C24.6105 52.7409 24.439 51.9883 24.5108 51.043C24.5417 50.6362 24.6167 50.2025 24.7359 49.7421L25.7855 45.6682C26.5539 42.6807 28.6136 41.3105 31.9645 41.5576C33.3527 41.66 34.3831 42.0368 35.0557 42.688C35.7293 43.3273 36.0269 44.1615 35.9488 45.1905C35.9124 45.6691 35.8043 46.1424 35.6243 46.6105C35.4572 47.0674 35.2992 47.4047 35.1503 47.6223L34.9256 47.9667L31.7482 47.7324C32.1777 47.3068 32.4242 46.6753 32.4879 45.8377C32.5215 45.395 32.4341 45.0396 32.2258 44.7715C32.0185 44.4915 31.6934 44.3352 31.2506 44.3025C30.0418 44.2134 29.2729 44.8305 28.9437 46.1538L28.0401 49.7331C27.9566 50.0398 27.9035 50.3427 27.8808 50.6418C27.8208 51.4315 28.2636 51.8613 29.209 51.931C30.3459 52.0148 31.0767 51.425 31.4013 50.1615L34.6325 50.3998L34.5032 50.9137C33.8128 53.6663 31.8101 54.9204 28.4951 54.6759ZM48.8194 42.9271L45.5761 55.683L42.3269 55.4434L43.5071 50.8377L40.0066 50.5795L38.8444 55.1865L35.5952 54.9469L38.8565 42.1923L42.0877 42.4306L40.704 47.8154L44.2044 48.0735L45.5882 42.6887L48.8194 42.9271ZM60.3985 43.6547C63.2827 43.8674 64.6353 45.1524 64.4563 47.5096C64.4263 47.9045 64.3521 48.3262 64.2338 48.7747L63.3329 52.318C62.9194 53.96 62.2034 55.1466 61.1852 55.8777C60.1669 56.6087 58.7901 56.9103 57.0548 56.7823C55.3195 56.6543 54.1412 56.1643 53.52 55.3123C53.095 54.7275 52.9194 53.9505 52.993 52.9813C53.0257 52.5505 53.1095 52.0814 53.2443 51.5739L54.1452 48.0306C54.9512 44.8653 57.0357 43.4067 60.3985 43.6547ZM57.7508 54.0361C58.3491 54.0802 58.8397 53.9599 59.2223 53.6753C59.605 53.3907 59.8999 52.8349 60.1071 52.0079L60.9792 48.6068C61.0333 48.3702 61.0676 48.1561 61.0821 47.9647C61.1557 46.9955 60.7019 46.4747 59.7205 46.4023C58.4861 46.3353 57.6969 46.981 57.353 48.3394L56.481 51.7405C56.4104 52.0361 56.3628 52.3454 56.3383 52.6685C56.2747 53.5061 56.7455 53.9619 57.7508 54.0361ZM73.32 56.7907C72.3145 57.5107 70.9442 57.8067 69.2089 57.6787C67.4736 57.5507 66.3013 57.0612 65.692 56.2101C65.2551 55.6243 65.0735 54.8469 65.1471 53.8777C65.1798 53.4469 65.2636 52.9778 65.3984 52.4703L67.4809 44.3034L70.7121 44.5417L68.6351 52.6369C68.5645 52.9325 68.5169 53.2418 68.4924 53.5649C68.4288 54.4025 68.8996 54.8583 69.9049 54.9325C70.5033 54.9766 70.9938 54.8564 71.3764 54.5717C71.7591 54.2871 72.054 53.7313 72.2612 52.9043L74.3382 44.8092L77.5695 45.0475L75.487 53.2144C75.0606 54.8675 74.3382 56.0596 73.32 56.7907ZM90.3249 48.8039L85.9089 48.4782L83.3629 58.4699L80.1137 58.2303L82.6597 48.2385L78.2258 47.9115L78.9411 45.1486L91.0402 46.041L90.3249 48.8039ZM102.543 58.946C101.538 59.666 100.168 59.962 98.4323 59.8341C96.697 59.7061 95.5247 59.2165 94.9154 58.3654C94.4785 57.7797 94.2969 57.0022 94.3705 56.033C94.4032 55.6022 94.4869 55.1331 94.6218 54.6257L96.7042 46.4588L99.9355 46.6971L97.8584 54.7922C97.7879 55.0878 97.7403 55.3971 97.7158 55.7202C97.6521 56.5578 98.123 57.0137 99.1282 57.0878C99.7266 57.1319 100.217 57.0117 100.6 56.7271C100.982 56.4425 101.277 55.8866 101.485 55.0596L103.562 46.9645L106.793 47.2028L104.71 55.3698C104.284 57.0229 103.562 58.215 102.543 58.946ZM109.688 56.7115C109.626 57.5372 110.187 57.9937 111.371 58.081C112.568 58.1693 113.195 57.8425 113.251 57.1006C113.281 56.7058 113.102 56.3677 112.714 56.0864C112.327 55.8051 111.846 55.5591 111.272 55.3483C110.71 55.1385 110.145 54.9042 109.574 54.6456C109.017 54.3759 108.553 53.9927 108.182 53.496C107.811 52.9874 107.653 52.3801 107.706 51.6741C107.934 48.6708 109.981 47.3116 113.847 47.5967C115.259 47.7009 116.303 48.0487 116.981 48.6401C117.671 49.2204 117.98 49.9832 117.908 50.9285C117.882 51.2755 117.808 51.607 117.688 51.923C117.581 52.2279 117.474 52.4427 117.368 52.5672L117.208 52.772L114.031 52.5377C114.315 52.2819 114.473 51.9446 114.505 51.5258C114.564 50.748 114.085 50.3216 113.068 50.2466C111.787 50.1522 111.116 50.5118 111.054 51.3254C111.023 51.7323 111.202 52.0703 111.591 52.3396C111.98 52.609 112.456 52.8366 113.019 53.0226C113.596 53.1974 114.169 53.4082 114.74 53.6549C115.311 53.9015 115.782 54.2792 116.153 54.7878C116.524 55.2845 116.681 55.9097 116.624 56.6635C116.508 58.1832 115.968 59.2804 115.002 59.9552C114.037 60.618 112.609 60.8797 110.718 60.7402C108.827 60.6007 107.56 60.1704 106.917 59.4491C106.441 58.9086 106.236 58.1956 106.303 57.3102C106.329 56.9751 106.392 56.6128 106.494 56.2233L106.57 55.9401L109.801 56.1784L109.749 56.3911C109.716 56.509 109.696 56.6158 109.688 56.7115Z" fill="white"/>
<path d="M136.703 49.4094C138.067 49.51 139.014 49.8807 139.543 50.5213C139.939 51.0078 140.111 51.598 140.058 52.292C140.04 52.5313 139.997 52.7808 139.929 53.0406L139.571 54.422C139.369 55.1892 139.07 55.7988 138.674 56.251C138.291 56.704 137.876 57.0163 137.43 57.1879L138.665 62.5493L135.039 62.2819L133.898 57.3426L132.785 57.2605L131.682 62.0343L128.236 61.7801L131.497 49.0255L136.703 49.4094ZM135.359 52.1259L134.013 52.0266L133.309 55.1152L134.566 55.2079C135.2 55.2547 135.666 55.1387 135.964 54.8598C136.263 54.569 136.431 54.1723 136.47 53.6698C136.543 52.7006 136.173 52.186 135.359 52.1259ZM149.028 63.3136L140.016 62.649L143.278 49.8943L152.289 50.559L151.574 53.3218L145.793 52.8955L145.197 55.2881L149.972 55.6403L149.256 58.4031L144.481 58.0509L143.963 60.1244L149.743 60.5507L149.028 63.3136ZM157.486 63.9374L157.808 61.1275L154.81 60.9064L153.716 63.6594L150.288 63.4065L155.883 50.824L161.807 51.2609L160.897 64.189L157.486 63.9374ZM157.493 54.1013L155.729 58.5556L158.08 58.729L158.624 54.1847L157.493 54.1013ZM167.118 64.9005C165.407 64.7743 164.25 64.316 163.648 63.5256C163.234 62.9656 163.062 62.2129 163.134 61.2676C163.165 60.8608 163.24 60.4271 163.359 59.9667L164.408 55.8928C165.177 52.9053 167.237 51.5351 170.588 51.7822C171.976 51.8846 173.006 52.2614 173.679 52.9126C174.352 53.5519 174.65 54.3861 174.572 55.4151C174.535 55.8937 174.427 56.367 174.247 56.8351C174.08 57.292 173.922 57.6293 173.773 57.847L173.549 58.1914L170.371 57.957C170.801 57.5314 171.047 56.8999 171.111 56.0623C171.145 55.6196 171.057 55.2642 170.849 54.9961C170.641 54.7161 170.316 54.5598 169.874 54.5271C168.665 54.438 167.896 55.0551 167.567 56.3785L166.663 59.9577C166.58 60.2644 166.527 60.5673 166.504 60.8664C166.444 61.6561 166.887 62.0859 167.832 62.1556C168.969 62.2395 169.7 61.6496 170.024 60.3861L173.256 60.6244L173.126 61.1383C172.436 63.8909 170.433 65.145 167.118 64.9005ZM187.442 53.1517L184.199 65.9076L180.95 65.668L182.13 61.0623L178.63 60.8042L177.467 65.4111L174.218 65.1715L177.48 52.4169L180.711 52.6552L179.327 58.04L182.827 58.2981L184.211 52.9134L187.442 53.1517ZM199.022 53.8793C201.906 54.092 203.258 55.377 203.079 57.7342C203.049 58.1291 202.975 58.5508 202.857 58.9993L201.956 62.5426C201.542 64.1846 200.826 65.3712 199.808 66.1023C198.79 66.8333 197.413 67.1349 195.678 67.0069C193.943 66.8789 192.764 66.3889 192.143 65.5369C191.718 64.9521 191.542 64.1751 191.616 63.2059C191.649 62.7751 191.733 62.306 191.867 61.7985L192.768 58.2552C193.574 55.0899 195.659 53.6313 199.022 53.8793ZM196.374 64.2607C196.972 64.3048 197.463 64.1846 197.845 63.8999C198.228 63.6153 198.523 63.0595 198.73 62.2325L199.602 58.8314C199.656 58.5948 199.691 58.3807 199.705 58.1893C199.779 57.2201 199.325 56.6993 198.344 56.6269C197.109 56.5599 196.32 57.2056 195.976 58.564L195.104 61.9651C195.033 62.2607 194.986 62.57 194.961 62.8931C194.898 63.7307 195.369 64.1865 196.374 64.2607ZM211.943 67.0153C210.938 67.7353 209.567 68.0313 207.832 67.9033C206.097 67.7753 204.924 67.2858 204.315 66.4347C203.878 65.8489 203.697 65.0715 203.77 64.1023C203.803 63.6715 203.887 63.2024 204.021 62.695L206.104 54.528L209.335 54.7663L207.258 62.8615C207.188 63.1571 207.14 63.4664 207.115 63.7895C207.052 64.6271 207.523 65.0829 208.528 65.1571C209.126 65.2012 209.617 65.081 209.999 64.7963C210.382 64.5117 210.677 63.9559 210.884 63.1289L212.961 55.0338L216.193 55.2721L214.11 63.439C213.684 65.0921 212.961 66.2842 211.943 67.0153ZM228.948 59.0285L224.532 58.7028L221.986 68.6946L218.737 68.4549L221.283 58.4631L216.849 58.1361L217.564 55.3733L229.663 56.2656L228.948 59.0285ZM241.166 69.1706C240.161 69.8906 238.791 70.1866 237.055 70.0587C235.32 69.9307 234.148 69.4411 233.538 68.59C233.102 68.0043 232.92 67.2268 232.994 66.2576C233.026 65.8269 233.11 65.3577 233.245 64.8503L235.327 56.6834L238.558 56.9217L236.481 65.0168C236.411 65.3124 236.363 65.6218 236.339 65.9448C236.275 66.7824 236.746 67.2383 237.751 67.3124C238.35 67.3566 238.84 67.2363 239.223 66.9517C239.605 66.6671 239.9 66.1113 240.108 65.2843L242.185 57.1891L245.416 57.4274L243.333 65.5944C242.907 67.2475 242.185 68.4396 241.166 69.1706ZM248.311 66.9361C248.249 67.7618 248.81 68.2183 249.995 68.3057C251.191 68.3939 251.818 68.0671 251.874 67.3253C251.904 66.9304 251.725 66.5923 251.337 66.311C250.95 66.0297 250.469 65.7837 249.895 65.573C249.333 65.3631 248.768 65.1288 248.198 64.8702C247.64 64.6005 247.176 64.2173 246.805 63.7206C246.434 63.212 246.276 62.6047 246.329 61.8987C246.557 58.8954 248.604 57.5362 252.47 57.8213C253.882 57.9255 254.926 58.2733 255.604 58.8647C256.294 59.445 256.603 60.2078 256.531 61.1531C256.505 61.5001 256.431 61.8316 256.311 62.1476C256.204 62.4525 256.097 62.6673 255.991 62.7918L255.831 62.9966L252.654 62.7623C252.938 62.5065 253.096 62.1692 253.128 61.7504C253.187 60.9726 252.708 60.5462 251.691 60.4712C250.41 60.3768 249.739 60.7364 249.677 61.55C249.646 61.9569 249.825 62.2949 250.214 62.5643C250.603 62.8336 251.079 63.0612 251.642 63.2472C252.219 63.422 252.792 63.6328 253.363 63.8795C253.934 64.1261 254.405 64.5038 254.776 65.0124C255.147 65.5091 255.304 66.1343 255.247 66.8882C255.132 68.4078 254.591 69.505 253.625 70.1798C252.66 70.8426 251.232 71.1043 249.341 70.9648C247.45 70.8253 246.183 70.395 245.54 69.6737C245.064 69.1332 244.859 68.4202 244.926 67.5348C244.952 67.1997 245.015 66.8374 245.117 66.4479L245.193 66.1647L248.424 66.403L248.372 66.6157C248.339 66.7336 248.319 66.8404 248.311 66.9361Z" fill="white"/>
<path d="M275.326 59.6321C276.69 59.7327 277.637 60.1033 278.166 60.744C278.562 61.2304 278.734 61.8207 278.681 62.5147C278.663 62.754 278.62 63.0035 278.552 63.2632L278.195 64.6446C277.992 65.4118 277.693 66.0215 277.297 66.4736C276.914 66.9266 276.499 67.239 276.053 67.4106L277.288 72.772L273.662 72.5045L272.521 67.5652L271.408 67.4832L270.305 72.257L266.859 72.0028L270.12 59.2481L275.326 59.6321ZM273.982 62.3486L272.636 62.2493L271.932 65.3379L273.189 65.4306C273.823 65.4773 274.289 65.3613 274.587 65.0825C274.886 64.7917 275.054 64.395 275.093 63.8924C275.166 62.9232 274.796 62.4086 273.982 62.3486ZM287.651 73.5363L278.639 72.8716L281.901 60.117L290.912 60.7816L290.197 63.5445L284.416 63.1182L283.82 65.5107L288.595 65.8629L287.879 68.6258L283.104 68.2736L282.586 70.3471L288.366 70.7734L287.651 73.5363ZM296.109 74.1601L296.431 71.3502L293.433 71.1291L292.339 73.8821L288.911 73.6292L294.506 61.0467L300.43 61.4836L299.52 74.4117L296.109 74.1601ZM296.116 64.324L294.352 68.7783L296.703 68.9517L297.247 64.4074L296.116 64.324ZM305.741 75.1232C304.03 74.997 302.873 74.5386 302.271 73.7482C301.857 73.1882 301.685 72.4356 301.757 71.4903C301.788 71.0835 301.863 70.6498 301.982 70.1893L303.032 66.1155C303.8 63.1279 305.86 61.7577 309.211 62.0049C310.599 62.1072 311.629 62.4841 312.302 63.1353C312.975 63.7746 313.273 64.6087 313.195 65.6378C313.159 66.1164 313.05 66.5897 312.87 67.0577C312.703 67.5147 312.545 67.852 312.396 68.0696L312.172 68.414L308.994 68.1797C309.424 67.7541 309.67 67.1225 309.734 66.2849C309.768 65.8422 309.68 65.4868 309.472 65.2188C309.265 64.9388 308.939 64.7824 308.497 64.7498C307.288 64.6606 306.519 65.2777 306.19 66.6011L305.286 70.1803C305.203 70.487 305.15 70.7899 305.127 71.0891C305.067 71.8788 305.51 72.3085 306.455 72.3783C307.592 72.4621 308.323 71.8723 308.647 70.6087L311.879 70.847L311.749 71.3609C311.059 74.1136 309.056 75.3677 305.741 75.1232ZM326.066 63.3743L322.822 76.1303L319.573 75.8906L320.753 71.285L317.253 71.0268L316.09 75.6338L312.841 75.3942L316.103 62.6395L319.334 62.8778L317.95 68.2626L321.451 68.5208L322.834 63.136L326.066 63.3743ZM337.645 64.102C340.529 64.3147 341.881 65.5997 341.702 67.9569C341.672 68.3517 341.598 68.7734 341.48 69.2219L340.579 72.7653C340.165 74.4073 339.45 75.5938 338.431 76.3249C337.413 77.056 336.036 77.3576 334.301 77.2296C332.566 77.1016 331.387 76.6116 330.766 75.7596C330.341 75.1748 330.165 74.3977 330.239 73.4285C330.272 72.9978 330.356 72.5287 330.49 72.0212L331.391 68.4779C332.197 65.3126 334.282 63.854 337.645 64.102ZM334.997 74.4833C335.595 74.5275 336.086 74.4072 336.468 74.1226C336.851 73.838 337.146 73.2822 337.353 72.4552L338.225 69.0541C338.279 68.8174 338.314 68.6034 338.328 68.4119C338.402 67.4427 337.948 66.9219 336.967 66.8496C335.732 66.7826 334.943 67.4283 334.599 68.7867L333.727 72.1877C333.656 72.4833 333.609 72.7927 333.584 73.1157C333.521 73.9533 333.992 74.4092 334.997 74.4833ZM350.566 77.238C349.561 77.958 348.19 78.254 346.455 78.126C344.72 77.998 343.547 77.5084 342.938 76.6573C342.501 76.0716 342.32 75.2941 342.393 74.3249C342.426 73.8942 342.51 73.4251 342.645 72.9176L344.727 64.7507L347.958 64.989L345.881 73.0841C345.811 73.3797 345.763 73.6891 345.738 74.0121C345.675 74.8497 346.146 75.3056 347.151 75.3797C347.749 75.4239 348.24 75.3036 348.623 75.019C349.005 74.7344 349.3 74.1786 349.507 73.3516L351.584 65.2564L354.816 65.4948L352.733 73.6617C352.307 75.3148 351.584 76.5069 350.566 77.238ZM367.571 69.2511L363.155 68.9254L360.609 78.9172L357.36 78.6776L359.906 68.6858L355.472 68.3588L356.187 65.5959L368.286 66.4883L367.571 69.2511ZM379.789 79.3933C378.784 80.1133 377.414 80.4093 375.678 80.2813C373.943 80.1533 372.771 79.6638 372.161 78.8127C371.725 78.2269 371.543 77.4495 371.617 76.4803C371.649 76.0495 371.733 75.5804 371.868 75.0729L373.95 66.906L377.182 67.1443L375.105 75.2395C375.034 75.5351 374.986 75.8444 374.962 76.1675C374.898 77.0051 375.369 77.4609 376.374 77.5351C376.973 77.5792 377.463 77.459 377.846 77.1743C378.229 76.8897 378.523 76.3339 378.731 75.5069L380.808 67.4118L384.039 67.6501L381.956 75.817C381.53 77.4701 380.808 78.6622 379.789 79.3933ZM386.934 77.1588C386.872 77.9844 387.433 78.4409 388.618 78.5283C389.814 78.6166 390.441 78.2898 390.497 77.5479C390.527 77.1531 390.348 76.815 389.96 76.5337C389.573 76.2524 389.092 76.0064 388.518 75.7956C387.957 75.5857 387.391 75.3515 386.821 75.0928C386.263 74.8231 385.799 74.4399 385.428 73.9433C385.057 73.4346 384.899 72.8273 384.952 72.1214C385.18 69.118 387.227 67.7589 391.093 68.044C392.505 68.1481 393.549 68.4959 394.227 69.0873C394.917 69.6677 395.226 70.4305 395.154 71.3757C395.128 71.7227 395.054 72.0542 394.934 72.3702C394.827 72.6752 394.72 72.8899 394.614 73.0145L394.454 73.2193L391.277 72.9849C391.561 72.7291 391.719 72.3918 391.751 71.973C391.81 71.1953 391.331 70.7689 390.314 70.6939C389.033 70.5994 388.362 70.959 388.3 71.7727C388.269 72.1795 388.448 72.5176 388.837 72.7869C389.226 73.0562 389.702 73.2839 390.265 73.4698C390.842 73.6447 391.415 73.8555 391.986 74.1021C392.557 74.3488 393.028 74.7264 393.399 75.2351C393.77 75.7317 393.927 76.357 393.87 77.1108C393.755 78.6304 393.214 79.7276 392.248 80.4024C391.283 81.0652 389.855 81.3269 387.964 81.1875C386.073 81.048 384.806 80.6176 384.163 79.8964C383.687 79.3559 383.482 78.6429 383.549 77.7574C383.575 77.4224 383.638 77.0601 383.74 76.6705L383.816 76.3873L387.047 76.6257L386.995 76.8384C386.962 76.9563 386.942 77.0631 386.934 77.1588Z" fill="white"/>
<path d="M413.951 69.8567C415.315 69.9573 416.262 70.3279 416.791 70.9686C417.187 71.4551 417.359 72.0453 417.306 72.7393C417.288 72.9786 417.245 73.2281 417.177 73.4878L416.82 74.8693C416.617 75.6364 416.318 76.2461 415.922 76.6982C415.539 77.1512 415.124 77.4636 414.678 77.6352L415.913 82.9966L412.287 82.7292L411.146 77.7898L410.033 77.7078L408.93 82.4816L405.484 82.2274L408.745 69.4727L413.951 69.8567ZM412.607 72.5732L411.261 72.4739L410.557 75.5625L411.814 75.6552C412.448 75.702 412.914 75.5859 413.212 75.3071C413.511 75.0163 413.679 74.6196 413.718 74.1171C413.791 73.1478 413.421 72.6332 412.607 72.5732ZM426.276 83.7609L417.264 83.0962L420.526 70.3416L429.537 71.0062L428.822 73.7691L423.041 73.3428L422.445 75.7353L427.22 76.0875L426.504 78.8504L421.729 78.4982L421.211 80.5717L426.991 80.998L426.276 83.7609ZM434.734 84.3847L435.056 81.5748L432.058 81.3537L430.964 84.1067L427.536 83.8538L433.131 71.2713L439.055 71.7082L438.145 84.6363L434.734 84.3847ZM434.741 74.5486L432.977 79.0029L435.328 79.1763L435.872 74.632L434.741 74.5486ZM444.366 85.3478C442.655 85.2216 441.498 84.7633 440.896 83.9728C440.482 83.4128 440.31 82.6602 440.382 81.7149C440.413 81.3081 440.488 80.8744 440.607 80.4139L441.657 76.3401C442.425 73.3525 444.485 71.9823 447.836 72.2295C449.224 72.3319 450.254 72.7087 450.927 73.3599C451.6 73.9992 451.898 74.8333 451.82 75.8624C451.784 76.341 451.675 76.8143 451.495 77.2823C451.328 77.7393 451.17 78.0766 451.021 78.2942L450.797 78.6386L447.619 78.4043C448.049 77.9787 448.295 77.3471 448.359 76.5096C448.393 76.0668 448.305 75.7114 448.097 75.4434C447.89 75.1634 447.564 75.007 447.122 74.9744C445.913 74.8852 445.144 75.5024 444.815 76.8257L443.911 80.4049C443.828 80.7116 443.775 81.0145 443.752 81.3137C443.692 82.1034 444.135 82.5331 445.08 82.6029C446.217 82.6867 446.948 82.0969 447.272 80.8333L450.504 81.0716L450.374 81.5855C449.684 84.3382 447.681 85.5923 444.366 85.3478ZM464.691 73.5989L461.447 86.3549L458.198 86.1153L459.378 81.5096L455.878 81.2514L454.715 85.8584L451.466 85.6188L454.728 72.8641L457.959 73.1024L456.575 78.4872L460.076 78.7454L461.459 73.3606L464.691 73.5989ZM476.27 74.3266C479.154 74.5393 480.506 75.8243 480.327 78.1815C480.297 78.5764 480.223 78.998 480.105 79.4466L479.204 82.9899C478.79 84.6319 478.075 85.8185 477.056 86.5495C476.038 87.2806 474.661 87.5822 472.926 87.4542C471.191 87.3262 470.012 86.8362 469.391 85.9842C468.966 85.3994 468.79 84.6223 468.864 83.6531C468.897 83.2224 468.981 82.7533 469.115 82.2458L470.016 78.7025C470.822 75.5372 472.907 74.0786 476.27 74.3266ZM473.622 84.7079C474.22 84.7521 474.711 84.6318 475.093 84.3472C475.476 84.0626 475.771 83.5068 475.978 82.6798L476.85 79.2787C476.904 79.042 476.939 78.828 476.953 78.6365C477.027 77.6673 476.573 77.1465 475.592 77.0742C474.357 77.0072 473.568 77.6529 473.224 79.0113L472.352 82.4123C472.281 82.7079 472.234 83.0173 472.209 83.3403C472.146 84.1779 472.617 84.6338 473.622 84.7079ZM489.191 87.4626C488.186 88.1826 486.815 88.4786 485.08 88.3506C483.345 88.2226 482.172 87.7331 481.563 86.8819C481.126 86.2962 480.945 85.5188 481.018 84.5495C481.051 84.1188 481.135 83.6497 481.27 83.1422L483.352 74.9753L486.583 75.2136L484.506 83.3087C484.436 83.6043 484.388 83.9137 484.363 84.2368C484.3 85.0743 484.771 85.5302 485.776 85.6044C486.374 85.6485 486.865 85.5282 487.248 85.2436C487.63 84.959 487.925 84.4032 488.132 83.5762L490.209 75.481L493.441 75.7194L491.358 83.8863C490.932 85.5394 490.209 86.7315 489.191 87.4626ZM506.196 79.4757L501.78 79.15L499.234 89.1418L495.985 88.9022L498.531 78.9104L494.097 78.5834L494.812 75.8205L506.911 76.7129L506.196 79.4757ZM518.414 89.6179C517.409 90.3379 516.039 90.6339 514.303 90.5059C512.568 90.3779 511.396 89.8884 510.786 89.0373C510.35 88.4516 510.168 87.6741 510.242 86.7049C510.274 86.2741 510.358 85.805 510.493 85.2976L512.575 77.1306L515.807 77.3689L513.73 85.4641C513.659 85.7597 513.611 86.069 513.587 86.3921C513.523 87.2297 513.994 87.6855 514.999 87.7597C515.598 87.8038 516.088 87.6836 516.471 87.399C516.854 87.1143 517.148 86.5585 517.356 85.7315L519.433 77.6364L522.664 77.8747L520.581 86.0416C520.155 87.6947 519.433 88.8868 518.414 89.6179ZM525.559 87.3834C525.497 88.209 526.058 88.6655 527.243 88.7529C528.439 88.8412 529.066 88.5144 529.122 87.7725C529.152 87.3777 528.973 87.0396 528.585 86.7583C528.198 86.477 527.717 86.231 527.143 86.0202C526.582 85.8103 526.016 85.5761 525.446 85.3174C524.888 85.0477 524.424 84.6645 524.053 84.1679C523.682 83.6592 523.524 83.0519 523.577 82.346C523.805 79.3426 525.852 77.9835 529.718 78.2686C531.13 78.3728 532.174 78.7205 532.852 79.3119C533.542 79.8923 533.851 80.6551 533.779 81.6003C533.753 81.9473 533.679 82.2788 533.559 82.5949C533.452 82.8998 533.345 83.1145 533.239 83.2391L533.079 83.4439L529.902 83.2095C530.186 82.9537 530.344 82.6164 530.376 82.1977C530.435 81.4199 529.956 80.9935 528.939 80.9185C527.658 80.824 526.987 81.1836 526.925 81.9973C526.894 82.4041 527.073 82.7422 527.462 83.0115C527.851 83.2808 528.327 83.5085 528.89 83.6944C529.467 83.8693 530.04 84.0801 530.611 84.3267C531.182 84.5734 531.653 84.951 532.024 85.4597C532.395 85.9563 532.552 86.5816 532.495 87.3354C532.38 88.855 531.839 89.9522 530.873 90.627C529.908 91.2898 528.48 91.5515 526.589 91.4121C524.698 91.2726 523.431 90.8422 522.788 90.121C522.312 89.5805 522.107 88.8675 522.174 87.982C522.2 87.647 522.263 87.2847 522.365 86.8951L522.441 86.6119L525.672 86.8503L525.62 87.063C525.587 87.1809 525.567 87.2877 525.559 87.3834Z" fill="white"/>
<g filter="url(#filter0_d_396_1466)">
<rect width="549.787" height="23.8245" transform="matrix(0.993218 -0.11627 0.119681 0.992813 -23 90.7207)" fill="#214CDB"/>
<path d="M-14.602 94.812C-13.2433 94.6529 -12.242 94.8378 -11.5981 95.3665C-11.1145 95.769 -10.831 96.3157 -10.7477 97.0067C-10.719 97.245 -10.7126 97.498 -10.7287 97.7657L-10.811 99.1889C-10.8607 99.98 -11.0355 100.635 -11.3357 101.153C-11.6238 101.67 -11.9703 102.055 -12.3749 102.308L-10.119 107.336L-13.7303 107.758L-15.8116 103.127L-16.92 103.257L-17.0735 108.15L-20.5061 108.552L-19.7866 95.4189L-14.602 94.812ZM-15.3923 97.7317L-16.7331 97.8886L-16.8231 101.053L-15.5717 100.906C-14.94 100.832 -14.505 100.63 -14.2668 100.3C-14.03 99.9584 -13.9418 99.5372 -14.0021 99.0369C-14.1184 98.0719 -14.5818 97.6368 -15.3923 97.7317ZM0.201033 106.128L-8.77368 107.178L-8.05425 94.0455L0.920467 92.9949L0.755949 95.8413L-5.00074 96.5152L-5.12111 98.9759L-0.365583 98.4192L-0.530101 101.266L-5.28563 101.822L-5.39114 103.955L0.365551 103.281L0.201033 106.128ZM8.62489 105.141L8.39393 102.323L5.40832 102.673L4.87052 105.581L1.45584 105.981L4.4994 92.5759L10.3991 91.8853L12.0217 104.744L8.62489 105.141ZM6.71782 95.4877L5.85265 100.192L8.19465 99.918L7.84413 95.3559L6.71782 95.4877ZM18.2667 104.266C16.5623 104.466 15.3378 104.235 14.5933 103.573C14.0772 103.102 13.7624 102.395 13.6489 101.454C13.6001 101.049 13.5894 100.609 13.6168 100.135L13.8543 95.939C14.0273 92.862 15.7824 91.1282 19.1196 90.7375C20.5022 90.5757 21.5869 90.7508 22.3739 91.2627C23.1594 91.7628 23.6139 92.5251 23.7374 93.5497C23.7948 94.0263 23.7807 94.5112 23.6952 95.0045C23.6201 95.4844 23.5306 95.8453 23.4268 96.087L23.2732 96.4674L20.1088 96.8379C20.4476 96.3391 20.5667 95.6727 20.4661 94.8388C20.413 94.398 20.2581 94.0657 20.0015 93.8421C19.7435 93.6065 19.394 93.5145 18.953 93.5661C17.7492 93.707 17.1145 94.4579 17.0489 95.8187L16.8583 99.5019C16.8361 99.8186 16.8429 100.126 16.8788 100.424C16.9736 101.21 17.4918 101.548 18.4333 101.438C19.5656 101.305 20.1681 100.588 20.2409 99.2871L23.4589 98.9104L23.432 99.4391C23.2899 102.271 21.5681 103.88 18.2667 104.266ZM35.9303 88.8965L35.2288 102.027L31.9929 102.406L32.2551 97.6632L28.7689 98.0713L28.5245 102.812L25.2886 103.191L26.0081 90.058L29.2261 89.6813L28.9156 95.227L32.4018 94.8189L32.7123 89.2732L35.9303 88.8965ZM47.4376 87.4225C50.3099 87.0863 51.8876 88.0917 52.1705 90.4387C52.2179 90.8318 52.2272 91.2597 52.1983 91.7221L52.0035 95.3695C51.917 97.059 51.4452 98.3587 50.5879 99.2685C49.7307 100.178 48.4379 100.734 46.7097 100.937C44.9815 101.139 43.7296 100.881 42.9541 100.162C42.4232 99.6686 42.0996 98.9392 41.9832 97.9742C41.9315 97.5453 41.9225 97.0692 41.9561 96.5457L42.1509 92.8983C42.3262 89.6399 44.0884 87.8146 47.4376 87.4225ZM46.8585 98.1103C47.4545 98.0405 47.9125 97.8298 48.2328 97.4782C48.553 97.1266 48.7343 96.5255 48.7768 95.6748L48.971 92.1724C48.9781 91.93 48.9701 91.7134 48.9471 91.5228C48.8308 90.5578 48.284 90.1325 47.3066 90.2469C46.0819 90.4144 45.4329 91.1972 45.3597 92.5952L45.1655 96.0975C45.1537 96.4009 45.1672 96.7135 45.206 97.0352C45.3065 97.8691 45.8574 98.2275 46.8585 98.1103ZM62.6767 97.8715C61.8299 98.768 60.5424 99.3175 58.8142 99.5198C57.086 99.7221 55.8401 99.4632 55.0764 98.7431C54.5336 98.2509 54.204 97.5223 54.0877 96.5572C54.036 96.1283 54.0269 95.6522 54.0605 95.1287L54.5155 86.7208L57.7336 86.3441L57.2699 94.6805C57.2582 94.9839 57.2717 95.2965 57.3105 95.6182C57.411 96.4521 57.9618 96.8105 58.963 96.6933C59.5589 96.6235 60.017 96.4129 60.3372 96.0612C60.6574 95.7096 60.8388 95.1085 60.8813 94.2578L61.3449 85.9214L64.5629 85.5446L64.1079 93.9525C64.011 95.6553 63.5339 96.9617 62.6767 97.8715ZM77.8141 86.8206L73.4161 87.3354L72.8612 97.6216L69.6253 98.0005L70.1802 87.7142L65.7644 88.2312L65.9289 85.3847L77.9786 83.9742L77.8141 86.8206ZM91.7807 94.4645C90.9339 95.361 89.6464 95.9104 87.9182 96.1127C86.19 96.315 84.9441 96.0562 84.1804 95.3361C83.6376 94.8438 83.308 94.1152 83.1917 93.1502C83.14 92.7213 83.1309 92.2451 83.1645 91.7217L83.6195 83.3138L86.8376 82.9371L86.3739 91.2735C86.3622 91.5769 86.3757 91.8895 86.4145 92.2111C86.515 93.0451 87.0658 93.4035 88.067 93.2863C88.6629 93.2165 89.121 93.0058 89.4412 92.6542C89.7614 92.3026 89.9428 91.7014 89.9853 90.8507L90.4489 82.5143L93.6669 82.1376L93.2119 90.5455C93.115 92.2483 92.6379 93.5546 91.7807 94.4645ZM98.3592 90.9216C98.4583 91.7436 99.0978 92.0856 100.278 91.9475C101.47 91.8079 102.021 91.3688 101.932 90.6302C101.885 90.237 101.643 89.9391 101.208 89.7363C100.772 89.5336 100.253 89.383 99.6486 89.2846C99.0564 89.1848 98.4553 89.0618 97.8455 88.9157C97.2461 88.7563 96.7158 88.468 96.2545 88.0508C95.7918 87.6217 95.5181 87.0557 95.4334 86.3528C95.0729 83.3625 96.8175 81.6419 100.667 81.1913C102.074 81.0266 103.167 81.1705 103.946 81.6229C104.737 82.062 105.189 82.7522 105.302 83.6934C105.344 84.0389 105.336 84.378 105.28 84.7109C105.234 85.0304 105.171 85.2612 105.091 85.4035L104.974 85.6347L101.81 86.0051C102.039 85.7004 102.128 85.3395 102.078 84.9225C101.985 84.1482 101.431 83.8203 100.418 83.9388C99.143 84.0881 98.5542 84.5679 98.6518 85.378C98.7007 85.7831 98.9421 86.081 99.376 86.2718C99.81 86.4627 100.322 86.5961 100.911 86.6721C101.511 86.7348 102.115 86.8332 102.723 86.9674C103.332 87.1015 103.867 87.3832 104.33 87.8123C104.791 88.2295 105.067 88.8134 105.158 89.5639C105.34 91.077 105.023 92.2558 104.206 93.1005C103.388 93.9333 102.037 94.4599 100.154 94.6804C98.2708 94.9008 96.9434 94.7179 96.1717 94.1317C95.5989 93.6913 95.2593 93.0303 95.153 92.1487C95.1128 91.8151 95.1048 91.4475 95.1289 91.046L95.1481 90.7538L98.3661 90.3771L98.3562 90.5957C98.3467 90.7177 98.3477 90.8263 98.3592 90.9216Z" fill="white"/>
<path d="M123.455 78.6499C124.813 78.4908 125.815 78.6757 126.459 79.2044C126.942 79.6069 127.226 80.1536 127.309 80.8446C127.338 81.0829 127.344 81.3359 127.328 81.6035L127.246 83.0268C127.196 83.8179 127.021 84.4727 126.721 84.9911C126.433 85.5081 126.086 85.893 125.682 86.1457L127.938 91.1735L124.326 91.5963L122.245 86.9649L121.137 87.0946L120.983 91.9876L117.551 92.3895L118.27 79.2568L123.455 78.6499ZM122.664 81.5696L121.324 81.7265L121.234 84.8904L122.485 84.7439C123.117 84.67 123.552 84.468 123.79 84.1381C124.027 83.7962 124.115 83.3751 124.055 82.8748C123.938 81.9097 123.475 81.4747 122.664 81.5696ZM138.258 89.9654L129.283 91.016L130.002 77.8834L138.977 76.8328L138.813 79.6792L133.056 80.3531L132.936 82.8137L137.691 82.257L137.527 85.1035L132.771 85.6602L132.666 87.7929L138.422 87.119L138.258 89.9654ZM146.682 88.9793L146.451 86.161L143.465 86.5105L142.927 89.4188L139.512 89.8185L142.556 76.4138L148.456 75.7232L150.078 88.5816L146.682 88.9793ZM144.774 79.3256L143.909 84.0301L146.251 83.7559L145.901 79.1937L144.774 79.3256ZM156.323 88.1043C154.619 88.3038 153.394 88.0726 152.65 87.4107C152.134 86.9395 151.819 86.2333 151.706 85.2921C151.657 84.8871 151.646 84.4473 151.673 83.9729L151.911 79.7769C152.084 76.6999 153.839 74.9661 157.176 74.5754C158.559 74.4136 159.644 74.5887 160.431 75.1006C161.216 75.6007 161.67 76.363 161.794 77.3876C161.851 77.8641 161.837 78.3491 161.752 78.8424C161.677 79.3223 161.587 79.6832 161.483 79.9249L161.33 80.3053L158.165 80.6758C158.504 80.177 158.623 79.5106 158.523 78.6767C158.47 78.2359 158.315 77.9036 158.058 77.6799C157.8 77.4443 157.451 77.3524 157.01 77.404C155.806 77.5449 155.171 78.2958 155.106 79.6566L154.915 83.3398C154.893 83.6565 154.9 83.9638 154.935 84.2616C155.03 85.0479 155.548 85.386 156.49 85.2757C157.622 85.1432 158.225 84.4263 158.298 83.125L161.516 82.7483L161.489 83.277C161.347 86.1087 159.625 87.7178 156.323 88.1043ZM173.987 72.7344L173.285 85.8649L170.05 86.2437L170.312 81.5011L166.826 81.9092L166.581 86.6498L163.345 87.0286L164.065 73.8959L167.283 73.5192L166.972 79.0649L170.458 78.6568L170.769 73.1111L173.987 72.7344ZM185.494 71.2604C188.367 70.9242 189.944 71.9296 190.227 74.2766C190.275 74.6697 190.284 75.0975 190.255 75.56L190.06 79.2074C189.974 80.8969 189.502 82.1966 188.645 83.1064C187.787 84.0163 186.495 84.5723 184.766 84.7746C183.038 84.977 181.786 84.7188 181.011 84.0001C180.48 83.5065 180.156 82.7771 180.04 81.8121C179.988 81.3832 179.979 80.9071 180.013 80.3836L180.208 76.7362C180.383 73.4778 182.145 71.6525 185.494 71.2604ZM184.915 81.9482C185.511 81.8784 185.969 81.6677 186.289 81.3161C186.61 80.9645 186.791 80.3634 186.833 79.5126L187.028 76.0103C187.035 75.7679 187.027 75.5513 187.004 75.3607C186.887 74.3957 186.341 73.9704 185.363 74.0848C184.139 74.2523 183.49 75.0351 183.416 76.4331L183.222 79.9354C183.21 80.2388 183.224 80.5514 183.263 80.873C183.363 81.707 183.914 82.0654 184.915 81.9482ZM200.733 81.7094C199.887 82.6059 198.599 83.1553 196.871 83.3577C195.143 83.56 193.897 83.3011 193.133 82.581C192.59 82.0888 192.261 81.3601 192.144 80.3951C192.093 79.9662 192.084 79.4901 192.117 78.9666L192.572 70.5587L195.79 70.182L195.327 78.5184C195.315 78.8218 195.328 79.1344 195.367 79.4561C195.468 80.29 196.018 80.6484 197.02 80.5312C197.616 80.4614 198.074 80.2507 198.394 79.8991C198.714 79.5475 198.895 78.9464 198.938 78.0957L199.402 69.7593L202.62 69.3825L202.165 77.7904C202.068 79.4932 201.591 80.7995 200.733 81.7094ZM215.871 70.6585L211.473 71.1733L210.918 81.4595L207.682 81.8383L208.237 71.5521L203.821 72.0691L203.986 69.2226L216.035 67.812L215.871 70.6585ZM229.837 78.3024C228.991 79.1989 227.703 79.7483 225.975 79.9506C224.247 80.1529 223.001 79.894 222.237 79.174C221.694 78.6817 221.365 77.9531 221.248 76.9881C221.197 76.5592 221.188 76.083 221.221 75.5596L221.676 67.1517L224.894 66.775L224.431 75.1114C224.419 75.4148 224.432 75.7274 224.471 76.049C224.572 76.883 225.122 77.2414 226.124 77.1242C226.72 77.0544 227.178 76.8437 227.498 76.4921C227.818 76.1405 227.999 75.5393 228.042 74.6886L228.506 66.3522L231.724 65.9755L231.269 74.3834C231.172 76.0862 230.695 77.3925 229.837 78.3024ZM236.416 74.7595C236.515 75.5815 237.154 75.9235 238.334 75.7854C239.526 75.6458 240.078 75.2067 239.989 74.4681C239.941 74.0749 239.7 73.777 239.264 73.5742C238.829 73.3715 238.309 73.2209 237.705 73.1225C237.113 73.0226 236.512 72.8997 235.902 72.7536C235.303 72.5942 234.772 72.3059 234.311 71.8887C233.848 71.4596 233.575 70.8936 233.49 70.1907C233.13 67.2003 234.874 65.4798 238.724 65.0292C240.13 64.8645 241.223 65.0084 242.003 65.4608C242.793 65.8999 243.245 66.5901 243.359 67.5312C243.4 67.8767 243.393 68.2159 243.336 68.5487C243.29 68.8683 243.227 69.0991 243.148 69.2414L243.031 69.4725L239.866 69.843C240.095 69.5383 240.185 69.1774 240.135 68.7604C240.041 67.986 239.488 67.6581 238.475 67.7767C237.2 67.926 236.611 68.4057 236.708 69.2159C236.757 69.6209 236.999 69.9189 237.433 70.1097C237.867 70.3006 238.378 70.434 238.968 70.51C239.567 70.5727 240.172 70.6711 240.78 70.8053C241.388 70.9394 241.924 71.2211 242.387 71.6502C242.848 72.0674 243.124 72.6513 243.214 73.4018C243.397 74.9149 243.079 76.0937 242.263 76.9384C241.444 77.7712 240.094 78.2978 238.211 78.5183C236.327 78.7387 235 78.5558 234.228 77.9696C233.656 77.5292 233.316 76.8682 233.21 75.9866C233.169 75.653 233.161 75.2854 233.186 74.8839L233.205 74.5917L236.423 74.215L236.413 74.4336C236.403 74.5555 236.404 74.6642 236.416 74.7595Z" fill="white"/>
<path d="M261.513 62.4897C262.872 62.3307 263.873 62.5155 264.517 63.0442C265.001 63.4467 265.284 63.9935 265.368 64.6845C265.396 64.9227 265.403 65.1757 265.387 65.4434L265.304 66.8666C265.255 67.6577 265.08 68.3125 264.78 68.8309C264.491 69.3479 264.145 69.7328 263.74 69.9856L265.996 75.0133L262.385 75.4361L260.304 70.8047L259.195 70.9345L259.042 75.8275L255.609 76.2293L256.329 63.0967L261.513 62.4897ZM260.723 65.4094L259.382 65.5664L259.292 68.7303L260.544 68.5838C261.175 68.5098 261.61 68.3079 261.848 67.9779C262.085 67.6361 262.173 67.215 262.113 66.7146C261.997 65.7496 261.533 65.3145 260.723 65.4094ZM276.316 73.8052L267.342 74.8559L268.061 61.7232L277.036 60.6726L276.871 63.519L271.114 64.1929L270.994 66.6536L275.75 66.0969L275.585 68.9433L270.83 69.5L270.724 71.6327L276.481 70.9588L276.316 73.8052ZM284.74 72.8191L284.509 70.0009L281.524 70.3504L280.986 73.2586L277.571 73.6584L280.615 60.2536L286.514 59.563L288.137 72.4215L284.74 72.8191ZM282.833 63.1654L281.968 67.8699L284.31 67.5957L283.959 63.0336L282.833 63.1654ZM294.382 71.9441C292.678 72.1437 291.453 71.9125 290.709 71.2505C290.192 70.7794 289.878 70.0732 289.764 69.132C289.715 68.7269 289.705 68.2872 289.732 67.8128L289.97 63.6167C290.143 60.5398 291.898 58.8059 295.235 58.4153C296.617 58.2534 297.702 58.4285 298.489 58.9405C299.275 59.4405 299.729 60.2029 299.853 61.2274C299.91 61.704 299.896 62.1889 299.81 62.6822C299.735 63.1622 299.646 63.523 299.542 63.7647L299.388 64.1452L296.224 64.5156C296.563 64.0168 296.682 63.3505 296.581 62.5165C296.528 62.0757 296.373 61.7435 296.117 61.5198C295.859 61.2842 295.509 61.1922 295.068 61.2438C293.864 61.3847 293.23 62.1356 293.164 63.4965L292.974 67.1796C292.951 67.4963 292.958 67.8036 292.994 68.1015C293.089 68.8878 293.607 69.2258 294.549 69.1156C295.681 68.983 296.283 68.2661 296.356 66.9648L299.574 66.5881L299.547 67.1168C299.405 69.9486 297.683 71.5577 294.382 71.9441ZM312.046 56.5742L311.344 69.7048L308.108 70.0836L308.37 65.3409L304.884 65.7491L304.64 70.4896L301.404 70.8684L302.123 57.7358L305.341 57.359L305.031 62.9047L308.517 62.4966L308.828 56.9509L312.046 56.5742ZM323.553 55.1003C326.425 54.764 328.003 55.7694 328.286 58.1164C328.333 58.5096 328.342 58.9374 328.314 59.3999L328.119 63.0473C328.032 64.7368 327.56 66.0364 326.703 66.9463C325.846 67.8561 324.553 68.4122 322.825 68.6145C321.097 68.8168 319.845 68.5586 319.069 67.8399C318.538 67.3463 318.215 66.617 318.098 65.652C318.047 65.2231 318.038 64.7469 318.071 64.2234L318.266 60.5761C318.441 57.3176 320.204 55.4923 323.553 55.1003ZM322.974 65.788C323.57 65.7183 324.028 65.5076 324.348 65.156C324.668 64.8044 324.85 64.2032 324.892 63.3525L325.086 59.8502C325.093 59.6077 325.085 59.3912 325.062 59.2006C324.946 58.2355 324.399 57.8102 323.422 57.9246C322.197 58.0922 321.548 58.8749 321.475 60.2729L321.281 63.7752C321.269 64.0787 321.282 64.3912 321.321 64.7129C321.422 65.5469 321.973 65.9052 322.974 65.788ZM338.792 65.5492C337.945 66.4458 336.658 66.9952 334.929 67.1975C333.201 67.3998 331.955 67.1409 331.192 66.4208C330.649 65.9286 330.319 65.2 330.203 64.235C330.151 63.8061 330.142 63.3299 330.176 62.8064L330.631 54.3986L333.849 54.0219L333.385 62.3583C333.373 62.6617 333.387 62.9742 333.426 63.2959C333.526 64.1299 334.077 64.4882 335.078 64.371C335.674 64.3013 336.132 64.0906 336.452 63.739C336.773 63.3874 336.954 62.7862 336.997 61.9355L337.46 53.5991L340.678 53.2224L340.223 61.6303C340.126 63.3331 339.649 64.6394 338.792 65.5492ZM353.929 54.4983L349.531 55.0132L348.976 65.2994L345.741 65.6782L346.295 55.392L341.88 55.9089L342.044 53.0625L354.094 51.6519L353.929 54.4983ZM367.896 62.1422C367.049 63.0387 365.762 63.5882 364.033 63.7905C362.305 63.9928 361.059 63.7339 360.296 63.0138C359.753 62.5216 359.423 61.793 359.307 60.8279C359.255 60.3991 359.246 59.9229 359.28 59.3994L359.735 50.9915L362.953 50.6148L362.489 58.9512C362.477 59.2547 362.491 59.5672 362.53 59.8889C362.63 60.7228 363.181 61.0812 364.182 60.964C364.778 60.8943 365.236 60.6836 365.556 60.332C365.877 59.9803 366.058 59.3792 366.101 58.5285L366.564 50.1921L369.782 49.8154L369.327 58.2232C369.23 59.926 368.753 61.2324 367.896 62.1422ZM374.474 58.5993C374.574 59.4214 375.213 59.7633 376.393 59.6252C377.585 59.4857 378.136 59.0466 378.047 58.3079C378 57.9148 377.758 57.6168 377.323 57.4141C376.888 57.2113 376.368 57.0607 375.764 56.9623C375.172 56.8625 374.571 56.7395 373.961 56.5935C373.361 56.4341 372.831 56.1458 372.37 55.7286C371.907 55.2995 371.633 54.7334 371.549 54.0305C371.188 51.0402 372.933 49.3197 376.782 48.869C378.189 48.7044 379.282 48.8483 380.062 49.3007C380.852 49.7398 381.304 50.4299 381.417 51.3711C381.459 51.7166 381.451 52.0558 381.395 52.3886C381.349 52.7081 381.286 52.939 381.206 53.0812L381.089 53.3124L377.925 53.6828C378.154 53.3781 378.243 53.0173 378.193 52.6003C378.1 51.8259 377.547 51.498 376.534 51.6166C375.258 51.7659 374.669 52.2456 374.767 53.0557C374.816 53.4608 375.057 53.7587 375.491 53.9496C375.925 54.1404 376.437 54.2738 377.026 54.3498C377.626 54.4125 378.23 54.5109 378.839 54.6451C379.447 54.7793 379.983 55.0609 380.445 55.49C380.906 55.9072 381.182 56.4911 381.273 57.2417C381.455 58.7547 381.138 59.9336 380.321 60.7783C379.503 61.6111 378.152 62.1377 376.269 62.3581C374.386 62.5786 373.059 62.3957 372.287 61.8094C371.714 61.369 371.375 60.708 371.268 59.8264C371.228 59.4928 371.22 59.1253 371.244 58.7237L371.263 58.4315L374.481 58.0548L374.471 58.2735C374.462 58.3954 374.463 58.504 374.474 58.5993Z" fill="white"/>
<path d="M399.57 46.3276C400.929 46.1686 401.93 46.3534 402.574 46.8821C403.057 47.2846 403.341 47.8313 403.424 48.5223C403.453 48.7606 403.459 49.0136 403.443 49.2813L403.361 50.7045C403.311 51.4956 403.136 52.1504 402.836 52.6688C402.548 53.1858 402.202 53.5707 401.797 53.8235L404.053 58.8512L400.442 59.274L398.36 54.6426L397.252 54.7724L397.098 59.6654L393.666 60.0672L394.385 46.9345L399.57 46.3276ZM398.78 49.2473L397.439 49.4042L397.349 52.5682L398.6 52.4217C399.232 52.3477 399.667 52.1458 399.905 51.8158C400.142 51.474 400.23 51.0529 400.17 50.5525C400.053 49.5875 399.59 49.1524 398.78 49.2473ZM414.373 57.6431L405.398 58.6938L406.118 45.5611L415.092 44.5105L414.928 47.3569L409.171 48.0308L409.051 50.4915L413.806 49.9348L413.642 52.7812L408.886 53.3379L408.781 55.4706L414.537 54.7967L414.373 57.6431ZM422.797 56.657L422.566 53.8388L419.58 54.1883L419.042 57.0965L415.628 57.4962L418.671 44.0915L424.571 43.4009L426.194 56.2594L422.797 56.657ZM420.89 47.0033L420.025 51.7078L422.367 51.4336L422.016 46.8715L420.89 47.0033ZM432.439 55.782C430.734 55.9815 429.51 55.7504 428.765 55.0884C428.249 54.6173 427.934 53.9111 427.821 52.9699C427.772 52.5648 427.761 52.1251 427.789 51.6507L428.026 47.4546C428.199 44.3777 429.954 42.6438 433.292 42.2532C434.674 42.0913 435.759 42.2664 436.546 42.7784C437.331 43.2784 437.786 44.0407 437.909 45.0653C437.967 45.5419 437.953 46.0268 437.867 46.5201C437.792 47.0001 437.702 47.3609 437.599 47.6026L437.445 47.9831L434.281 48.3535C434.619 47.8547 434.739 47.1884 434.638 46.3544C434.585 45.9136 434.43 45.5814 434.173 45.3577C433.915 45.1221 433.566 45.0301 433.125 45.0817C431.921 45.2226 431.286 45.9735 431.221 47.3344L431.03 51.0175C431.008 51.3342 431.015 51.6415 431.051 51.9394C431.145 52.7257 431.664 53.0637 432.605 52.9535C433.737 52.8209 434.34 52.104 434.413 50.8027L437.631 50.426L437.604 50.9547C437.462 53.7865 435.74 55.3955 432.439 55.782ZM450.102 40.4121L449.401 53.5427L446.165 53.9215L446.427 49.1788L442.941 49.5869L442.696 54.3275L439.461 54.7063L440.18 41.5736L443.398 41.1969L443.087 46.7426L446.574 46.3345L446.884 40.7888L450.102 40.4121ZM461.609 38.9382C464.482 38.6019 466.059 39.6073 466.342 41.9543C466.39 42.3475 466.399 42.7753 466.37 43.2378L466.175 46.8851C466.089 48.5746 465.617 49.8743 464.76 50.7842C463.903 51.694 462.61 52.2501 460.882 52.4524C459.153 52.6547 457.902 52.3965 457.126 51.6778C456.595 51.1842 456.271 50.4549 456.155 49.4899C456.103 49.061 456.094 48.5848 456.128 48.0613L456.323 44.414C456.498 41.1555 458.26 39.3302 461.609 38.9382ZM461.03 49.6259C461.626 49.5562 462.084 49.3455 462.405 48.9939C462.725 48.6422 462.906 48.0411 462.949 47.1904L463.143 43.6881C463.15 43.4456 463.142 43.2291 463.119 43.0384C463.003 42.0734 462.456 41.6481 461.479 41.7625C460.254 41.9301 459.605 42.7128 459.532 44.1108L459.337 47.6131C459.326 47.9166 459.339 48.2291 459.378 48.5508C459.478 49.3847 460.029 49.7431 461.03 49.6259ZM476.849 49.3871C476.002 50.2837 474.714 50.8331 472.986 51.0354C471.258 51.2377 470.012 50.9788 469.248 50.2587C468.705 49.7665 468.376 49.0379 468.26 48.0729C468.208 47.644 468.199 47.1678 468.232 46.6443L468.687 38.2365L471.905 37.8597L471.442 46.1961C471.43 46.4996 471.444 46.8121 471.482 47.1338C471.583 47.9677 472.134 48.3261 473.135 48.2089C473.731 48.1392 474.189 47.9285 474.509 47.5769C474.829 47.2253 475.011 46.6241 475.053 45.7734L475.517 37.437L478.735 37.0603L478.28 45.4682C478.183 47.171 477.706 48.4773 476.849 49.3871ZM491.986 38.3362L487.588 38.851L487.033 49.1373L483.797 49.5161L484.352 39.2299L479.936 39.7468L480.101 36.9004L492.151 35.4898L491.986 38.3362ZM505.953 45.9801C505.106 46.8766 503.818 47.4261 502.09 47.6284C500.362 47.8307 499.116 47.5718 498.352 46.8517C497.809 46.3595 497.48 45.6309 497.364 44.6658C497.312 44.2369 497.303 43.7608 497.336 43.2373L497.791 34.8294L501.009 34.4527L500.546 42.7891C500.534 43.0925 500.548 43.4051 500.586 43.7268C500.687 44.5607 501.238 44.9191 502.239 44.8019C502.835 44.7321 503.293 44.5215 503.613 44.1698C503.933 43.8182 504.115 43.2171 504.157 42.3664L504.621 34.03L507.839 33.6533L507.384 42.0611C507.287 43.7639 506.81 45.0703 505.953 45.9801ZM512.531 42.4372C512.63 43.2593 513.27 43.6012 514.45 43.4631C515.642 43.3236 516.193 42.8845 516.104 42.1458C516.056 41.7527 515.815 41.4547 515.38 41.252C514.944 41.0492 514.425 40.8986 513.82 40.8002C513.228 40.7004 512.627 40.5774 512.017 40.4313C511.418 40.272 510.888 39.9837 510.426 39.5665C509.964 39.1374 509.69 38.5713 509.605 37.8684C509.245 34.8781 510.989 33.1576 514.839 32.7069C516.246 32.5423 517.339 32.6862 518.118 33.1386C518.909 33.5777 519.36 34.2678 519.474 35.209C519.516 35.5545 519.508 35.8936 519.451 36.2265C519.405 36.546 519.343 36.7769 519.263 36.9191L519.146 37.1503L515.981 37.5207C516.211 37.216 516.3 36.8552 516.25 36.4382C516.156 35.6638 515.603 35.3359 514.59 35.4545C513.315 35.6038 512.726 36.0835 512.824 36.8936C512.873 37.2987 513.114 37.5966 513.548 37.7875C513.982 37.9783 514.494 38.1117 515.083 38.1877C515.683 38.2504 516.287 38.3488 516.895 38.483C517.504 38.6172 518.039 38.8988 518.502 39.3279C518.963 39.7451 519.239 40.329 519.329 41.0796C519.512 42.5926 519.195 43.7715 518.378 44.6162C517.56 45.4489 516.209 45.9756 514.326 46.196C512.443 46.4164 511.115 46.2335 510.344 45.6473C509.771 45.2069 509.431 44.5459 509.325 43.6643C509.285 43.3307 509.277 42.9632 509.301 42.5616L509.32 42.2694L512.538 41.8927L512.528 42.1113C512.519 42.2333 512.52 42.3419 512.531 42.4372Z" fill="white"/>
</g>
</g>
<defs>
<filter id="filter0_d_396_1466" x="-46" y="3.79688" width="594.91" height="133.576" filterUnits="userSpaceOnUse" color-interpolation-filters="sRGB">
<feFlood flood-opacity="0" result="BackgroundImageFix"/>
<feColorMatrix in="SourceAlpha" type="matrix" values="0 0 0 0 0 0 0 0 0 0 0 0 0 0 0 0 0 0 127 0" result="hardAlpha"/>
<feOffset/>
<feGaussianBlur stdDeviation="11.5"/>
<feComposite in2="hardAlpha" operator="out"/>
<feColorMatrix type="matrix" values="0 0 0 0 0 0 0 0 0 0 0 0 0 0 0 0 0 0 0.42 0"/>
<feBlend mode="normal" in2="BackgroundImageFix" result="effect1_dropShadow_396_1466"/>
<feBlend mode="normal" in="SourceGraphic" in2="effect1_dropShadow_396_1466" result="shape"/>
</filter>
</defs>
</svg>
