<svg width="14" height="15" viewBox="0 0 14 15" fill="none" xmlns="http://www.w3.org/2000/svg">
<path d="M13.4872 5.72821L9.06266 1.30039C8.51506 0.754058 7.7733 0.447266 7 0.447266C6.2267 0.447266 5.48494 0.754058 4.93734 1.30039L0.512757 5.72821C0.349671 5.89035 0.220373 6.08326 0.132355 6.29578C0.0443375 6.50829 -0.000647733 6.73616 7.04636e-06 6.9662V12.6962C7.04636e-06 13.1606 0.184381 13.606 0.51257 13.9344C0.840758 14.2628 1.28588 14.4473 1.75001 14.4473H12.25C12.7141 14.4473 13.1592 14.2628 13.4874 13.9344C13.8156 13.606 14 13.1606 14 12.6962V6.9662C14.0006 6.73616 13.9557 6.50829 13.8676 6.29578C13.7796 6.08326 13.6503 5.89035 13.4872 5.72821ZM8.75 13.2799H5.25V10.9837C5.25 10.5193 5.43438 10.0739 5.76256 9.74551C6.09075 9.41713 6.53587 9.23264 7 9.23264C7.46413 9.23264 7.90925 9.41713 8.23744 9.74551C8.56562 10.0739 8.75 10.5193 8.75 10.9837V13.2799ZM12.8333 12.6962C12.8333 12.851 12.7719 12.9995 12.6625 13.1089C12.5531 13.2184 12.4047 13.2799 12.25 13.2799H9.91666V10.9837C9.91666 10.2097 9.60937 9.46737 9.06239 8.92006C8.51541 8.37275 7.77355 8.06528 7 8.06528C6.22645 8.06528 5.48459 8.37275 4.93761 8.92006C4.39063 9.46737 4.08334 10.2097 4.08334 10.9837V13.2799H1.75001C1.5953 13.2799 1.44692 13.2184 1.33753 13.1089C1.22813 12.9995 1.16667 12.851 1.16667 12.6962V6.9662C1.16721 6.81151 1.22862 6.66326 1.33759 6.55354L5.76217 2.12747C6.09099 1.79998 6.53605 1.61613 7 1.61613C7.46394 1.61613 7.90901 1.79998 8.23783 2.12747L12.6624 6.55529C12.771 6.66458 12.8323 6.81212 12.8333 6.9662V12.6962Z" fill="white"/>
</svg>
