<svg width="34" height="33" viewBox="0 0 34 33" fill="none" xmlns="http://www.w3.org/2000/svg">
<g clip-path="url(#clip0_186_2959)">
<path d="M17.208 19.8848C19.0768 19.8848 20.5918 18.3698 20.5918 16.501C20.5918 14.6322 19.0768 13.1172 17.208 13.1172C15.3392 13.1172 13.8242 14.6322 13.8242 16.501C13.8242 18.3698 15.3392 19.8848 17.208 19.8848Z" fill="#214CDB"/>
<path d="M17.207 0.386719C8.30792 0.386719 1.09375 7.60089 1.09375 16.5C1.09375 25.3991 8.30792 32.6133 17.207 32.6133C26.1061 32.6133 33.3203 25.3991 33.3203 16.5C33.3203 7.60089 26.1061 0.386719 17.207 0.386719ZM27.1623 20.5954C27.085 22.1273 26.6545 23.6379 25.5381 24.7425C24.4109 25.8575 22.8931 26.273 21.3464 26.3495H13.0677C11.5208 26.273 10.0032 25.8578 8.87601 24.7425C7.75956 23.6379 7.32914 22.1273 7.25179 20.5954V12.4046C7.32914 10.8727 7.75962 9.36207 8.87601 8.25748C10.0032 7.14244 11.521 6.72697 13.0677 6.65047H21.3463C22.8932 6.72697 24.4108 7.14224 25.538 8.25748C26.6545 9.36207 27.0849 10.8727 27.1623 12.4046L27.1623 20.5954Z" fill="#214CDB"/>
<path d="M21.2417 8.51608C19.2252 8.46078 15.1891 8.46078 13.1727 8.51608C12.1233 8.5449 10.9337 8.80612 10.186 9.6047C9.40912 10.4348 9.11554 11.4377 9.08576 12.5596C9.03342 14.5288 9.08576 20.4391 9.08576 20.4391C9.11986 21.5609 9.40912 22.564 10.186 23.3941C10.9337 24.1929 12.1233 24.4539 13.1727 24.4827C15.1891 24.538 19.2252 24.538 21.2417 24.4827C22.291 24.4539 23.4807 24.1926 24.2283 23.3941C25.0052 22.564 25.2988 21.5611 25.3286 20.4391V12.5596C25.2988 11.4377 25.0052 10.4348 24.2283 9.6047C23.4804 8.80587 22.2908 8.5449 21.2417 8.51608ZM17.2069 21.7443C16.1696 21.7443 15.1555 21.4366 14.293 20.8603C13.4305 20.284 12.7583 19.4649 12.3613 18.5065C11.9643 17.5481 11.8605 16.4936 12.0628 15.4762C12.2652 14.4587 12.7647 13.5242 13.4982 12.7907C14.2317 12.0572 15.1663 11.5577 16.1837 11.3553C17.2011 11.1529 18.2557 11.2568 19.214 11.6537C20.1724 12.0507 20.9916 12.723 21.5679 13.5855C22.1442 14.448 22.4518 15.462 22.4518 16.4994C22.4518 17.8904 21.8992 19.2245 20.9156 20.2081C19.932 21.1917 18.5979 21.7443 17.2069 21.7443ZM22.4741 12.3371C22.2666 12.3371 22.0639 12.2755 21.8914 12.1602C21.7189 12.0449 21.5845 11.8811 21.5052 11.6894C21.4258 11.4977 21.4051 11.2868 21.4456 11.0833C21.4861 10.8799 21.586 10.693 21.7327 10.5463C21.8794 10.3996 22.0663 10.2998 22.2698 10.2593C22.4733 10.2189 22.6842 10.2396 22.8758 10.319C23.0675 10.3984 23.2313 10.5329 23.3466 10.7054C23.4618 10.8779 23.5233 11.0807 23.5233 11.2881C23.5233 11.4259 23.4962 11.5624 23.4435 11.6896C23.3907 11.8169 23.3134 11.9326 23.216 12.03C23.1186 12.1274 23.0029 12.2046 22.8756 12.2573C22.7483 12.3101 22.6119 12.3372 22.4741 12.3371Z" fill="#214CDB"/>
</g>
<defs>
<clipPath id="clip0_186_2959">
<rect width="33" height="33" fill="white" transform="translate(0.707031)"/>
</clipPath>
</defs>
</svg>
