<svg width="93" height="31" viewBox="0 0 93 31" fill="none" xmlns="http://www.w3.org/2000/svg">
<path d="M18.7847 0.107265L13.7467 8.09327L15.9907 15.9473H11.8107L10.1607 10.1393H8.42274L7.38874 15.9473H3.42874L6.22274 0.107265H10.1827L9.01674 6.70727H10.4247L14.6047 0.107265H18.7847ZM25.6982 15.9473L25.8302 12.4933H22.1562L21.0782 15.9473H16.8762L22.5302 0.107265H29.7902L29.8782 15.9473H25.6982ZM24.7962 3.95727L23.0582 9.54527H25.9402L26.1822 3.95727H24.7962ZM41.992 15.9473H31.96L34.754 0.107265H38.714L36.536 12.5153H42.608L41.992 15.9473ZM49.5633 5.67327L53.2813 0.107265H57.2413L50.4653 9.85327L49.3873 15.9473H45.4053L46.4833 9.85327L43.1393 0.107265H47.3413L49.0573 5.67327H49.5633ZM62.7158 15.9473L62.8478 12.4933H59.1738L58.0958 15.9473H53.8938L59.5478 0.107265H66.8078L66.8958 15.9473H62.7158ZM61.8138 3.95727L60.0758 9.54527H62.9578L63.1998 3.95727H61.8138ZM83.9816 0.107265L81.2096 15.9473H77.2276L74.4556 7.27927L72.9596 15.9473H68.9776L71.7716 0.107265H75.8636L78.5916 8.20327L80.0216 0.107265H83.9816ZM91.0714 0.107265L88.2994 15.9473H84.3174L87.1114 0.107265H91.0714ZM6.59961 29.9473L6.68361 27.7493H4.34561L3.65961 29.9473H0.985609L4.58361 19.8673H9.20361L9.25961 29.9473H6.59961ZM6.02561 22.3173L4.91961 25.8733H6.75361L6.90761 22.3173H6.02561ZM17.4463 29.2193C16.709 29.8353 15.6637 30.1433 14.3103 30.1433C12.957 30.1433 12.019 29.8306 11.4963 29.2053C11.123 28.7759 10.9363 28.1833 10.9363 27.4273C10.9363 27.0913 10.9737 26.7226 11.0483 26.3213L12.1823 19.8673H14.7023L13.5683 26.2653C13.531 26.4986 13.5123 26.7413 13.5123 26.9933C13.5123 27.6466 13.9043 27.9733 14.6883 27.9733C15.155 27.9733 15.5283 27.8519 15.8083 27.6093C16.0883 27.3666 16.2843 26.9186 16.3963 26.2653L17.5303 19.8673H20.0503L18.9163 26.3213C18.683 27.6279 18.193 28.5939 17.4463 29.2193ZM30.164 22.0513H26.72L25.334 29.9473H22.8L24.186 22.0513H20.728L21.12 19.8673H30.556L30.164 22.0513ZM35.3761 19.7693C37.6254 19.7693 38.7501 20.6886 38.7501 22.5273C38.7501 22.8353 38.7174 23.1666 38.6521 23.5213L38.1621 26.3213C37.9381 27.6186 37.4527 28.5799 36.7061 29.2053C35.9594 29.8306 34.9094 30.1433 33.5561 30.1433C32.2027 30.1433 31.2601 29.8306 30.7281 29.2053C30.3641 28.7759 30.1821 28.1833 30.1821 27.4273C30.1821 27.0913 30.2194 26.7226 30.2941 26.3213L30.7841 23.5213C31.2227 21.0199 32.7534 19.7693 35.3761 19.7693ZM33.9341 27.9733C34.4007 27.9733 34.7741 27.8519 35.0541 27.6093C35.3341 27.3666 35.5301 26.9186 35.6421 26.2653L36.1181 23.5773C36.1461 23.3906 36.1601 23.2226 36.1601 23.0733C36.1601 22.3173 35.7774 21.9393 35.0121 21.9393C34.0507 21.9579 33.4767 22.5039 33.2901 23.5773L32.8141 26.2653C32.7767 26.4986 32.7581 26.7413 32.7581 26.9933C32.7581 27.6466 33.1501 27.9733 33.9341 27.9733ZM41.9009 27.0773C41.9009 27.7213 42.3629 28.0433 43.2869 28.0433C44.2203 28.0433 44.6869 27.7539 44.6869 27.1753C44.6869 26.8673 44.5283 26.6153 44.2109 26.4193C43.8936 26.2233 43.5063 26.0599 43.0489 25.9293C42.6009 25.7986 42.1483 25.6493 41.6909 25.4813C41.2429 25.3039 40.8603 25.0333 40.5429 24.6693C40.2256 24.2959 40.0669 23.8339 40.0669 23.2833C40.0669 20.9406 41.5743 19.7693 44.5889 19.7693C45.6903 19.7693 46.5209 19.9793 47.0809 20.3993C47.6503 20.8099 47.9349 21.3839 47.9349 22.1213C47.9349 22.3919 47.8976 22.6533 47.8229 22.9053C47.7576 23.1479 47.6876 23.3206 47.6129 23.4233L47.5009 23.5913H45.0229C45.2283 23.3766 45.3309 23.1059 45.3309 22.7793C45.3309 22.1726 44.9343 21.8693 44.1409 21.8693C43.1423 21.8693 42.6429 22.1866 42.6429 22.8213C42.6429 23.1386 42.8016 23.3906 43.1189 23.5773C43.4363 23.7639 43.8189 23.9133 44.2669 24.0253C44.7243 24.1279 45.1816 24.2586 45.6389 24.4173C46.0963 24.5759 46.4836 24.8419 46.8009 25.2153C47.1183 25.5793 47.2769 26.0553 47.2769 26.6433C47.2769 27.8286 46.9223 28.7106 46.2129 29.2893C45.5036 29.8586 44.4116 30.1433 42.9369 30.1433C41.4623 30.1433 40.4543 29.8819 39.9129 29.3593C39.5116 28.9673 39.3109 28.4259 39.3109 27.7353C39.3109 27.4739 39.3389 27.1893 39.3949 26.8813L39.4369 26.6573H41.9569L41.9289 26.8253C41.9103 26.9186 41.9009 27.0026 41.9009 27.0773ZM53.0371 26.8813H51.3711L50.8251 29.9473H48.3051L50.0831 19.8673H54.3531C55.4077 19.8673 56.1591 20.1099 56.6071 20.5953C56.9337 20.9686 57.0971 21.4446 57.0971 22.0233C57.0971 22.2193 57.0784 22.4246 57.0411 22.6393L56.7611 24.2213C56.6211 24.9959 56.2104 25.6353 55.5291 26.1393C54.8477 26.6339 54.0171 26.8813 53.0371 26.8813ZM53.4711 22.0513H52.2111L51.7491 24.6973H52.9951C53.7604 24.6973 54.2037 24.3566 54.3251 23.6753L54.4231 23.1013C54.4417 23.0173 54.4511 22.9053 54.4511 22.7653C54.4511 22.6253 54.3811 22.4713 54.2411 22.3033C54.1011 22.1353 53.8444 22.0513 53.4711 22.0513ZM62.0254 29.9473L62.1094 27.7493H59.7714L59.0854 29.9473H56.4114L60.0094 19.8673H64.6294L64.6854 29.9473H62.0254ZM61.4514 22.3173L60.3454 25.8733H62.1794L62.3334 22.3173H61.4514ZM71.8481 19.8673C72.9121 19.8673 73.6681 20.1006 74.1161 20.5673C74.4521 20.9219 74.6201 21.3699 74.6201 21.9113C74.6201 22.0979 74.6015 22.2939 74.5641 22.4993L74.3681 23.5913C74.2561 24.1979 74.0601 24.6879 73.7801 25.0613C73.5095 25.4346 73.2061 25.7006 72.8701 25.8593L74.1441 29.9473H71.3161L70.1401 26.1813H69.2721L68.6981 29.9473H66.0101L67.7881 19.8673H71.8481ZM70.9661 22.0513H69.9161L69.5521 24.4873H70.5321C71.0268 24.4873 71.3815 24.3706 71.5961 24.1373C71.8108 23.8946 71.9181 23.5773 71.9181 23.1853C71.9181 22.4293 71.6008 22.0513 70.9661 22.0513ZM82.2256 29.9473H75.1976L76.9756 19.8673H84.0036L83.6116 22.0513H79.1036L78.7816 23.9413H82.5056L82.1136 26.1253H78.3896L78.1096 27.7633H82.6176L82.2256 29.9473ZM86.5123 27.0773C86.5123 27.7213 86.9743 28.0433 87.8983 28.0433C88.8316 28.0433 89.2983 27.7539 89.2983 27.1753C89.2983 26.8673 89.1396 26.6153 88.8223 26.4193C88.5049 26.2233 88.1176 26.0599 87.6603 25.9293C87.2123 25.7986 86.7596 25.6493 86.3023 25.4813C85.8543 25.3039 85.4716 25.0333 85.1543 24.6693C84.8369 24.2959 84.6783 23.8339 84.6783 23.2833C84.6783 20.9406 86.1856 19.7693 89.2003 19.7693C90.3016 19.7693 91.1323 19.9793 91.6923 20.3993C92.2616 20.8099 92.5463 21.3839 92.5463 22.1213C92.5463 22.3919 92.5089 22.6533 92.4343 22.9053C92.3689 23.1479 92.2989 23.3206 92.2243 23.4233L92.1123 23.5913H89.6343C89.8396 23.3766 89.9423 23.1059 89.9423 22.7793C89.9423 22.1726 89.5456 21.8693 88.7523 21.8693C87.7536 21.8693 87.2543 22.1866 87.2543 22.8213C87.2543 23.1386 87.4129 23.3906 87.7303 23.5773C88.0476 23.7639 88.4303 23.9133 88.8783 24.0253C89.3356 24.1279 89.7929 24.2586 90.2503 24.4173C90.7076 24.5759 91.0949 24.8419 91.4123 25.2153C91.7296 25.5793 91.8883 26.0553 91.8883 26.6433C91.8883 27.8286 91.5336 28.7106 90.8243 29.2893C90.1149 29.8586 89.0229 30.1433 87.5483 30.1433C86.0736 30.1433 85.0656 29.8819 84.5243 29.3593C84.1229 28.9673 83.9223 28.4259 83.9223 27.7353C83.9223 27.4739 83.9503 27.1893 84.0063 26.8813L84.0483 26.6573H86.5683L86.5403 26.8253C86.5216 26.9186 86.5123 27.0026 86.5123 27.0773Z" fill="#214CDB"/>
</svg>
