<svg width="41" height="40" viewBox="0 0 41 40" fill="none" xmlns="http://www.w3.org/2000/svg">
<g clip-path="url(#clip0_287_6083)">
<path d="M19.1275 7.86426C13.3017 8.3991 8.65 13.0508 8.11523 18.8766L19.1275 7.86426Z" fill="#214CDB"/>
<path d="M21.373 32.1344C27.1988 31.5996 31.8505 26.9479 32.3853 21.1221L21.373 32.1344Z" fill="#214CDB"/>
<path d="M5.77055 21.2212C5.73688 20.8184 5.71875 20.4113 5.71875 20C5.71875 11.9874 12.2374 5.46875 20.25 5.46875C20.6613 5.46875 21.0684 5.48688 21.4712 5.52055L26.1166 0.875156C24.2613 0.306719 22.2916 0 20.25 0C9.2043 0 0.25 8.9543 0.25 20C0.25 22.0416 0.556719 24.0113 1.12516 25.8666L5.77055 21.2212Z" fill="#214CDB"/>
<path d="M34.7299 18.7792C34.7636 19.182 34.7817 19.5891 34.7817 20.0004C34.7817 28.013 28.263 34.5317 20.2504 34.5317C19.8391 34.5317 19.432 34.5136 19.0292 34.4799L14.3838 39.1253C16.2391 39.6937 18.2089 40.0004 20.2504 40.0004C31.2961 40.0004 40.2504 31.0461 40.2504 20.0004C40.2504 17.9589 39.9437 15.9891 39.3753 14.1338L34.7299 18.7792Z" fill="#214CDB"/>
<path d="M12.2044 25.5598L11.7393 26.025C11.9147 26.1996 12.0986 26.3825 12.1873 26.4712C12.2916 26.5754 12.4698 26.7521 12.6375 26.9182C12.8079 26.7462 12.9905 26.5621 13.0986 26.454C13.3675 26.1852 13.3897 25.7534 13.1475 25.511C12.905 25.2686 12.4732 25.291 12.2044 25.5598Z" fill="#214CDB"/>
<path d="M28.811 12.2968L29.6105 11.4973L28.1582 10.8408L28.811 12.2968Z" fill="#214CDB"/>
<path d="M39.5635 7.31563L32.9344 0.686484C32.0191 -0.228828 30.5351 -0.228828 29.6198 0.686484L0.936484 29.3698C0.0211719 30.2851 0.0211719 31.7691 0.936484 32.6844L7.56563 39.3135C8.48094 40.2288 9.96492 40.2288 10.8802 39.3135L39.5635 10.6302C40.4788 9.71492 40.4788 8.23086 39.5635 7.31563ZM11.4396 32.9536C10.2973 34.0959 8.43867 34.0959 7.29641 32.9536C6.15414 31.8113 6.15414 29.9527 7.29641 28.8104C8.43867 27.668 10.2973 27.668 11.4396 28.8104C12.5819 29.9527 12.5819 31.8113 11.4396 32.9536ZM16.5999 27.5866C16.5905 27.7347 16.5269 27.8663 16.4297 27.9635C16.3148 28.0784 16.1529 28.1453 15.9779 28.1341L13.6992 27.9888L14.6375 28.9271C14.8663 29.1559 14.8663 29.527 14.6375 29.7558C14.4087 29.9846 14.0377 29.9846 13.8088 29.7558L10.4943 26.4412C10.2655 26.2123 10.2655 25.8413 10.4943 25.6126C10.4945 25.6124 10.4947 25.6123 10.4948 25.6121C10.495 25.612 10.4952 25.6117 10.4954 25.6116L11.3762 24.7308C12.1065 24.0005 13.273 23.9786 13.9764 24.682C14.553 25.2587 14.6419 26.1464 14.253 26.85L16.0525 26.9648C16.3754 26.9852 16.6205 27.2638 16.5999 27.5866ZM17.97 26.4232C17.7412 26.652 17.3702 26.652 17.1413 26.4232L13.8268 23.1087C13.598 22.8798 13.598 22.5088 13.8268 22.28C14.0556 22.0512 14.4266 22.0512 14.6555 22.28L17.97 25.5946C18.1988 25.8234 18.1988 26.1944 17.97 26.4232ZM21.1678 23.2254C20.0255 24.3677 18.1669 24.3677 17.0246 23.2254C15.8823 22.0831 15.8823 20.2245 17.0246 19.0822C17.4397 18.6671 17.9627 18.3889 18.5371 18.2777C18.8548 18.2161 19.1623 18.4237 19.2237 18.7416C19.2853 19.0592 19.0777 19.3667 18.7599 19.4282C18.4159 19.4948 18.1023 19.6617 17.8533 19.9109C17.1679 20.5962 17.1679 21.7114 17.8533 22.3968C18.5387 23.0821 19.6538 23.0822 20.3392 22.3968C20.9113 21.8247 20.8125 21.1446 20.479 20.5998L19.9497 21.1291C19.7209 21.3579 19.3499 21.3579 19.121 21.1291C18.8922 20.9002 18.8922 20.5292 19.121 20.3004L20.1126 19.3089C20.3414 19.0801 20.7124 19.08 20.9412 19.3089C22.1609 20.5285 22.2541 22.1391 21.1678 23.2254ZM24.139 20.2542C23.9102 20.483 23.5392 20.483 23.3103 20.2542L19.9958 16.9397C19.767 16.7109 19.767 16.3399 19.9958 16.111C20.2246 15.8822 20.5955 15.8822 20.8245 16.111L24.139 19.4256C24.3678 19.6545 24.3678 20.0254 24.139 20.2542ZM28.0358 16.2427C27.9034 16.4952 27.6257 16.6238 27.328 16.5698L23.7002 15.9057L25.6795 17.885C25.9084 18.1138 25.9084 18.4848 25.6795 18.7136C25.4507 18.9424 25.0798 18.9424 24.8509 18.7136L21.5425 15.4052C21.3612 15.2239 21.3188 14.9457 21.438 14.7187C21.5576 14.4916 21.8101 14.3684 22.0623 14.4145L25.8716 15.1116L23.832 13.1112C23.601 12.8847 23.5974 12.5137 23.8241 12.2827C23.8254 12.2813 23.8268 12.2799 23.8281 12.2786C24.0552 12.0516 24.423 12.0494 24.6527 12.2747L27.8866 15.4466C28.1138 15.674 28.1709 15.9848 28.0358 16.2427ZM32.2792 12.0605C32.2492 12.1269 32.2084 12.185 32.1598 12.2336C31.9923 12.401 31.7324 12.4565 31.504 12.3531L30.7521 12.0133L29.3243 13.441L29.663 14.1963C29.7954 14.4916 29.663 14.8387 29.3681 14.9707C29.0728 15.103 28.7261 14.9711 28.5938 14.6759L26.5705 10.1634C26.5684 10.1588 26.5665 10.1544 26.5646 10.1499C26.4558 9.88984 26.5141 9.59297 26.7133 9.39344C26.7134 9.39328 26.7135 9.39313 26.7137 9.39305C26.9128 9.19383 27.2095 9.13523 27.4695 9.24367C27.4748 9.24586 27.4802 9.24813 27.4853 9.25047L31.9866 11.2852C32.2816 11.4186 32.4126 11.7657 32.2792 12.0605ZM34.8603 9.52727C34.4862 9.90562 34.2298 10.1638 34.0523 10.3412C33.6823 10.7112 33.6557 10.7301 33.621 10.7545C33.388 10.9191 33.0704 10.8919 32.8687 10.6902L29.557 7.37844C29.3282 7.14961 29.3282 6.77859 29.557 6.54977C29.7859 6.32094 30.1568 6.32094 30.3857 6.54977L33.2859 9.45C33.5005 9.23484 33.7732 8.96008 34.0271 8.70328C34.0279 8.7025 34.0287 8.70172 34.0295 8.70086C34.2572 8.47313 34.6264 8.47188 34.8557 8.69859C35.0858 8.92609 35.0879 9.29711 34.8603 9.52727Z" fill="#214CDB"/>
<path d="M8.12537 29.639C7.43998 30.3244 7.43998 31.4396 8.12537 32.125C8.81076 32.8103 9.92592 32.8103 10.6113 32.125C11.2967 31.4396 11.2967 30.3244 10.6113 29.639C9.92592 28.9537 8.81068 28.9536 8.12537 29.639Z" fill="#214CDB"/>
</g>
<defs>
<clipPath id="clip0_287_6083">
<rect width="40" height="40" fill="white" transform="translate(0.25)"/>
</clipPath>
</defs>
</svg>
