<svg width="14" height="15" viewBox="0 0 14 15" fill="none" xmlns="http://www.w3.org/2000/svg">
<path d="M7 7.44727C7.69223 7.44727 8.36892 7.242 8.9445 6.85741C9.52007 6.47283 9.96867 5.9262 10.2336 5.28666C10.4985 4.64712 10.5678 3.94339 10.4327 3.26445C10.2977 2.58552 9.96436 1.96188 9.47487 1.47239C8.98539 0.98291 8.36175 0.649567 7.68282 0.514519C7.00388 0.37947 6.30015 0.448782 5.66061 0.713689C5.02107 0.978596 4.47444 1.4272 4.08986 2.00277C3.70527 2.57834 3.5 3.25503 3.5 3.94727C3.50093 4.87524 3.86997 5.76494 4.52615 6.42112C5.18233 7.07729 6.07203 7.44634 7 7.44727ZM7 1.61393C7.46149 1.61393 7.91262 1.75078 8.29633 2.00717C8.68005 2.26356 8.97912 2.62798 9.15572 3.05434C9.33232 3.4807 9.37853 3.94986 9.2885 4.40248C9.19847 4.8551 8.97624 5.27086 8.64992 5.59718C8.32359 5.92351 7.90783 6.14573 7.45521 6.23577C7.00259 6.3258 6.53343 6.27959 6.10707 6.10299C5.68071 5.92638 5.31629 5.62731 5.0599 5.2436C4.80351 4.85988 4.66667 4.40876 4.66667 3.94727C4.66667 3.32843 4.9125 2.73494 5.35008 2.29735C5.78767 1.85977 6.38116 1.61393 7 1.61393Z" fill="white"/>
<path d="M7 8.61328C5.60809 8.61483 4.27363 9.16844 3.28939 10.1527C2.30516 11.1369 1.75154 12.4714 1.75 13.8633C1.75 14.018 1.81146 14.1664 1.92085 14.2758C2.03025 14.3852 2.17862 14.4466 2.33333 14.4466C2.48804 14.4466 2.63642 14.3852 2.74581 14.2758C2.85521 14.1664 2.91667 14.018 2.91667 13.8633C2.91667 12.7803 3.34687 11.7417 4.11265 10.9759C4.87842 10.2102 5.91703 9.77995 7 9.77995C8.08297 9.77995 9.12158 10.2102 9.88735 10.9759C10.6531 11.7417 11.0833 12.7803 11.0833 13.8633C11.0833 14.018 11.1448 14.1664 11.2542 14.2758C11.3636 14.3852 11.512 14.4466 11.6667 14.4466C11.8214 14.4466 11.9697 14.3852 12.0791 14.2758C12.1885 14.1664 12.25 14.018 12.25 13.8633C12.2485 12.4714 11.6948 11.1369 10.7106 10.1527C9.72637 9.16844 8.39191 8.61483 7 8.61328Z" fill="white"/>
</svg>
