<svg width="18" height="15" viewBox="0 0 18 15" fill="none" xmlns="http://www.w3.org/2000/svg">
<path fill-rule="evenodd" clip-rule="evenodd" d="M0.75 7.25C1.41297 7.60066 1.41286 7.60088 1.41276 7.60107L1.41308 7.60047L1.41737 7.59255C1.42161 7.58475 1.42861 7.57198 1.43835 7.55457C1.45785 7.51975 1.48828 7.4664 1.52947 7.39719C1.55515 7.35403 1.58498 7.30475 1.61891 7.25C1.69388 7.37097 1.78886 7.51869 1.90336 7.68629C2.23692 8.17452 2.73131 8.82439 3.37344 9.47188C4.6685 10.7777 6.48795 12 8.75 12C11.0121 12 12.8315 10.7777 14.1266 9.47188C14.7687 8.82439 15.2631 8.17452 15.5966 7.68629C15.7112 7.51869 15.8061 7.37097 15.8811 7.25C15.915 7.30475 15.9448 7.35403 15.9705 7.39719C16.0117 7.4664 16.0421 7.51975 16.0616 7.55457C16.0714 7.57198 16.0784 7.58475 16.0826 7.59255L16.0869 7.60047L16.0872 7.60104C16.0878 7.60047 16.1093 7.58888 16.75 7.25C17.413 7.60066 17.4128 7.60092 17.4127 7.6012L17.4123 7.60185L17.4114 7.60355L17.4088 7.60844L17.4004 7.6241C17.3933 7.63712 17.3833 7.65524 17.3705 7.67811C17.3449 7.72385 17.3079 7.78867 17.2596 7.86985C17.163 8.03211 17.0211 8.26029 16.8352 8.53246C16.4642 9.07548 15.9131 9.80061 15.1916 10.5281C13.7594 11.9723 11.5789 13.5 8.75 13.5C5.92114 13.5 3.74059 11.9723 2.30838 10.5281C1.58688 9.80061 1.03581 9.07548 0.664818 8.53246C0.478874 8.26029 0.336969 8.03211 0.240418 7.86985C0.192114 7.78867 0.155076 7.72385 0.129472 7.67811C0.116668 7.65524 0.106716 7.63712 0.0996362 7.6241L0.0911712 7.60844L0.0885582 7.60355L0.0876573 7.60185L0.0873073 7.6012C0.0871613 7.60092 0.0870262 7.60066 0.749953 7.25002L0.0870263 7.60066C-0.0290087 7.38129 -0.0290087 7.11871 0.0870263 6.89934L0.749835 7.24991C0.0870263 6.89934 0.0871613 6.89908 0.0873073 6.8988L0.0876573 6.89815L0.0885582 6.89645L0.0911712 6.89156L0.0996362 6.8759C0.106716 6.86288 0.116668 6.84476 0.129472 6.82189C0.155076 6.77615 0.192114 6.71133 0.240418 6.63015C0.336969 6.46789 0.478874 6.23971 0.664818 5.96754C1.03581 5.42452 1.58688 4.69939 2.30838 3.97187C3.74059 2.52774 5.92114 1 8.75 1C11.5789 1 13.7594 2.52774 15.1916 3.97187C15.9131 4.69939 16.4642 5.42452 16.8352 5.96754C17.0211 6.23971 17.163 6.46789 17.2596 6.63015C17.3079 6.71133 17.3449 6.77615 17.3705 6.82189C17.3833 6.84476 17.3933 6.86288 17.4004 6.8759L17.4088 6.89156L17.4114 6.89645L17.4123 6.89815L17.4127 6.8988C17.4128 6.89908 17.413 6.89934 16.75 7.25C16.087 6.89934 16.0871 6.89912 16.0872 6.89893L16.0869 6.89953L16.0826 6.90745C16.0784 6.91525 16.0714 6.92802 16.0616 6.94543C16.0421 6.98025 16.0117 7.0336 15.9705 7.10281C15.9448 7.14597 15.915 7.19525 15.8811 7.25C15.8061 7.12903 15.7112 6.98131 15.5966 6.81371C15.2631 6.32548 14.7687 5.67561 14.1266 5.02813C12.8315 3.72226 11.0121 2.5 8.75 2.5C6.48795 2.5 4.6685 3.72226 3.37344 5.02813C2.73131 5.67561 2.23692 6.32548 1.90336 6.81371C1.78886 6.98131 1.69388 7.12903 1.61891 7.25C1.58498 7.19525 1.55515 7.14597 1.52947 7.10281C1.48828 7.0336 1.45785 6.98025 1.43835 6.94543C1.42861 6.92802 1.42161 6.91525 1.41737 6.90745L1.41308 6.89953L1.41276 6.89893C1.41286 6.89912 1.41297 6.89934 0.75 7.25ZM16.75 7.25L17.413 7.60066C17.529 7.38129 17.529 7.11871 17.413 6.89934L16.75 7.25Z" fill="#242424"/>
<path fill-rule="evenodd" clip-rule="evenodd" d="M7.5 7.25C7.5 6.11868 8.20717 5.5 8.75 5.5C9.29283 5.5 10 6.11868 10 7.25C10 8.38132 9.29283 9 8.75 9C8.20717 9 7.5 8.38132 7.5 7.25ZM11.5 7.25C11.5 8.8801 10.4163 10.5 8.75 10.5C7.08369 10.5 6 8.8801 6 7.25C6 5.6199 7.08369 4 8.75 4C10.4163 4 11.5 5.6199 11.5 7.25Z" fill="#242424"/>
<line x1="17.3179" y1="0.385965" x2="0.317855" y2="14.386" stroke="black"/>
</svg>
