<svg width="34" height="33" viewBox="0 0 34 33" fill="none" xmlns="http://www.w3.org/2000/svg">
<g clip-path="url(#clip0_186_2954)">
<path d="M17.2112 0H17.2029C8.10522 0 0.707031 7.40025 0.707031 16.5C0.707031 20.1094 1.87028 23.4548 3.84822 26.1711L1.79191 32.3008L8.13409 30.2734C10.7432 32.0018 13.8555 33 17.2112 33C26.3088 33 33.707 25.5977 33.707 16.5C33.707 7.40231 26.3088 0 17.2112 0ZM26.8121 23.3001C26.414 24.4241 24.8342 25.3564 23.574 25.6286C22.7118 25.8122 21.5857 25.9586 17.7948 24.387C12.9459 22.3781 9.82328 17.4508 9.57991 17.1311C9.34684 16.8114 7.62053 14.5221 7.62053 12.1543C7.62053 9.78656 8.82297 8.63363 9.30766 8.13863C9.70572 7.73231 10.3637 7.54669 10.9948 7.54669C11.199 7.54669 11.3825 7.557 11.5475 7.56525C12.0322 7.58588 12.2756 7.61475 12.5953 8.37994C12.9933 9.339 13.9627 11.7067 14.0782 11.9501C14.1958 12.1935 14.3133 12.5235 14.1483 12.8432C13.9937 13.1732 13.8575 13.3196 13.6142 13.6001C13.3708 13.8806 13.1398 14.0951 12.8964 14.3962C12.6737 14.6582 12.422 14.9387 12.7025 15.4234C12.983 15.8977 13.9524 17.4797 15.3797 18.7502C17.2215 20.3899 18.7147 20.9137 19.2489 21.1365C19.647 21.3015 20.1213 21.2623 20.4122 20.9529C20.7813 20.5549 21.2372 19.8949 21.7012 19.2452C22.0312 18.7791 22.4478 18.7213 22.8851 18.8863C23.3306 19.041 25.688 20.2063 26.1727 20.4476C26.6574 20.691 26.9771 20.8065 27.0947 21.0107C27.2102 21.2149 27.2102 22.1739 26.8121 23.3001Z" fill="#214CDB"/>
</g>
<defs>
<clipPath id="clip0_186_2954">
<rect width="33" height="33" fill="white" transform="translate(0.707031)"/>
</clipPath>
</defs>
</svg>
