<svg width="20" height="12" viewBox="0 0 20 12" fill="none" xmlns="http://www.w3.org/2000/svg">
<path d="M19.2667 4.25874L16.0417 1.0004C15.9642 0.922298 15.872 0.860302 15.7705 0.817995C15.6689 0.775688 15.56 0.753906 15.45 0.753906C15.34 0.753906 15.2311 0.775688 15.1295 0.817995C15.028 0.860302 14.9358 0.922298 14.8583 1.0004C14.7031 1.15654 14.616 1.36775 14.616 1.5879C14.616 1.80806 14.7031 2.01927 14.8583 2.1754L17.825 5.16707H0.833333C0.61232 5.16707 0.400358 5.25487 0.244078 5.41115C0.0877974 5.56743 0 5.77939 0 6.00041C0 6.22142 0.0877974 6.43338 0.244078 6.58966C0.400358 6.74594 0.61232 6.83374 0.833333 6.83374H17.875L14.8583 9.84207C14.7802 9.91954 14.7182 10.0117 14.6759 10.1133C14.6336 10.2148 14.6118 10.3237 14.6118 10.4337C14.6118 10.5437 14.6336 10.6527 14.6759 10.7542C14.7182 10.8558 14.7802 10.9479 14.8583 11.0254C14.9358 11.1035 15.028 11.1655 15.1295 11.2078C15.2311 11.2501 15.34 11.2719 15.45 11.2719C15.56 11.2719 15.6689 11.2501 15.7705 11.2078C15.872 11.1655 15.9642 11.1035 16.0417 11.0254L19.2667 7.79207C19.7348 7.32332 19.9978 6.68791 19.9978 6.0254C19.9978 5.3629 19.7348 4.72749 19.2667 4.25874Z" fill="black"/>
</svg>
