<?xml version="1.0" encoding="UTF-8"?>
<svg id="Layer_2" data-name="Layer 2" xmlns="http://www.w3.org/2000/svg" viewBox="0 0 482.09 116.04">
  <defs>
    <style>
      .cls-1 {
        fill: #f37321;
      }

      .cls-2 {
        fill: #5f6062;
      }
    </style>
  </defs>
  <g id="Layer_1-2" data-name="Layer 1">
    <g>
      <path class="cls-2" d="m138.07,27.67h31.85c3.4-.08,6.79.41,10.03,1.43,2.6.84,4.96,2.26,6.92,4.17,1.25,1.25,2.24,2.73,2.93,4.35.74,1.81,1.1,3.74,1.06,5.69v.17c.15,3.15-.8,6.24-2.7,8.76-1.82,2.24-4.18,3.99-6.84,5.11,3.42,1.01,6.53,2.87,9.04,5.39,2.36,2.7,3.56,6.23,3.34,9.82v.18c.21,4.98-2.11,9.73-6.17,12.62-5.16,3.32-11.25,4.9-17.38,4.53h-32.08V27.67Zm27.64,24.79c2.11.13,4.22-.33,6.08-1.33,1.39-.88,2.2-2.45,2.1-4.1v-.17c.07-1.57-.67-3.07-1.96-3.96-1.77-1.04-3.81-1.51-5.86-1.38h-11.2v10.93h10.84Zm2.49,23.56c2.14.13,4.28-.38,6.13-1.46,1.4-.94,2.2-2.54,2.13-4.23v-.18c.05-1.62-.71-3.16-2.03-4.1-1.93-1.15-4.16-1.69-6.4-1.52h-13.15v11.47h13.33Z"/>
      <rect class="cls-2" x="223.21" y="25" width="16.98" height="64.89"/>
      <rect class="cls-2" x="247.65" y="25" width="16.98" height="64.89"/>
      <path class="cls-2" d="m272.7,27.67h24c5.06-.08,10.09.69,14.89,2.27,4.07,1.34,7.83,3.5,11.03,6.35,2.97,2.7,5.31,6.02,6.84,9.74,1.61,3.93,2.42,8.15,2.37,12.4v.18c.04,4.28-.78,8.53-2.42,12.49-1.55,3.77-3.92,7.15-6.93,9.9-3.24,2.91-7.04,5.14-11.16,6.54-4.82,1.64-9.89,2.43-14.98,2.35h-23.63V27.67Zm24.3,46.92c4.52.22,8.97-1.24,12.48-4.1,3.26-2.96,5-7.24,4.73-11.64v-.18c.25-4.38-1.48-8.64-4.73-11.59-3.5-2.89-7.95-4.36-12.48-4.14h-7.05v31.63h7.05Z"/>
      <path class="cls-2" d="m361.32,91.03c-3.55.04-7.07-.57-10.4-1.82-3.02-1.13-5.78-2.84-8.14-5.04-2.32-2.22-4.13-4.9-5.33-7.88-1.31-3.24-1.96-6.72-1.92-10.21v-.17c-.02-3.36.58-6.7,1.78-9.83,1.14-2.97,2.85-5.68,5.04-7.99,2.17-2.3,4.79-4.13,7.7-5.38,3.08-1.33,6.41-1.99,9.77-1.95,3.71-.09,7.39.64,10.79,2.14,2.92,1.32,5.51,3.28,7.56,5.74,2.02,2.46,3.53,5.3,4.44,8.35.99,3.27,1.49,6.67,1.47,10.08v1.69c0,.59-.03,1.18-.1,1.77h-32.19c.46,2.37,1.77,4.49,3.69,5.96,1.97,1.36,4.32,2.04,6.71,1.96,1.92.03,3.81-.37,5.56-1.17,1.91-.92,3.64-2.18,5.11-3.72l9.33,7.72c-4.95,6.47-12.75,10.11-20.89,9.77h0Zm6.93-29.14c-.16-2.36-1.1-4.6-2.68-6.36-1.47-1.57-3.54-2.43-5.69-2.36-2.09-.07-4.1.8-5.49,2.36-1.54,1.8-2.52,4.01-2.84,6.36h16.7Z"/>
      <path class="cls-2" d="m408.14,90.94c-4.03.01-8.04-.57-11.9-1.72-3.89-1.17-7.55-2.98-10.84-5.36l6.3-10.21c2.63,1.75,5.48,3.14,8.48,4.12,2.59.87,5.31,1.33,8.04,1.37,2.86,0,4.26-.85,4.26-2.57v-.19c0-.94-.65-1.68-1.93-2.21-1.89-.73-3.83-1.35-5.79-1.87-2.26-.56-4.49-1.26-6.67-2.1-1.93-.72-3.76-1.71-5.42-2.92-3.29-2.4-5.16-6.29-4.97-10.35v-.18c-.04-2.35.46-4.67,1.47-6.8.95-1.95,2.34-3.65,4.05-4.98,1.83-1.38,3.89-2.42,6.09-3.07,2.49-.73,5.08-1.09,7.68-1.06,3.54,0,7.07.49,10.48,1.46,3.3.91,6.44,2.31,9.33,4.13l-5.77,10.66c-2.41-1.32-4.94-2.41-7.56-3.24-2.15-.73-4.4-1.13-6.67-1.2-1.02-.07-2.04.16-2.93.67-.59.34-.96.96-.98,1.64v.16c0,.94.66,1.7,2,2.27,1.34.57,3.26,1.22,5.82,1.99,2.36.65,4.59,1.38,6.67,2.18,1.93.72,3.76,1.71,5.42,2.93,1.51,1.12,2.75,2.56,3.63,4.22.95,1.83,1.42,3.87,1.37,5.94v.17c.06,2.41-.43,4.79-1.42,6.99-.93,1.96-2.3,3.67-4,5.01-1.85,1.43-3.96,2.47-6.21,3.07-2.62.7-5.32,1.04-8.02,1.02"/>
      <polygon class="cls-2" points="432.48 25 449.47 25 449.47 57.88 462.52 41.81 481.63 41.81 464.93 61.09 482.09 89.9 463.5 89.9 453.82 73.54 449.47 78.61 449.47 89.9 432.48 89.9 432.48 25"/>
      <polygon class="cls-1" points="215.75 32.91 215.75 25 198.77 25 198.77 41.99 215.75 32.91"/>
      <polygon class="cls-2" points="198.77 51.79 198.77 89.88 215.75 89.88 215.75 36.23 198.77 51.79"/>
      <polygon class="cls-1" points="51.78 20.21 38.08 28.12 38.08 43.03 51.78 35.12 71.6 46.57 71.6 69.45 51.78 80.9 31.96 69.46 31.96 24.65 48.71 14.92 48.71 0 0 28.13 0 87.91 48.71 116.03 48.71 101.12 12.92 80.47 12.92 35.6 19.03 32.07 19.03 76.91 51.78 95.82 84.52 76.91 84.52 39.1 51.78 20.21"/>
      <polygon class="cls-2" points="54.84 0 54.84 14.92 90.64 35.57 90.64 80.44 54.84 101.12 54.84 116.04 103.58 87.91 103.58 28.12 54.84 0"/>
    </g>
  </g>
</svg>