<svg width="20" height="21" viewBox="0 0 20 21" fill="none" xmlns="http://www.w3.org/2000/svg">
<path fill-rule="evenodd" clip-rule="evenodd" d="M2.17285 3.899C2.17285 3.75692 2.22929 3.62065 2.32976 3.52019C2.43022 3.41972 2.56649 3.36328 2.70857 3.36328H4.31571C4.43521 3.36331 4.55126 3.4033 4.64542 3.47688C4.73958 3.55046 4.80643 3.65341 4.83535 3.76935L5.26928 5.50614H17.7086C17.7899 5.50616 17.8703 5.52472 17.9434 5.56041C18.0165 5.5961 18.0805 5.64798 18.1306 5.71211C18.1807 5.77624 18.2155 5.85094 18.2324 5.93054C18.2494 6.01014 18.2479 6.09254 18.2282 6.1715L16.6211 12.6C16.5922 12.716 16.5253 12.8189 16.4311 12.8925C16.337 12.9661 16.2209 13.0061 16.1014 13.0061H6.45857C6.33907 13.0061 6.22301 12.9661 6.12885 12.8925C6.03469 12.8189 5.96784 12.716 5.93893 12.6L3.89785 4.43471H2.70857C2.56649 4.43471 2.43022 4.37826 2.32976 4.27781C2.22929 4.17734 2.17285 4.04108 2.17285 3.899ZM5.53713 6.57756L6.87643 11.9347H15.6836L17.0229 6.57756H5.53713ZM7.52999 15.149C7.24583 15.149 6.97331 15.2619 6.77238 15.4628C6.57145 15.6638 6.45857 15.9363 6.45857 16.2204C6.45857 16.5046 6.57145 16.7771 6.77238 16.978C6.97331 17.1789 7.24583 17.2919 7.52999 17.2919C7.81415 17.2919 8.08668 17.1789 8.28761 16.978C8.48854 16.7771 8.60143 16.5046 8.60143 16.2204C8.60143 15.9363 8.48854 15.6638 8.28761 15.4628C8.08668 15.2619 7.81415 15.149 7.52999 15.149ZM5.38713 16.2204C5.38713 15.6521 5.6129 15.107 6.01477 14.7052C6.41663 14.3034 6.96168 14.0775 7.52999 14.0775C8.09832 14.0775 8.64336 14.3034 9.04523 14.7052C9.44708 15.107 9.67285 15.6521 9.67285 16.2204C9.67285 16.7888 9.44708 17.3338 9.04523 17.7356C8.64336 18.1375 8.09832 18.3633 7.52999 18.3633C6.96168 18.3633 6.41663 18.1375 6.01477 17.7356C5.6129 17.3338 5.38713 16.7888 5.38713 16.2204ZM15.03 15.149C14.7459 15.149 14.4734 15.2619 14.2724 15.4628C14.0714 15.6638 13.9586 15.9363 13.9586 16.2204C13.9586 16.5046 14.0714 16.7771 14.2724 16.978C14.4734 17.1789 14.7459 17.2919 15.03 17.2919C15.3142 17.2919 15.5867 17.1789 15.7876 16.978C15.9885 16.7771 16.1014 16.5046 16.1014 16.2204C16.1014 15.9363 15.9885 15.6638 15.7876 15.4628C15.5867 15.2619 15.3142 15.149 15.03 15.149ZM12.8871 16.2204C12.8871 15.6521 13.1129 15.107 13.5148 14.7052C13.9166 14.3034 14.4617 14.0775 15.03 14.0775C15.5984 14.0775 16.1434 14.3034 16.5452 14.7052C16.9471 15.107 17.1729 15.6521 17.1729 16.2204C17.1729 16.7888 16.9471 17.3338 16.5452 17.7356C16.1434 18.1375 15.5984 18.3633 15.03 18.3633C14.4617 18.3633 13.9166 18.1375 13.5148 17.7356C13.1129 17.3338 12.8871 16.7888 12.8871 16.2204Z" fill="black"/>
</svg>
