<?xml version="1.0" encoding="UTF-8"?>
<svg id="Layer_2" data-name="Layer 2" xmlns="http://www.w3.org/2000/svg" viewBox="0 0 487.92 142.24">
  <defs>
    <style>
      .cls-1 {
        fill: #1f074f;
      }

      .cls-2 {
        fill: #04ab61;
      }

      .cls-3 {
        fill: #fbb016;
      }
    </style>
  </defs>
  <g id="Layer_1-2" data-name="Layer 1">
    <g>
      <path class="cls-1" d="m133.73,73.01c-3.59-3.03-8.51-4.54-14.94-4.54h-21.37v55.8h10.97v-16.08h7.76c3.78,0,7.19-.57,10.02-1.7,2.84-1.14,5.11-2.84,7-4.92,1.89-2.08,3.21-4.35,4.16-7,.95-2.65,1.32-5.49,1.32-8.32.19-5.86-1.51-10.21-4.92-13.24m-7.19,19.67c-.76,1.89-2.08,3.41-3.78,4.73-1.7,1.13-3.97,1.7-6.81,1.7h-7.57v-21.18h10.21c2.65,0,4.92.57,6.62,1.89,1.7,1.32,2.65,3.4,2.65,6.43,0,2.46-.38,4.54-1.32,6.43"/>
      <path class="cls-1" d="m182.71,112.92v-14c0-3.78-.57-6.81-1.51-9.08-.94-2.46-2.46-4.16-4.16-5.49-1.89-1.32-3.97-2.27-6.43-2.65-2.46-.57-5.11-.76-7.94-.76-2.27,0-4.73.19-7,.57-2.27.38-4.35.76-6.24,1.51v8.7h.76c1.32-.57,2.84-1.13,4.92-1.51,2.08-.38,4.16-.76,6.24-.76,2.46,0,4.35.19,6.05.76,1.51.38,2.84,1.32,3.59,2.65.76,1.32,1.32,3.4,1.32,6.05v.76c-.76-.19-1.51-.38-2.27-.57-1.7-.38-3.59-.57-5.86-.57-3.59,0-6.81.57-9.65,1.51-2.65.94-4.92,2.46-6.43,4.35-1.51,1.89-2.27,4.54-2.27,7.57,0,4.73,1.7,8.13,4.92,10.4,3.21,2.08,8.13,3.21,14.57,3.21,1.89,0,3.97-.19,6.05-.38,2.08-.19,4.16-.57,6.24-1.13,2.08-.57,3.97-1.14,5.67-1.7l.19-.57c-.19-.95-.38-2.08-.38-3.78-.38-1.89-.38-3.4-.38-5.11m-12.48,4.35c-1.7.38-3.41.38-5.11.38-3.03,0-5.3-.38-6.81-1.32-1.51-.95-2.46-2.46-2.46-4.54,0-2.27.76-3.78,2.46-4.73,1.7-.95,4.16-1.32,7.57-1.32,1.51,0,3.03.19,4.73.38.57.19,1.13.19,1.7.38v6.24c0,.76.19,1.51.19,2.27,0,.57.19,1.13.38,1.7-1.14.19-1.89.38-2.65.57"/>
      <polygon class="cls-1" points="210.9 111.6 201.06 81.9 189.52 81.9 189.52 82.85 205.6 125.21 198.79 141.48 198.79 142.24 209.57 142.24 232.65 82.85 232.65 81.9 221.68 81.9 210.9 111.6"/>
      <path class="cls-1" d="m299.04,84.55c-1.89-1.32-3.78-2.27-6.05-2.84-2.27-.57-4.73-.76-7.19-.76-2.65,0-5.11.38-7.76.95-2.27.57-4.35,1.13-6.24,2.08-1.51-.95-3.22-1.7-5.11-2.08-2.27-.57-4.54-.95-7-.95-2.08,0-4.35.19-6.62.57-2.27.38-4.54.76-6.62,1.32-2.08.57-3.97,1.14-5.49,1.7l-.19.57c.19.95.38,2.27.38,3.78.19,1.51.19,3.21.19,4.73v30.45h10.78v-27.99c0-1.51,0-3.03-.19-4.35,0-.38-.19-.76-.19-.95.57-.19,1.32-.38,2.08-.57,1.51-.38,3.21-.57,4.73-.57,1.89,0,3.4.38,4.92.95,1.51.57,2.65,1.7,3.41,3.21.76,1.51,1.32,3.59,1.32,6.43v24.02h10.78v-24.4c0-3.59-.57-6.62-1.51-8.89.95-.38,1.89-.57,2.84-.76,1.33-.38,2.65-.38,3.97-.38,2.08,0,3.78.38,5.3.95,1.51.57,2.65,1.7,3.4,3.22.76,1.51,1.13,3.59,1.13,6.43v24.02h10.78v-24.59c0-3.97-.57-7.19-1.51-9.46-1.14-2.46-2.46-4.35-4.35-5.86"/>
      <path class="cls-1" d="m348.4,83.98c-3.03-1.89-6.81-3.03-11.54-3.03-4.16,0-7.94.95-10.97,2.65-3.03,1.7-5.49,4.35-7.19,7.57-1.7,3.21-2.65,7.19-2.65,11.73,0,3.78.57,7.19,1.7,9.84,1.14,2.84,2.84,5.11,4.92,6.81,2.08,1.7,4.73,3.03,7.76,3.97,3.03.94,6.43,1.32,10.4,1.32,2.84,0,5.3-.19,7.38-.57,2.08-.38,3.97-.95,5.3-1.51v-8.7h-.76c-1.14.57-2.65,1.13-4.54,1.7-1.89.38-4.16.76-6.62.76-2.84,0-5.3-.38-7.57-1.13-2.08-.76-3.78-2.08-5.11-3.78-.95-1.32-1.51-3.03-1.7-5.11h29.13v-2.65c.19-4.54-.38-8.32-1.7-11.73-1.14-3.59-3.21-6.24-6.24-8.13m-2.65,15.32h-18.54c.19-1.89.57-3.59,1.14-4.92.95-1.89,2.08-3.21,3.4-3.97,1.51-.76,3.22-1.32,5.11-1.32,3.03,0,5.3.76,6.62,2.46,1.51,1.7,2.27,3.97,2.27,7.19v.57Z"/>
      <path class="cls-1" d="m400.42,84.74c-1.89-1.32-4.16-2.27-6.43-2.84-2.46-.57-4.92-.95-7.57-.95-2.08,0-4.35.19-6.62.57-2.27.38-4.54.76-6.62,1.32-2.08.57-3.97,1.13-5.49,1.7l-.19.57c.19.94.38,2.27.38,3.78.19,1.51.19,3.22.19,4.73v30.45h10.78v-27.99c0-1.51,0-3.03-.19-4.35,0-.38-.19-.76-.19-.95.57-.19,1.32-.38,2.08-.57,1.51-.38,3.21-.57,4.73-.57,2.08,0,3.97.38,5.49.95,1.51.57,2.65,1.7,3.59,3.21.76,1.51,1.32,3.59,1.32,6.43v24.02h10.78v-24.4c0-3.78-.57-7-1.7-9.46-.95-2.46-2.27-4.35-4.35-5.68"/>
      <path class="cls-1" d="m442.6,115.76c-.95.19-1.89.38-2.84.38-2.65,0-4.54-.57-5.67-1.7-1.14-1.14-1.89-3.03-1.89-5.68v-18.16h11.54v-8.7h-11.54v-10.97h-10.78v10.97h-6.81v8.7h6.81v18.91c0,3.59.57,6.43,1.89,8.7,1.32,2.27,3.21,3.78,5.86,4.92s5.67,1.7,9.46,1.7c1.51,0,3.03-.19,4.16-.38,1.32-.19,2.27-.57,3.22-.95v-8.7h-.76c-.76.57-1.7.76-2.65.95"/>
      <path class="cls-1" d="m480.81,101.38c-1.89-.95-4.16-1.51-6.62-1.89l-3.59-.57c-2.27-.38-4.16-.95-5.3-1.51-1.14-.57-1.7-1.51-1.7-2.84,0-1.7.76-3.03,2.46-3.59,1.7-.76,3.97-1.13,6.81-1.13,1.89,0,3.78.19,5.67.38,1.89.38,3.78.95,5.68,1.7h.57v-8.89c-1.7-.57-3.59-.95-5.49-1.13-1.89-.38-3.97-.38-6.05-.38-4.73,0-8.7.57-11.54,1.89-2.84,1.13-5.11,2.84-6.43,4.92-1.32,2.08-2.08,4.35-2.08,6.81,0,3.59,1.14,6.24,3.4,7.94,2.27,1.7,5.49,3.03,9.46,3.78l3.59.57c2.46.38,4.35.94,5.48,1.51,1.14.57,1.7,1.51,1.7,3.03,0,1.13-.38,2.08-.95,2.65-.57.76-1.32,1.13-2.27,1.32-.95.19-1.89.38-2.84.57h-2.84c-2.46,0-5.11-.19-7.57-.95-2.46-.57-4.73-1.32-6.43-2.08h-.57v9.27c1.89.57,4.16,1.14,6.62,1.51,2.46.38,4.92.57,7.38.57,6.81,0,11.73-1.14,15.13-3.4,3.4-2.27,5.11-5.67,5.11-10.21,0-2.46-.57-4.54-1.7-6.24-1.51-1.32-3.03-2.65-5.11-3.59"/>
      <path class="cls-1" d="m153.21,56.74c4.35,2.27,9.83,3.41,16.46,3.41,2.65,0,4.92-.19,7-.57,2.08-.38,3.78-.94,5.3-1.7v-9.84h-.76c-1.32.76-3.03,1.33-4.92,1.89-1.89.38-3.97.57-6.05.57-4.16,0-7.57-.76-10.4-2.27-2.84-1.51-4.92-3.59-6.43-6.43s-2.08-6.43-2.08-10.59.76-7.57,2.08-10.4c1.51-2.84,3.59-5.11,6.43-6.62,2.84-1.51,6.24-2.27,10.4-2.27,2.08,0,4.16.19,6.05.76,1.89.38,3.59.94,4.92,1.7h.76V4.92c-1.32-.76-3.22-1.13-5.3-1.7-2.08-.38-4.35-.57-7-.57-6.43,0-11.92,1.14-16.46,3.59-4.35,2.46-7.76,5.67-10.03,10.02-2.27,4.35-3.4,9.27-3.4,15.13s1.13,11.16,3.4,15.51c2.46,4.35,5.67,7.57,10.03,9.83"/>
      <path class="cls-1" d="m196.52,57.12c3.22,2.08,8.13,3.22,14.57,3.22,1.89,0,3.97-.19,6.05-.38,2.08-.19,4.16-.57,6.24-1.14,2.08-.57,3.97-1.14,5.67-1.7l.19-.57c-.19-.95-.38-2.08-.38-3.78-.19-1.51-.19-3.22-.19-4.73v-14c0-3.78-.57-6.81-1.51-9.08-.95-2.46-2.46-4.16-4.16-5.49-1.89-1.32-3.97-2.27-6.43-2.65-2.46-.57-5.11-.76-7.94-.76-2.27,0-4.73.19-7,.57-2.27.38-4.35.76-6.24,1.51v8.7h.76c1.32-.57,2.84-1.14,4.92-1.51,2.08-.38,4.16-.76,6.24-.76,2.46,0,4.35.19,6.05.76,1.51.38,2.84,1.32,3.59,2.65.76,1.32,1.32,3.4,1.32,6.05v.76c-.76-.19-1.51-.38-2.27-.57-1.7-.38-3.59-.57-5.86-.57-3.59,0-6.81.57-9.65,1.51-2.65.95-4.92,2.46-6.43,4.35-1.51,1.89-2.27,4.54-2.27,7.57-.19,4.54,1.51,7.94,4.73,10.02m7.57-15.13c1.7-.95,4.16-1.32,7.57-1.32,1.51,0,3.03.19,4.73.38.57.19,1.13.19,1.7.38v6.24c0,.76.19,1.51.19,2.27,0,.57.19,1.14.38,1.7-.76.19-1.51.57-2.27.76-1.7.38-3.4.38-5.11.38-3.03,0-5.29-.38-6.81-1.32-1.51-.95-2.46-2.46-2.46-4.54-.19-2.46.57-3.97,2.08-4.92"/>
      <path class="cls-1" d="m260.45,50.88c-.95.19-1.89.38-2.84.57h-2.84c-2.46,0-5.11-.38-7.57-.95-2.46-.57-4.73-1.32-6.43-2.08h-.57v9.08c1.89.57,4.16,1.13,6.62,1.51,2.46.38,4.92.57,7.38.57,6.81,0,11.73-1.14,15.13-3.4,3.4-2.27,5.11-5.67,5.11-10.21,0-2.46-.57-4.54-1.7-6.24-1.14-1.7-2.84-3.03-4.73-3.97-1.89-.95-4.16-1.51-6.62-1.89l-3.59-.57c-2.27-.38-4.16-.95-5.3-1.51-1.13-.57-1.7-1.51-1.7-2.84,0-1.7.76-3.03,2.46-3.59,1.7-.76,3.97-1.13,6.81-1.13,1.89,0,3.78.19,5.68.38,1.89.38,3.78.95,5.67,1.7h.57v-8.89c-1.7-.57-3.59-.95-5.49-1.13-1.89-.38-3.97-.38-6.05-.38-4.73,0-8.7.57-11.54,1.89-2.84,1.13-5.11,2.84-6.43,4.92-1.32,2.08-2.08,4.35-2.08,6.81,0,3.59,1.14,6.24,3.4,7.95,2.27,1.7,5.49,3.03,9.46,3.78l3.59.57c2.46.38,4.35.95,5.49,1.51,1.13.57,1.7,1.51,1.7,3.03,0,1.13-.38,2.08-.95,2.65-.95,1.14-1.7,1.7-2.65,1.89"/>
      <path class="cls-1" d="m323.44,59.39v-24.4c0-3.59-.38-6.62-1.32-8.89-.95-2.46-2.27-4.35-3.78-5.86-1.51-1.51-3.59-2.65-5.67-3.22-2.08-.76-4.54-.95-7-.95s-4.73.19-6.62.76c-.95.19-1.89.57-2.84.95V.38h-11.35l-.19.57c.19.95.38,2.08.38,3.78.19,1.51.19,3.21.19,4.73v49.75h10.78V26.1h.19c.95-.19,2.08-.57,3.21-.76,1.14-.19,2.27-.38,3.4-.38,1.89,0,3.59.38,5.11.95,1.51.57,2.65,1.7,3.41,3.22.75,1.51,1.32,3.59,1.32,6.43v23.83h10.78Z"/>
      <path class="cls-1" d="m356.54,0c-3.78,0-7,.57-9.65,1.89-2.65,1.32-4.73,3.21-6.05,5.67-1.32,2.46-2.08,5.67-2.08,9.46h-6.81v8.7h6.81v33.67h10.78V25.72h10.78v-8.7h-10.78c0-3.03.57-5.11,1.7-6.43,1.14-1.51,3.22-2.08,5.86-2.08,1.14,0,2.08.19,2.84.38.76.19,1.51.38,2.08.57h.76V.95c-.76-.38-1.7-.57-2.84-.76-.76-.19-2.08-.19-3.4-.19"/>
      <path class="cls-1" d="m368.45,28.37v31.02h10.78v-28.18c0-2.27-.19-3.97-.38-5.3.57-.19,1.14-.19,1.89-.38,1.51-.19,3.21-.38,4.92-.38.95,0,1.89,0,2.84.19.95,0,1.89.19,2.65.38h.76v-8.89c-1.13-.19-2.08-.19-3.22-.38h-3.03c-2.08,0-4.35.19-6.43.38-2.08.19-4.16.57-6.05.95-1.89.38-3.59.95-5.11,1.32l-.19.57c.19.95.38,2.27.38,3.78,0,1.7.19,3.21.19,4.92"/>
      <path class="cls-1" d="m430.31,59.58c2.08-.38,3.97-.95,5.29-1.51v-8.7h-.76c-1.14.57-2.65,1.13-4.54,1.7-1.89.38-4.16.76-6.62.76-2.84,0-5.3-.38-7.57-1.13-2.08-.76-3.78-2.08-5.11-3.78-.95-1.32-1.51-3.03-1.7-5.11h29.13v-2.65c.19-4.54-.38-8.32-1.7-11.73-1.32-3.4-3.4-6.24-6.43-8.13-3.03-1.89-6.81-3.03-11.54-3.03-4.16,0-7.94.95-10.97,2.65-3.03,1.7-5.49,4.35-7.19,7.57-1.7,3.22-2.65,7.19-2.65,11.73,0,3.78.57,7.19,1.7,9.83,1.13,2.84,2.84,5.11,4.92,6.81,2.08,1.7,4.73,3.03,7.75,3.97,3.03.95,6.43,1.32,10.4,1.32,3.03,0,5.48-.19,7.57-.57m-16.27-34.24c1.51-.76,3.22-1.32,5.11-1.32,3.03,0,5.3.76,6.62,2.46,1.51,1.7,2.27,3.97,2.27,7.19v.38h-18.54c.19-1.89.57-3.59,1.13-4.92.76-1.7,1.89-3.03,3.4-3.78"/>
      <path class="cls-1" d="m486.29,27.05c-1.32-3.4-3.4-6.24-6.43-8.13s-6.81-3.03-11.54-3.03c-4.16,0-7.94.95-10.97,2.65-3.03,1.7-5.49,4.35-7.19,7.57-1.7,3.21-2.65,7.19-2.65,11.73,0,3.78.57,7.19,1.7,9.83,1.14,2.84,2.84,5.11,4.92,6.81,2.08,1.7,4.73,3.03,7.76,3.97,3.03.95,6.43,1.32,10.4,1.32,2.84,0,5.3-.19,7.38-.57,2.08-.38,3.97-.95,5.29-1.51v-8.7h-.76c-1.14.57-2.65,1.13-4.54,1.7-1.89.38-4.16.76-6.62.76-2.84,0-5.3-.38-7.57-1.13-2.08-.76-3.78-2.08-5.11-3.78-.95-1.32-1.51-3.03-1.7-5.11h29.13v-2.65c.38-4.35-.19-8.32-1.51-11.73m-8.89,7.19h-18.54c.19-1.89.57-3.59,1.14-4.92.95-1.89,2.08-3.21,3.4-3.97,1.51-.76,3.21-1.32,5.11-1.32,3.03,0,5.3.76,6.62,2.46,1.51,1.7,2.27,3.97,2.27,7.19v.57Z"/>
      <path class="cls-2" d="m47.85.76c-11.16,0-20.43,9.08-20.43,20.24h75.47c11.16,0,20.43-9.08,20.43-20.43H47.85v.19Z"/>
      <path class="cls-2" d="m27.43,21C27.43,9.84,36.51.57,47.85.57v75.47c0,11.16-9.08,20.43-20.43,20.43V21Z"/>
      <path class="cls-3" d="m54.28,27.8v20.43h23.64c11.16,0,20.43-9.08,20.43-20.43h-44.07Z"/>
      <path class="cls-3" d="m0,48.23c0-11.16,9.08-20.43,20.43-20.43v75.47c0,11.16-9.08,20.43-20.43,20.43V48.23Z"/>
    </g>
  </g>
</svg>