<svg width="21" height="21" viewBox="0 0 21 21" fill="none" xmlns="http://www.w3.org/2000/svg">
<g clip-path="url(#clip0_140_651)">
<path d="M15.0835 2.125C14.1451 2.1396 13.2272 2.40154 12.4224 2.88439C11.6177 3.36724 10.9546 4.05389 10.5001 4.875C10.0457 4.05389 9.38257 3.36724 8.57783 2.88439C7.77308 2.40154 6.85517 2.1396 5.91679 2.125C4.42091 2.18999 3.01155 2.84438 1.99661 3.94519C0.981678 5.04601 0.443669 6.50377 0.500128 8C0.500128 11.7892 4.48846 15.9275 7.83346 18.7333C8.58031 19.3609 9.52459 19.705 10.5001 19.705C11.4757 19.705 12.4199 19.3609 13.1668 18.7333C16.5118 15.9275 20.5001 11.7892 20.5001 8C20.5566 6.50377 20.0186 5.04601 19.0036 3.94519C17.9887 2.84438 16.5793 2.18999 15.0835 2.125ZM12.096 17.4583C11.6493 17.8345 11.0841 18.0408 10.5001 18.0408C9.91617 18.0408 9.35098 17.8345 8.90429 17.4583C4.62263 13.8658 2.16679 10.4192 2.16679 8C2.10983 6.9456 2.4721 5.91144 3.1746 5.12308C3.87709 4.33472 4.86282 3.85613 5.91679 3.79167C6.97077 3.85613 7.95649 4.33472 8.65899 5.12308C9.36149 5.91144 9.72376 6.9456 9.66679 8C9.66679 8.22101 9.75459 8.43298 9.91087 8.58926C10.0672 8.74554 10.2791 8.83333 10.5001 8.83333C10.7211 8.83333 10.9331 8.74554 11.0894 8.58926C11.2457 8.43298 11.3335 8.22101 11.3335 8C11.2765 6.9456 11.6388 5.91144 12.3413 5.12308C13.0438 4.33472 14.0295 3.85613 15.0835 3.79167C16.1374 3.85613 17.1232 4.33472 17.8257 5.12308C18.5282 5.91144 18.8904 6.9456 18.8335 8C18.8335 10.4192 16.3776 13.8658 12.096 17.455V17.4583Z" fill="white"/>
</g>
<defs>
<clipPath id="clip0_140_651">
<rect width="20" height="20" fill="white" transform="translate(0.5 0.527344)"/>
</clipPath>
</defs>
</svg>
