<svg width="13" height="12" viewBox="0 0 13 12" fill="none" xmlns="http://www.w3.org/2000/svg">
<path d="M10.2171 3.5625H2.78319C2.77553 3.65388 2.74792 3.16587 3.28616 11.2399C3.31452 11.666 3.67147 12 4.09874 12H8.90155C9.32881 12 9.68577 11.666 9.71413 11.2399C10.2528 3.15891 10.2246 3.65203 10.2171 3.5625ZM5.03272 10.4986C4.82455 10.5163 4.6445 10.3626 4.62655 10.1576L4.25155 5.84508C4.2335 5.63859 4.38631 5.45695 4.59256 5.43891C4.79881 5.42109 4.98069 5.57367 4.99874 5.77992L5.37374 10.0924C5.39178 10.2989 5.23897 10.4805 5.03272 10.4986ZM6.87514 10.125C6.87514 10.3322 6.70733 10.5 6.50014 10.5C6.29295 10.5 6.12514 10.3322 6.12514 10.125V5.8125C6.12514 5.60531 6.29295 5.4375 6.50014 5.4375C6.70733 5.4375 6.87514 5.60531 6.87514 5.8125V10.125ZM8.74874 5.84508L8.37374 10.1576C8.35686 10.3528 8.19303 10.5 8.00061 10.5C7.77901 10.5 7.60749 10.3106 7.62655 10.0924L8.00155 5.77992C8.0196 5.57367 8.20124 5.42109 8.40772 5.43891C8.61397 5.45695 8.76678 5.63859 8.74874 5.84508ZM10.3732 1.3125H8.55983C8.56363 1.26316 8.56264 1.30003 8.56264 0.814453C8.56264 0.365391 8.19725 0 7.74819 0H5.2521C4.80303 0 4.43764 0.365391 4.43764 0.814453C4.43764 1.29066 4.43663 1.26298 4.44045 1.3125H2.6271C2.17803 1.3125 1.81264 1.67789 1.81264 2.12695C1.81264 2.79687 1.81159 2.76511 1.81522 2.8125H11.1851C11.1887 2.76438 11.1876 2.793 11.1876 2.12695C11.1876 1.67789 10.8223 1.3125 10.3732 1.3125ZM7.81264 1.24805C7.81264 1.28367 7.78381 1.3125 7.74819 1.3125H5.2521C5.21647 1.3125 5.18764 1.28367 5.18764 1.24805V0.814453C5.18764 0.778828 5.21647 0.75 5.2521 0.75H7.74819C7.78381 0.75 7.81264 0.778828 7.81264 0.814453V1.24805Z" fill="white"/>
</svg>
