<svg width="20" height="20" viewBox="0 0 20 20" fill="none" xmlns="http://www.w3.org/2000/svg">
<path d="M16.5349 0L14.4531 1.17188L12.2266 0L10 1.17188L7.77344 0L5.54688 1.17188L3.46508 0H2.69531V20H3.46508L5.54688 18.8281L7.77344 20L10 18.8281L12.2266 20L14.4531 18.8281L16.5349 20H17.3047V0H16.5349ZM5.54688 6.48629H10.9375V7.65816H5.54688V6.48629ZM5.54688 8.83004H10.9375V10.0019H5.54688V8.83004ZM5.54688 11.1738H10.9375V12.3457H5.54688V11.1738ZM14.4531 15.8613H5.54688V14.6894H14.4531V15.8613ZM14.4531 12.3457H13.2812V11.1738H14.4531V12.3457ZM14.4531 10.0019H13.2812V8.83004H14.4531V10.0019ZM14.4531 7.65816H13.2812V6.48629H14.4531V7.65816ZM14.4531 5.31441H5.54688V4.14254H14.4531V5.31441Z" fill="#214CDB"/>
</svg>
