<svg width="32" height="26" viewBox="0 0 32 26" fill="none" xmlns="http://www.w3.org/2000/svg">
<mask id="mask0_214_3823" style="mask-type:luminance" maskUnits="userSpaceOnUse" x="0" y="0" width="32" height="26">
<rect y="0.865234" width="31.0671" height="24.2711" fill="white"/>
</mask>
<g mask="url(#mask0_214_3823)">
<path fill-rule="evenodd" clip-rule="evenodd" d="M29.5444 23.7303V21.4277H28.985V22.7665C28.7985 22.5255 28.5321 22.3916 28.1857 22.3916C27.4664 22.3916 26.907 22.9539 26.907 23.7303C26.907 24.5068 27.4664 25.0691 28.1857 25.0691C28.5587 25.0691 28.8251 24.9352 28.985 24.6942V25.0155H29.5444V23.7303ZM13.0272 22.4452H13.933V22.9539H13.0272V24.1052C13.0272 24.3729 13.1338 24.5336 13.4002 24.5336C13.5334 24.5336 13.7199 24.5068 13.8797 24.3997L14.0396 24.8816C13.8531 24.9887 13.5867 25.0691 13.3469 25.0691C12.7076 25.0691 12.4678 24.721 12.4678 24.132V22.9539H11.9616V22.4452H12.4678V21.6687H13.0272V22.4452ZM5.64779 23.409V25.0155H5.03506V23.5965C5.03506 23.1681 4.84857 22.9271 4.4756 22.9271C4.12928 22.9271 3.86287 23.1413 3.86287 23.5965V25.0155H3.30342V23.5965C3.30342 23.1681 3.11693 22.9271 2.74397 22.9271C2.37099 22.9271 2.13123 23.1413 2.13123 23.5965V25.0155H1.57178V22.4452H2.13123V22.7665C2.34435 22.4719 2.61076 22.3916 2.87717 22.3916C3.27678 22.3916 3.54318 22.5523 3.72967 22.8468C3.96943 22.4987 4.31576 22.3916 4.63545 22.3916C5.27482 22.3916 5.64779 22.7932 5.64779 23.409ZM18.6751 22.3916C18.3554 22.3916 18.1422 22.5523 18.009 22.7665V22.4452H17.4496V25.0155H18.009V23.5697C18.009 23.1413 18.1955 22.9003 18.5418 22.9003C18.6484 22.9003 18.7816 22.9271 18.8882 22.9539L19.048 22.4184C18.9415 22.3916 18.7816 22.3916 18.6751 22.3916ZM10.4697 22.3916C10.8693 22.3916 11.2423 22.4719 11.5087 22.6594L11.2689 23.1145C11.1091 23.0342 10.7894 22.9003 10.4697 22.9003C10.1767 22.9003 9.9902 23.0074 9.9902 23.1948C9.9902 23.3555 10.1767 23.409 10.4164 23.4358L10.6829 23.4626C11.2157 23.5429 11.562 23.7839 11.562 24.2391C11.562 24.721 11.1357 25.0691 10.3898 25.0691C9.9902 25.0691 9.59059 24.962 9.29755 24.7478L9.56395 24.3194C9.75044 24.4532 10.0435 24.5871 10.4164 24.5871C10.7894 24.5871 11.0025 24.4532 11.0025 24.2658C11.0025 24.132 10.8427 24.0516 10.5496 23.9981L10.2832 23.9713C9.7238 23.891 9.40411 23.65 9.40411 23.2216C9.40411 22.7129 9.83036 22.3916 10.4697 22.3916ZM26.3742 22.3916C26.0545 22.3916 25.8414 22.5523 25.7082 22.7665V22.4452H25.1487V25.0155H25.7082V23.5697C25.7082 23.1413 25.8946 22.9003 26.241 22.9003C26.3475 22.9003 26.4807 22.9271 26.5873 22.9539L26.7471 22.4184C26.6406 22.3916 26.4807 22.3916 26.3742 22.3916ZM20.5932 25.0691C19.7673 25.0691 19.2345 24.5068 19.2345 23.7303C19.2345 22.9539 19.7673 22.3916 20.5932 22.3916C20.9661 22.3916 21.2325 22.4719 21.499 22.6861L21.2325 23.1413C21.0194 22.9807 20.8063 22.9003 20.5665 22.9003C20.1136 22.9271 19.794 23.2484 19.794 23.7303C19.794 24.2391 20.1136 24.5603 20.5665 24.5603C20.8063 24.5603 21.0194 24.48 21.2325 24.3194L21.499 24.7745C21.2325 24.9887 20.9661 25.0691 20.5932 25.0691ZM24.4028 23.7303V22.4452H23.8433V22.7665C23.6568 22.5255 23.3904 22.3916 23.0441 22.3916C22.3248 22.3916 21.7654 22.9539 21.7654 23.7303C21.7654 24.5068 22.3248 25.0691 23.0441 25.0691C23.4171 25.0691 23.6835 24.9352 23.8433 24.6942V25.0155H24.4028V23.7303ZM23.124 22.9003C22.6445 22.9003 22.3514 23.2752 22.3514 23.7303C22.3514 24.1855 22.6445 24.5336 23.124 24.5603C23.5769 24.5603 23.8966 24.1855 23.8966 23.7303C23.8966 23.2484 23.5769 22.9003 23.124 22.9003ZM15.6647 22.3916C14.9187 22.3916 14.3859 22.9271 14.3859 23.7303C14.3859 24.5336 14.9187 25.0691 15.6913 25.0691C16.0643 25.0691 16.4372 24.962 16.7303 24.721L16.4639 24.3194C16.2508 24.48 15.9844 24.5871 15.7179 24.5871C15.3716 24.5871 15.0253 24.4265 14.9454 23.9713H16.8369V23.7571C16.8635 22.9271 16.384 22.3916 15.6647 22.3916ZM16.304 23.4894C16.2508 23.0877 16.011 22.8736 15.6647 22.8736C15.2651 22.8736 15.0253 23.1413 14.972 23.4894H16.304ZM28.2657 22.9003C27.7861 22.9003 27.4931 23.2752 27.4931 23.7303C27.4931 24.1855 27.7861 24.5336 28.2657 24.5603C28.7185 24.5603 29.0382 24.1855 29.0382 23.7303C29.0382 23.2484 28.7185 22.9003 28.2657 22.9003ZM8.79138 23.7303V22.4452H8.23192V22.7665C8.04544 22.5255 7.77903 22.3916 7.43271 22.3916C6.71341 22.3916 6.15396 22.9539 6.15396 23.7303C6.15396 24.5068 6.71341 25.0691 7.43271 25.0691C7.80568 25.0691 8.07208 24.9352 8.23192 24.6942V25.0155H8.79138V23.7303ZM7.48599 22.9003C7.00646 22.9003 6.71341 23.2752 6.71341 23.7303C6.71341 24.1855 7.00646 24.5336 7.48599 24.5603C7.93888 24.5603 8.25856 24.1855 8.25856 23.7303C8.25856 23.2484 7.93888 22.9003 7.48599 22.9003Z" fill="white"/>
<path d="M19.7141 2.92773H11.3223V18.082H19.7141V2.92773Z" fill="#FF5F00"/>
<path d="M11.8551 10.504C11.8551 7.42497 13.2936 4.69398 15.5048 2.92686C13.8797 1.64169 11.8284 0.865234 9.59061 0.865234C4.28913 0.865234 0 5.17592 0 10.504C0 15.8321 4.28913 20.1428 9.59061 20.1428C11.8284 20.1428 13.8797 19.3663 15.5048 18.0812C13.2936 16.3408 11.8551 13.5831 11.8551 10.504Z" fill="#EB001B"/>
<path d="M31.036 10.504C31.036 15.8321 26.747 20.1428 21.4455 20.1428C19.2076 20.1428 17.1563 19.3663 15.5312 18.0812C17.7691 16.3141 19.181 13.5831 19.181 10.504C19.181 7.42497 17.7424 4.69398 15.5312 2.92686C17.1563 1.64169 19.2076 0.865234 21.4455 0.865234C26.747 0.865234 31.036 5.20269 31.036 10.504Z" fill="#F79E1B"/>
</g>
</svg>
