<svg width="356" height="160" viewBox="0 0 356 160" fill="none" xmlns="http://www.w3.org/2000/svg">
<g clip-path="url(#clip0_311_2190)">
<path d="M106.96 59.6465L116.059 131.022L189.41 159.269L189.313 85.0771L106.96 59.6465Z" fill="#D4BD77"/>
<path d="M189.313 85.0766L252.96 57.7402L241.698 135.671L189.41 159.269L189.313 85.0766Z" fill="#E8CF82"/>
<path d="M106.96 59.646L168.009 33.2686L252.96 57.7402L189.313 85.0766L106.96 59.646Z" fill="#FFE69A"/>
<path d="M136.892 69.1997L138.644 93.9748L157.64 99.9107L156.807 75.0505L217.469 47.5078L198.436 42.0332L136.892 69.1997Z" fill="#72A9D4"/>
<path d="M211.693 75.4625L231.861 66.8076L224.478 143.439L209.518 150.189L211.693 75.4625Z" fill="#5691BF"/>
<path d="M136.892 69.1992L156.807 75.0501L159.248 147.652L141.726 140.903L136.892 69.1992Z" fill="#4C80A8"/>
<path d="M131.95 48.8422L211.693 75.4624L231.861 66.8075L148.251 41.8018L131.95 48.8422Z" fill="#89BEE8"/>
<path d="M162.366 86.3389L181.906 91.4978V125.79L163.26 119.138L162.366 86.3389Z" fill="#FEFAEA"/>
</g>
<g clip-path="url(#clip1_311_2190)">
<path d="M297.909 41.6299C325.222 26.1227 346.863 48.0712 344.53 70.2663C340.744 106.6 286.03 121.574 249.149 117.159C282.292 116.237 334.335 100.952 336.551 69.543C337.837 54.7506 326.06 43.86 314.648 44.5469C306.295 44.9697 297.786 51.1443 289.46 56.4665C290.157 45.8153 291.451 34.3735 285.257 24.469C275.166 8.18882 244.376 2.53194 236.198 50.4752C236.997 -8.77756 294.556 -3.07597 297.909 41.6299Z" fill="#214CDB"/>
</g>
<g clip-path="url(#clip2_311_2190)">
<path d="M58.0923 41.6299C30.7785 26.1227 9.13775 48.0712 11.471 70.2663C15.2571 106.6 69.9713 121.574 106.852 117.159C73.7087 116.237 21.666 100.952 19.4503 69.543C18.1645 54.7506 29.9409 43.86 41.3529 44.5469C49.7064 44.9697 58.2145 51.1443 66.5405 56.4665C65.8437 45.8153 64.5497 34.3735 70.7436 24.469C80.8347 8.18882 111.625 2.53194 119.803 50.4752C119.004 -8.77756 61.4452 -3.07597 58.0923 41.6299Z" fill="#214CDB"/>
</g>
<defs>
<clipPath id="clip0_311_2190">
<rect width="146" height="126" fill="white" transform="translate(106.96 33.2686)"/>
</clipPath>
<clipPath id="clip1_311_2190">
<rect width="112.675" height="111.766" fill="white" transform="matrix(-0.964193 -0.265203 -0.265203 0.964193 355.96 30.6143)"/>
</clipPath>
<clipPath id="clip2_311_2190">
<rect width="112.675" height="111.766" fill="white" transform="translate(0.0410156 30.6143) rotate(-15.379)"/>
</clipPath>
</defs>
</svg>
