<?xml version="1.0" encoding="UTF-8"?>
<svg xmlns="http://www.w3.org/2000/svg" xmlns:xlink="http://www.w3.org/1999/xlink" viewBox="0 0 1089.15 1089.15">
  <defs>
    <style>
      .cls-1 {
        fill: #fff;
      }

      .cls-2 {
        isolation: isolate;
      }

      .cls-3 {
        clip-path: url(#clippath);
      }

      .cls-4 {
        fill: none;
      }

      .cls-5 {
        fill: #29abe2;
      }

      .cls-6 {
        mix-blend-mode: overlay;
        opacity: .5;
      }
    </style>
    <clipPath id="clippath">
      <circle class="cls-4" cx="544.57" cy="544.57" r="544.57"/>
    </clipPath>
  </defs>
  <g class="cls-2">
    <g id="Layer_2" data-name="Layer 2">
      <g id="_Layer_" data-name="&amp;lt;Layer&amp;gt;">
        <g>
          <g class="cls-3">
            <circle class="cls-5" cx="544.57" cy="544.57" r="544.57"/>
            <g class="cls-6">
              <path d="m1047.19,934.55c48.1-27.19,80.67-78.78,80.67-137.86,0-87.28-71.01-158.28-158.28-158.28s-158.28,71-158.28,158.28c0,59.08,32.56,110.68,80.67,137.86-111.04,33.42-192.17,136.57-192.17,258.36,0,8.79,7.13,15.92,15.92,15.92l331.48-274.28Z"/>
              <path d="m1044.69,932.05c48.1-27.19,80.67-78.78,80.67-137.86,0-87.28-71.01-158.28-158.28-158.28s-158.28,71-158.28,158.28c0,59.08,32.56,110.68,80.67,137.86-111.04,33.42-192.17,136.57-192.17,258.36,0,8.79,7.13,15.92,15.92,15.92l331.48-274.28Z"/>
              <path d="m1042.19,929.55c48.1-27.19,80.67-78.78,80.67-137.86,0-87.28-71.01-158.28-158.28-158.28s-158.28,71-158.28,158.28c0,59.08,32.56,110.68,80.67,137.86-111.04,33.42-192.17,136.57-192.17,258.36,0,8.79,7.13,15.92,15.92,15.92l331.48-274.28Z"/>
              <path d="m1039.69,927.05c48.1-27.19,80.67-78.78,80.67-137.86,0-87.28-71.01-158.28-158.28-158.28s-158.28,71-158.28,158.28c0,59.08,32.56,110.68,80.67,137.86-111.04,33.42-192.17,136.57-192.17,258.36,0,8.79,7.13,15.92,15.92,15.92l331.48-274.28Z"/>
              <path d="m1037.19,924.55c48.1-27.19,80.67-78.78,80.67-137.86,0-87.28-71.01-158.28-158.28-158.28s-158.28,71-158.28,158.28c0,59.08,32.56,110.68,80.67,137.86-111.04,33.42-192.17,136.57-192.17,258.36,0,8.79,7.13,15.92,15.92,15.92l331.48-274.28Z"/>
              <path d="m1034.69,922.05c48.1-27.19,80.67-78.78,80.67-137.86,0-87.28-71.01-158.28-158.28-158.28s-158.28,71-158.28,158.28c0,59.08,32.56,110.68,80.67,137.86-111.04,33.42-192.17,136.57-192.17,258.36,0,8.79,7.13,15.92,15.92,15.92l331.48-274.28Z"/>
              <path d="m1032.19,919.55c48.1-27.19,80.67-78.78,80.67-137.86,0-87.28-71.01-158.28-158.28-158.28s-158.28,71-158.28,158.28c0,59.08,32.56,110.68,80.67,137.86-111.04,33.42-192.17,136.57-192.17,258.36,0,8.79,7.13,15.92,15.92,15.92l331.48-274.28Z"/>
              <path d="m1029.69,917.05c48.1-27.19,80.67-78.78,80.67-137.86,0-87.28-71.01-158.28-158.28-158.28s-158.28,71-158.28,158.28c0,59.08,32.56,110.68,80.67,137.86-111.04,33.42-192.17,136.57-192.17,258.36,0,8.79,7.13,15.92,15.92,15.92l331.48-274.28Z"/>
              <path d="m1027.19,914.55c48.1-27.19,80.67-78.78,80.67-137.86,0-87.28-71.01-158.28-158.28-158.28s-158.28,71-158.28,158.28c0,59.08,32.56,110.68,80.67,137.86-111.04,33.42-192.17,136.57-192.17,258.36,0,8.79,7.13,15.92,15.92,15.92l331.48-274.28Z"/>
              <path d="m1024.69,912.05c48.1-27.19,80.67-78.78,80.67-137.86,0-87.28-71.01-158.28-158.28-158.28s-158.28,71-158.28,158.28c0,59.08,32.56,110.68,80.67,137.86-111.04,33.42-192.17,136.57-192.17,258.36,0,8.79,7.13,15.92,15.92,15.92l331.48-274.28Z"/>
              <path d="m1022.19,909.55c48.1-27.19,80.67-78.78,80.67-137.86,0-87.28-71.01-158.28-158.28-158.28s-158.28,71-158.28,158.28c0,59.08,32.56,110.68,80.67,137.86-111.04,33.42-192.17,136.57-192.17,258.36,0,8.79,7.13,15.92,15.92,15.92l331.48-274.28Z"/>
              <path d="m1019.69,907.05c48.1-27.19,80.67-78.78,80.67-137.86,0-87.28-71.01-158.28-158.28-158.28s-158.28,71-158.28,158.28c0,59.08,32.56,110.68,80.67,137.86-111.04,33.42-192.17,136.57-192.17,258.36,0,8.79,7.13,15.92,15.92,15.92l331.48-274.28Z"/>
              <path d="m1017.19,904.55c48.1-27.19,80.67-78.78,80.67-137.86,0-87.28-71.01-158.28-158.28-158.28s-158.28,71-158.28,158.28c0,59.08,32.56,110.68,80.67,137.86-111.04,33.42-192.17,136.57-192.17,258.36,0,8.79,7.13,15.92,15.92,15.92l331.48-274.28Z"/>
              <path d="m1014.69,902.05c48.1-27.19,80.67-78.78,80.67-137.86,0-87.28-71.01-158.28-158.28-158.28s-158.28,71-158.28,158.28c0,59.08,32.56,110.68,80.67,137.86-111.04,33.42-192.17,136.57-192.17,258.36,0,8.79,7.13,15.92,15.92,15.92l331.48-274.28Z"/>
              <path d="m1012.19,899.55c48.1-27.19,80.67-78.78,80.67-137.86,0-87.28-71.01-158.28-158.28-158.28s-158.28,71-158.28,158.28c0,59.08,32.56,110.68,80.67,137.86-111.04,33.42-192.17,136.57-192.17,258.36,0,8.79,7.13,15.92,15.92,15.92l331.48-274.28Z"/>
              <path d="m1009.69,897.05c48.1-27.19,80.67-78.78,80.67-137.86,0-87.28-71.01-158.28-158.28-158.28s-158.28,71-158.28,158.28c0,59.08,32.56,110.68,80.67,137.86-111.04,33.42-192.17,136.57-192.17,258.36,0,8.79,7.13,15.92,15.92,15.92l331.48-274.28Z"/>
              <path d="m1007.19,894.55c48.1-27.19,80.67-78.78,80.67-137.86,0-87.28-71.01-158.28-158.28-158.28s-158.28,71-158.28,158.28c0,59.08,32.56,110.68,80.67,137.86-111.04,33.42-192.17,136.57-192.17,258.36,0,8.79,7.13,15.92,15.92,15.92l331.48-274.28Z"/>
              <path d="m1004.69,892.05c48.1-27.19,80.67-78.78,80.67-137.86,0-87.28-71.01-158.28-158.28-158.28s-158.28,71-158.28,158.28c0,59.08,32.56,110.68,80.67,137.86-111.04,33.42-192.17,136.57-192.17,258.36,0,8.79,7.13,15.92,15.92,15.92l331.48-274.28Z"/>
              <path d="m1002.19,889.55c48.1-27.19,80.67-78.78,80.67-137.86,0-87.28-71.01-158.28-158.28-158.28s-158.28,71-158.28,158.28c0,59.08,32.56,110.68,80.67,137.86-111.04,33.42-192.17,136.57-192.17,258.36,0,8.79,7.13,15.92,15.92,15.92l331.48-274.28Z"/>
              <path d="m999.69,887.05c48.1-27.19,80.67-78.78,80.67-137.86,0-87.28-71.01-158.28-158.28-158.28s-158.28,71-158.28,158.28c0,59.08,32.56,110.68,80.67,137.86-111.04,33.42-192.17,136.57-192.17,258.36,0,8.79,7.13,15.92,15.92,15.92l331.48-274.28Z"/>
              <path d="m997.19,884.55c48.1-27.19,80.67-78.78,80.67-137.86,0-87.28-71.01-158.28-158.28-158.28s-158.28,71-158.28,158.28c0,59.08,32.56,110.68,80.67,137.86-111.04,33.42-192.17,136.57-192.17,258.36,0,8.79,7.13,15.92,15.92,15.92l331.48-274.28Z"/>
              <path d="m994.69,882.05c48.1-27.19,80.67-78.78,80.67-137.86,0-87.28-71.01-158.28-158.28-158.28s-158.28,71-158.28,158.28c0,59.08,32.56,110.68,80.67,137.86-111.04,33.42-192.17,136.57-192.17,258.36,0,8.79,7.13,15.92,15.92,15.92l331.48-274.28Z"/>
              <path d="m992.19,879.55c48.1-27.19,80.67-78.78,80.67-137.86,0-87.28-71.01-158.28-158.28-158.28s-158.28,71-158.28,158.28c0,59.08,32.56,110.68,80.67,137.86-111.04,33.42-192.17,136.57-192.17,258.36,0,8.79,7.13,15.92,15.92,15.92l331.48-274.28Z"/>
              <path d="m989.69,877.05c48.1-27.19,80.67-78.78,80.67-137.86,0-87.28-71.01-158.28-158.28-158.28s-158.28,71-158.28,158.28c0,59.08,32.56,110.68,80.67,137.86-111.04,33.42-192.17,136.57-192.17,258.36,0,8.79,7.13,15.92,15.92,15.92l331.48-274.28Z"/>
              <path d="m987.19,874.55c48.1-27.19,80.67-78.78,80.67-137.86,0-87.28-71.01-158.28-158.28-158.28s-158.28,71-158.28,158.28c0,59.08,32.56,110.68,80.67,137.86-111.04,33.42-192.17,136.57-192.17,258.36,0,8.79,7.13,15.92,15.92,15.92l331.48-274.28Z"/>
              <path d="m984.69,872.05c48.1-27.19,80.67-78.78,80.67-137.86,0-87.28-71.01-158.28-158.28-158.28s-158.28,71-158.28,158.28c0,59.08,32.56,110.68,80.67,137.86-111.04,33.42-192.17,136.57-192.17,258.36,0,8.79,7.13,15.92,15.92,15.92l331.48-274.28Z"/>
              <path d="m982.19,869.55c48.1-27.19,80.67-78.78,80.67-137.86,0-87.28-71.01-158.28-158.28-158.28s-158.28,71-158.28,158.28c0,59.08,32.56,110.68,80.67,137.86-111.04,33.42-192.17,136.57-192.17,258.36,0,8.79,7.13,15.92,15.92,15.92l331.48-274.28Z"/>
              <path d="m979.69,867.05c48.1-27.19,80.67-78.78,80.67-137.86,0-87.28-71.01-158.28-158.28-158.28s-158.28,71-158.28,158.28c0,59.08,32.56,110.68,80.67,137.86-111.04,33.42-192.17,136.57-192.17,258.36,0,8.79,7.13,15.92,15.92,15.92l331.48-274.28Z"/>
              <path d="m977.19,864.55c48.1-27.19,80.67-78.78,80.67-137.86,0-87.28-71.01-158.28-158.28-158.28s-158.28,71-158.28,158.28c0,59.08,32.56,110.68,80.67,137.86-111.04,33.42-192.17,136.57-192.17,258.36,0,8.79,7.13,15.92,15.92,15.92l331.48-274.28Z"/>
              <path d="m1166.86,1120.41c0-121.79-81.14-224.94-192.18-258.36,48.1-27.19,80.67-78.78,80.67-137.86,0-87.28-71.01-158.28-158.28-158.28s-158.28,71-158.28,158.28c0,59.08,32.56,110.68,80.67,137.86-111.04,33.42-192.17,136.57-192.17,258.36,0,8.79,7.13,15.92,15.92,15.92l523.65-15.92Z"/>
              <path d="m1164.36,1117.91c0-121.79-81.14-224.94-192.18-258.36,48.1-27.19,80.67-78.78,80.67-137.86,0-87.28-71.01-158.28-158.28-158.28s-158.28,71-158.28,158.28c0,59.08,32.56,110.68,80.67,137.86-111.04,33.42-192.17,136.57-192.17,258.36,0,8.79,7.13,15.92,15.92,15.92l523.65-15.92Z"/>
              <path d="m1161.86,1115.41c0-121.79-81.14-224.94-192.18-258.36,48.1-27.19,80.67-78.78,80.67-137.86,0-87.28-71.01-158.28-158.28-158.28s-158.28,71-158.28,158.28c0,59.08,32.56,110.68,80.67,137.86-111.04,33.42-192.17,136.57-192.17,258.36,0,8.79,7.13,15.92,15.92,15.92l523.65-15.92Z"/>
              <path d="m1159.36,1112.91c0-121.79-81.14-224.94-192.18-258.36,48.1-27.19,80.67-78.78,80.67-137.86,0-87.28-71.01-158.28-158.28-158.28s-158.28,71-158.28,158.28c0,59.08,32.56,110.68,80.67,137.86-111.04,33.42-192.17,136.57-192.17,258.36,0,8.79,7.13,15.92,15.92,15.92l523.65-15.92Z"/>
              <path d="m1156.86,1110.41c0-121.79-81.14-224.94-192.18-258.36,48.1-27.19,80.67-78.78,80.67-137.86,0-87.28-71.01-158.28-158.28-158.28s-158.28,71-158.28,158.28c0,59.08,32.56,110.68,80.67,137.86-111.04,33.42-192.17,136.57-192.17,258.36,0,8.79,7.13,15.92,15.92,15.92l523.65-15.92Z"/>
              <path d="m1154.36,1107.91c0-121.79-81.14-224.94-192.18-258.36,48.1-27.19,80.67-78.78,80.67-137.86,0-87.28-71.01-158.28-158.28-158.28s-158.28,71-158.28,158.28c0,59.08,32.56,110.68,80.67,137.86-111.04,33.42-192.17,136.57-192.17,258.36,0,8.79,7.13,15.92,15.92,15.92l523.65-15.92Z"/>
              <path d="m959.69,847.05c48.1-27.19,80.67-78.78,80.67-137.86,0-87.28-71.01-158.28-158.28-158.28s-158.28,71-158.28,158.28c0,59.08,32.56,110.68,80.67,137.86-111.04,33.42-192.17,136.57-192.17,258.36,0,8.79,7.13,15.92,15.92,15.92h507.73c8.79,0,15.92-7.13,15.92-15.92,0-121.79-81.14-224.94-192.18-258.36Z"/>
              <path d="m957.19,844.55c48.1-27.19,80.67-78.78,80.67-137.86,0-87.28-71.01-158.28-158.28-158.28s-158.28,71-158.28,158.28c0,59.08,32.56,110.68,80.67,137.86-111.04,33.42-192.17,136.57-192.17,258.36,0,8.79,7.13,15.92,15.92,15.92h507.73c8.79,0,15.92-7.13,15.92-15.92,0-121.79-81.14-224.94-192.18-258.36Z"/>
              <path d="m954.69,842.05c48.1-27.19,80.67-78.78,80.67-137.86,0-87.28-71.01-158.28-158.28-158.28s-158.28,71-158.28,158.28c0,59.08,32.56,110.68,80.67,137.86-111.04,33.42-192.17,136.57-192.17,258.36,0,8.79,7.13,15.92,15.92,15.92h507.73c8.79,0,15.92-7.13,15.92-15.92,0-121.79-81.14-224.94-192.18-258.36Z"/>
              <path d="m952.19,839.55c48.1-27.19,80.67-78.78,80.67-137.86,0-87.28-71.01-158.28-158.28-158.28s-158.28,71-158.28,158.28c0,59.08,32.56,110.68,80.67,137.86-111.04,33.42-192.17,136.57-192.17,258.36,0,8.79,7.13,15.92,15.92,15.92h507.73c8.79,0,15.92-7.13,15.92-15.92,0-121.79-81.14-224.94-192.18-258.36Z"/>
              <path d="m949.69,837.05c48.1-27.19,80.67-78.78,80.67-137.86,0-87.28-71.01-158.28-158.28-158.28s-158.28,71-158.28,158.28c0,59.08,32.56,110.68,80.67,137.86-111.04,33.42-192.17,136.57-192.17,258.36,0,8.79,7.13,15.92,15.92,15.92h507.73c8.79,0,15.92-7.13,15.92-15.92,0-121.79-81.14-224.94-192.18-258.36Z"/>
              <path d="m947.19,834.55c48.1-27.19,80.67-78.78,80.67-137.86,0-87.28-71.01-158.28-158.28-158.28s-158.28,71-158.28,158.28c0,59.08,32.56,110.68,80.67,137.86-111.04,33.42-192.17,136.57-192.17,258.36,0,8.79,7.13,15.92,15.92,15.92h507.73c8.79,0,15.92-7.13,15.92-15.92,0-121.79-81.14-224.94-192.18-258.36Z"/>
              <path d="m944.69,832.05c48.1-27.19,80.67-78.78,80.67-137.86,0-87.28-71.01-158.28-158.28-158.28s-158.28,71-158.28,158.28c0,59.08,32.56,110.68,80.67,137.86-111.04,33.42-192.17,136.57-192.17,258.36,0,8.79,7.13,15.92,15.92,15.92h507.73c8.79,0,15.92-7.13,15.92-15.92,0-121.79-81.14-224.94-192.18-258.36Z"/>
              <path d="m942.19,829.55c48.1-27.19,80.67-78.78,80.67-137.86,0-87.28-71.01-158.28-158.28-158.28s-158.28,71-158.28,158.28c0,59.08,32.56,110.68,80.67,137.86-111.04,33.42-192.17,136.57-192.17,258.36,0,8.79,7.13,15.92,15.92,15.92h507.73c8.79,0,15.92-7.13,15.92-15.92,0-121.79-81.14-224.94-192.18-258.36Z"/>
              <path d="m939.69,827.05c48.1-27.19,80.67-78.78,80.67-137.86,0-87.28-71.01-158.28-158.28-158.28s-158.28,71-158.28,158.28c0,59.08,32.56,110.68,80.67,137.86-111.04,33.42-192.17,136.57-192.17,258.36,0,8.79,7.13,15.92,15.92,15.92h507.73c8.79,0,15.92-7.13,15.92-15.92,0-121.79-81.14-224.94-192.18-258.36Z"/>
              <path d="m937.19,824.55c48.1-27.19,80.67-78.78,80.67-137.86,0-87.28-71.01-158.28-158.28-158.28s-158.28,71-158.28,158.28c0,59.08,32.56,110.68,80.67,137.86-111.04,33.42-192.17,136.57-192.17,258.36,0,8.79,7.13,15.92,15.92,15.92h507.73c8.79,0,15.92-7.13,15.92-15.92,0-121.79-81.14-224.94-192.18-258.36Z"/>
              <path d="m934.69,822.05c48.1-27.19,80.67-78.78,80.67-137.86,0-87.28-71.01-158.28-158.28-158.28s-158.28,71-158.28,158.28c0,59.08,32.56,110.68,80.67,137.86-111.04,33.42-192.17,136.57-192.17,258.36,0,8.79,7.13,15.92,15.92,15.92h507.73c8.79,0,15.92-7.13,15.92-15.92,0-121.79-81.14-224.94-192.18-258.36Z"/>
              <path d="m932.19,819.55c48.1-27.19,80.67-78.78,80.67-137.86,0-87.28-71.01-158.28-158.28-158.28s-158.28,71-158.28,158.28c0,59.08,32.56,110.68,80.67,137.86-111.04,33.42-192.17,136.57-192.17,258.36,0,8.79,7.13,15.92,15.92,15.92h507.73c8.79,0,15.92-7.13,15.92-15.92,0-121.79-81.14-224.94-192.18-258.36Z"/>
              <path d="m929.69,817.05c48.1-27.19,80.67-78.78,80.67-137.86,0-87.28-71.01-158.28-158.28-158.28s-158.28,71-158.28,158.28c0,59.08,32.56,110.68,80.67,137.86-111.04,33.42-192.17,136.57-192.17,258.36,0,8.79,7.13,15.92,15.92,15.92h507.73c8.79,0,15.92-7.13,15.92-15.92,0-121.79-81.14-224.94-192.18-258.36Z"/>
              <path d="m927.19,814.55c48.1-27.19,80.67-78.78,80.67-137.86,0-87.28-71.01-158.28-158.28-158.28s-158.28,71-158.28,158.28c0,59.08,32.56,110.68,80.67,137.86-111.04,33.42-192.17,136.57-192.17,258.36,0,8.79,7.13,15.92,15.92,15.92h507.73c8.79,0,15.92-7.13,15.92-15.92,0-121.79-81.14-224.94-192.18-258.36Z"/>
              <path d="m924.69,812.05c48.1-27.19,80.67-78.78,80.67-137.86,0-87.28-71.01-158.28-158.28-158.28s-158.28,71-158.28,158.28c0,59.08,32.56,110.68,80.67,137.86-111.04,33.42-192.17,136.57-192.17,258.36,0,8.79,7.13,15.92,15.92,15.92h507.73c8.79,0,15.92-7.13,15.92-15.92,0-121.79-81.14-224.94-192.18-258.36Z"/>
              <path d="m922.19,809.55c48.1-27.19,80.67-78.78,80.67-137.86,0-87.28-71.01-158.28-158.28-158.28s-158.28,71-158.28,158.28c0,59.08,32.56,110.68,80.67,137.86-111.04,33.42-192.17,136.57-192.17,258.36,0,8.79,7.13,15.92,15.92,15.92h507.73c8.79,0,15.92-7.13,15.92-15.92,0-121.79-81.14-224.94-192.18-258.36Z"/>
              <path d="m919.69,807.05c48.1-27.19,80.67-78.78,80.67-137.86,0-87.28-71.01-158.28-158.28-158.28s-158.28,71-158.28,158.28c0,59.08,32.56,110.68,80.67,137.86-111.04,33.42-192.17,136.57-192.17,258.36,0,8.79,7.13,15.92,15.92,15.92h507.73c8.79,0,15.92-7.13,15.92-15.92,0-121.79-81.14-224.94-192.18-258.36Z"/>
              <path d="m917.19,804.55c48.1-27.19,80.67-78.78,80.67-137.86,0-87.28-71.01-158.28-158.28-158.28s-158.28,71-158.28,158.28c0,59.08,32.56,110.68,80.67,137.86-111.04,33.42-192.17,136.57-192.17,258.36,0,8.79,7.13,15.92,15.92,15.92h507.73c8.79,0,15.92-7.13,15.92-15.92,0-121.79-81.14-224.94-192.18-258.36Z"/>
              <path d="m914.69,802.05c48.1-27.19,80.67-78.78,80.67-137.86,0-87.28-71.01-158.28-158.28-158.28s-158.28,71-158.28,158.28c0,59.08,32.56,110.68,80.67,137.86-111.04,33.42-192.17,136.57-192.17,258.36,0,8.79,7.13,15.92,15.92,15.92h507.73c8.79,0,15.92-7.13,15.92-15.92,0-121.79-81.14-224.94-192.18-258.36Z"/>
              <path d="m912.19,799.55c48.1-27.19,80.67-78.78,80.67-137.86,0-87.28-71.01-158.28-158.28-158.28s-158.28,71-158.28,158.28c0,59.08,32.56,110.68,80.67,137.86-111.04,33.42-192.17,136.57-192.17,258.36,0,8.79,7.13,15.92,15.92,15.92h507.73c8.79,0,15.92-7.13,15.92-15.92,0-121.79-81.14-224.94-192.18-258.36Z"/>
              <path d="m909.69,797.05c48.1-27.19,80.67-78.78,80.67-137.86,0-87.28-71.01-158.28-158.28-158.28s-158.28,71-158.28,158.28c0,59.08,32.56,110.68,80.67,137.86-111.04,33.42-192.17,136.57-192.17,258.36,0,8.79,7.13,15.92,15.92,15.92h507.73c8.79,0,15.92-7.13,15.92-15.92,0-121.79-81.14-224.94-192.18-258.36Z"/>
              <path d="m907.19,794.55c48.1-27.19,80.67-78.78,80.67-137.86,0-87.28-71.01-158.28-158.28-158.28s-158.28,71-158.28,158.28c0,59.08,32.56,110.68,80.67,137.86-111.04,33.42-192.17,136.57-192.17,258.36,0,8.79,7.13,15.92,15.92,15.92h507.73c8.79,0,15.92-7.13,15.92-15.92,0-121.79-81.14-224.94-192.18-258.36Z"/>
              <path d="m904.69,792.05c48.1-27.19,80.67-78.78,80.67-137.86,0-87.28-71.01-158.28-158.28-158.28s-158.28,71-158.28,158.28c0,59.08,32.56,110.68,80.67,137.86-111.04,33.42-192.17,136.57-192.17,258.36,0,8.79,7.13,15.92,15.92,15.92h507.73c8.79,0,15.92-7.13,15.92-15.92,0-121.79-81.14-224.94-192.18-258.36Z"/>
              <path d="m902.19,789.55c48.1-27.19,80.67-78.78,80.67-137.86,0-87.28-71.01-158.28-158.28-158.28s-158.28,71-158.28,158.28c0,59.08,32.56,110.68,80.67,137.86-111.04,33.42-192.17,136.57-192.17,258.36,0,8.79,7.13,15.92,15.92,15.92h507.73c8.79,0,15.92-7.13,15.92-15.92,0-121.79-81.14-224.94-192.18-258.36Z"/>
              <path d="m899.69,787.05c48.1-27.19,80.67-78.78,80.67-137.86,0-87.28-71.01-158.28-158.28-158.28s-158.28,71-158.28,158.28c0,59.08,32.56,110.68,80.67,137.86-111.04,33.42-192.17,136.57-192.17,258.36,0,8.79,7.13,15.92,15.92,15.92h507.73c8.79,0,15.92-7.13,15.92-15.92,0-121.79-81.14-224.94-192.18-258.36Z"/>
              <path d="m897.19,784.55c48.1-27.19,80.67-78.78,80.67-137.86,0-87.28-71.01-158.28-158.28-158.28s-158.28,71-158.28,158.28c0,59.08,32.56,110.68,80.67,137.86-111.04,33.42-192.17,136.57-192.17,258.36,0,8.79,7.13,15.92,15.92,15.92h507.73c8.79,0,15.92-7.13,15.92-15.92,0-121.79-81.14-224.94-192.18-258.36Z"/>
              <path d="m894.69,782.05c48.1-27.19,80.67-78.78,80.67-137.86,0-87.28-71.01-158.28-158.28-158.28s-158.28,71-158.28,158.28c0,59.08,32.56,110.68,80.67,137.86-111.04,33.42-192.17,136.57-192.17,258.36,0,8.79,7.13,15.92,15.92,15.92h507.73c8.79,0,15.92-7.13,15.92-15.92,0-121.79-81.14-224.94-192.18-258.36Z"/>
              <path d="m892.19,779.55c48.1-27.19,80.67-78.78,80.67-137.86,0-87.28-71.01-158.28-158.28-158.28s-158.28,71-158.28,158.28c0,59.08,32.56,110.68,80.67,137.86-111.04,33.42-192.17,136.57-192.17,258.36,0,8.79,7.13,15.92,15.92,15.92h507.73c8.79,0,15.92-7.13,15.92-15.92,0-121.79-81.14-224.94-192.18-258.36Z"/>
              <path d="m889.69,777.05c48.1-27.19,80.67-78.78,80.67-137.86,0-87.28-71.01-158.28-158.28-158.28s-158.28,71-158.28,158.28c0,59.08,32.56,110.68,80.67,137.86-111.04,33.42-192.17,136.57-192.17,258.36,0,8.79,7.13,15.92,15.92,15.92h507.73c8.79,0,15.92-7.13,15.92-15.92,0-121.79-81.14-224.94-192.18-258.36Z"/>
              <path d="m887.19,774.55c48.1-27.19,80.67-78.78,80.67-137.86,0-87.28-71.01-158.28-158.28-158.28s-158.28,71-158.28,158.28c0,59.08,32.56,110.68,80.67,137.86-111.04,33.42-192.17,136.57-192.17,258.36,0,8.79,7.13,15.92,15.92,15.92h507.73c8.79,0,15.92-7.13,15.92-15.92,0-121.79-81.14-224.94-192.18-258.36Z"/>
              <path d="m884.69,772.05c48.1-27.19,80.67-78.78,80.67-137.86,0-87.28-71.01-158.28-158.28-158.28s-158.28,71-158.28,158.28c0,59.08,32.56,110.68,80.67,137.86-111.04,33.42-192.17,136.57-192.17,258.36,0,8.79,7.13,15.92,15.92,15.92h507.73c8.79,0,15.92-7.13,15.92-15.92,0-121.79-81.14-224.94-192.18-258.36Z"/>
              <path d="m882.19,769.55c48.1-27.19,80.67-78.78,80.67-137.86,0-87.28-71.01-158.28-158.28-158.28s-158.28,71-158.28,158.28c0,59.08,32.56,110.68,80.67,137.86-111.04,33.42-192.17,136.57-192.17,258.36,0,8.79,7.13,15.92,15.92,15.92h507.73c8.79,0,15.92-7.13,15.92-15.92,0-121.79-81.14-224.94-192.18-258.36Z"/>
              <path d="m879.69,767.05c48.1-27.19,80.67-78.78,80.67-137.86,0-87.28-71.01-158.28-158.28-158.28s-158.28,71-158.28,158.28c0,59.08,32.56,110.68,80.67,137.86-111.04,33.42-192.17,136.57-192.17,258.36,0,8.79,7.13,15.92,15.92,15.92h507.73c8.79,0,15.92-7.13,15.92-15.92,0-121.79-81.14-224.94-192.18-258.36Z"/>
              <path d="m877.19,764.55c48.1-27.19,80.67-78.78,80.67-137.86,0-87.28-71.01-158.28-158.28-158.28s-158.28,71-158.28,158.28c0,59.08,32.56,110.68,80.67,137.86-111.04,33.42-192.17,136.57-192.17,258.36,0,8.79,7.13,15.92,15.92,15.92h507.73c8.79,0,15.92-7.13,15.92-15.92,0-121.79-81.14-224.94-192.18-258.36Z"/>
              <path d="m874.69,762.05c48.1-27.19,80.67-78.78,80.67-137.86,0-87.28-71.01-158.28-158.28-158.28s-158.28,71-158.28,158.28c0,59.08,32.56,110.68,80.67,137.86-111.04,33.42-192.17,136.57-192.17,258.36,0,8.79,7.13,15.92,15.92,15.92h507.73c8.79,0,15.92-7.13,15.92-15.92,0-121.79-81.14-224.94-192.18-258.36Z"/>
              <path d="m872.19,759.55c48.1-27.19,80.67-78.78,80.67-137.86,0-87.28-71.01-158.28-158.28-158.28s-158.28,71-158.28,158.28c0,59.08,32.56,110.68,80.67,137.86-111.04,33.42-192.17,136.57-192.17,258.36,0,8.79,7.13,15.92,15.92,15.92h507.73c8.79,0,15.92-7.13,15.92-15.92,0-121.79-81.14-224.94-192.18-258.36Z"/>
              <path d="m869.69,757.05c48.1-27.19,80.67-78.78,80.67-137.86,0-87.28-71.01-158.28-158.28-158.28s-158.28,71-158.28,158.28c0,59.08,32.56,110.68,80.67,137.86-111.04,33.42-192.17,136.57-192.17,258.36,0,8.79,7.13,15.92,15.92,15.92h507.73c8.79,0,15.92-7.13,15.92-15.92,0-121.79-81.14-224.94-192.18-258.36Z"/>
              <path d="m867.19,754.55c48.1-27.19,80.67-78.78,80.67-137.86,0-87.28-71.01-158.28-158.28-158.28s-158.28,71-158.28,158.28c0,59.08,32.56,110.68,80.67,137.86-111.04,33.42-192.17,136.57-192.17,258.36,0,8.79,7.13,15.92,15.92,15.92h507.73c8.79,0,15.92-7.13,15.92-15.92,0-121.79-81.14-224.94-192.18-258.36Z"/>
              <path d="m864.69,752.05c48.1-27.19,80.67-78.78,80.67-137.86,0-87.28-71.01-158.28-158.28-158.28s-158.28,71-158.28,158.28c0,59.08,32.56,110.68,80.67,137.86-111.04,33.42-192.17,136.57-192.17,258.36,0,8.79,7.13,15.92,15.92,15.92h507.73c8.79,0,15.92-7.13,15.92-15.92,0-121.79-81.14-224.94-192.18-258.36Z"/>
              <path d="m862.19,749.55c48.1-27.19,80.67-78.78,80.67-137.86,0-87.28-71.01-158.28-158.28-158.28s-158.28,71-158.28,158.28c0,59.08,32.56,110.68,80.67,137.86-111.04,33.42-192.17,136.57-192.17,258.36,0,8.79,7.13,15.92,15.92,15.92h507.73c8.79,0,15.92-7.13,15.92-15.92,0-121.79-81.14-224.94-192.18-258.36Z"/>
              <path d="m859.69,747.05c48.1-27.19,80.67-78.78,80.67-137.86,0-87.28-71.01-158.28-158.28-158.28s-158.28,71-158.28,158.28c0,59.08,32.56,110.68,80.67,137.86-111.04,33.42-192.17,136.57-192.17,258.36,0,8.79,7.13,15.92,15.92,15.92h507.73c8.79,0,15.92-7.13,15.92-15.92,0-121.79-81.14-224.94-192.18-258.36Z"/>
              <path d="m857.19,744.55c48.1-27.19,80.67-78.78,80.67-137.86,0-87.28-71.01-158.28-158.28-158.28s-158.28,71-158.28,158.28c0,59.08,32.56,110.68,80.67,137.86-111.04,33.42-192.17,136.57-192.17,258.36,0,8.79,7.13,15.92,15.92,15.92h507.73c8.79,0,15.92-7.13,15.92-15.92,0-121.79-81.14-224.94-192.18-258.36Z"/>
              <path d="m854.69,742.05c48.1-27.19,80.67-78.78,80.67-137.86,0-87.28-71.01-158.28-158.28-158.28s-158.28,71-158.28,158.28c0,59.08,32.56,110.68,80.67,137.86-111.04,33.42-192.17,136.57-192.17,258.36,0,8.79,7.13,15.92,15.92,15.92h507.73c8.79,0,15.92-7.13,15.92-15.92,0-121.79-81.14-224.94-192.18-258.36Z"/>
              <path d="m852.19,739.55c48.1-27.19,80.67-78.78,80.67-137.86,0-87.28-71.01-158.28-158.28-158.28s-158.28,71-158.28,158.28c0,59.08,32.56,110.68,80.67,137.86-111.04,33.42-192.17,136.57-192.17,258.36,0,8.79,7.13,15.92,15.92,15.92h507.73c8.79,0,15.92-7.13,15.92-15.92,0-121.79-81.14-224.94-192.18-258.36Z"/>
              <path d="m849.69,737.05c48.1-27.19,80.67-78.78,80.67-137.86,0-87.28-71.01-158.28-158.28-158.28s-158.28,71-158.28,158.28c0,59.08,32.56,110.68,80.67,137.86-111.04,33.42-192.17,136.57-192.17,258.36,0,8.79,7.13,15.92,15.92,15.92h507.73c8.79,0,15.92-7.13,15.92-15.92,0-121.79-81.14-224.94-192.18-258.36Z"/>
              <path d="m847.19,734.55c48.1-27.19,80.67-78.78,80.67-137.86,0-87.28-71.01-158.28-158.28-158.28s-158.28,71-158.28,158.28c0,59.08,32.56,110.68,80.67,137.86-111.04,33.42-192.17,136.57-192.17,258.36,0,8.79,7.13,15.92,15.92,15.92h507.73c8.79,0,15.92-7.13,15.92-15.92,0-121.79-81.14-224.94-192.18-258.36Z"/>
              <path d="m844.69,732.05c48.1-27.19,80.67-78.78,80.67-137.86,0-87.28-71.01-158.28-158.28-158.28s-158.28,71-158.28,158.28c0,59.08,32.56,110.68,80.67,137.86-111.04,33.42-192.17,136.57-192.17,258.36,0,8.79,7.13,15.92,15.92,15.92h507.73c8.79,0,15.92-7.13,15.92-15.92,0-121.79-81.14-224.94-192.18-258.36Z"/>
              <path d="m842.19,729.55c48.1-27.19,80.67-78.78,80.67-137.86,0-87.28-71.01-158.28-158.28-158.28s-158.28,71-158.28,158.28c0,59.08,32.56,110.68,80.67,137.86-111.04,33.42-192.17,136.57-192.17,258.36,0,8.79,7.13,15.92,15.92,15.92h507.73c8.79,0,15.92-7.13,15.92-15.92,0-121.79-81.14-224.94-192.18-258.36Z"/>
              <path d="m839.69,727.05c48.1-27.19,80.67-78.78,80.67-137.86,0-87.28-71.01-158.28-158.28-158.28s-158.28,71-158.28,158.28c0,59.08,32.56,110.68,80.67,137.86-111.04,33.42-192.17,136.57-192.17,258.36,0,8.79,7.13,15.92,15.92,15.92h507.73c8.79,0,15.92-7.13,15.92-15.92,0-121.79-81.14-224.94-192.18-258.36Z"/>
              <path d="m837.19,724.55c48.1-27.19,80.67-78.78,80.67-137.86,0-87.28-71.01-158.28-158.28-158.28s-158.28,71-158.28,158.28c0,59.08,32.56,110.68,80.67,137.86-111.04,33.42-192.17,136.57-192.17,258.36,0,8.79,7.13,15.92,15.92,15.92h507.73c8.79,0,15.92-7.13,15.92-15.92,0-121.79-81.14-224.94-192.18-258.36Z"/>
              <path d="m834.69,722.05c48.1-27.19,80.67-78.78,80.67-137.86,0-87.28-71.01-158.28-158.28-158.28s-158.28,71-158.28,158.28c0,59.08,32.56,110.68,80.67,137.86-111.04,33.42-192.17,136.57-192.17,258.36,0,8.79,7.13,15.92,15.92,15.92h507.73c8.79,0,15.92-7.13,15.92-15.92,0-121.79-81.14-224.94-192.18-258.36Z"/>
              <path d="m832.19,719.55c48.1-27.19,80.67-78.78,80.67-137.86,0-87.28-71.01-158.28-158.28-158.28s-158.28,71-158.28,158.28c0,59.08,32.56,110.68,80.67,137.86-111.04,33.42-192.17,136.57-192.17,258.36,0,8.79,7.13,15.92,15.92,15.92h507.73c8.79,0,15.92-7.13,15.92-15.92,0-121.79-81.14-224.94-192.18-258.36Z"/>
              <path d="m829.69,717.05c48.1-27.19,80.67-78.78,80.67-137.86,0-87.28-71.01-158.28-158.28-158.28s-158.28,71-158.28,158.28c0,59.08,32.56,110.68,80.67,137.86-111.04,33.42-192.17,136.57-192.17,258.36,0,8.79,7.13,15.92,15.92,15.92h507.73c8.79,0,15.92-7.13,15.92-15.92,0-121.79-81.14-224.94-192.18-258.36Z"/>
              <path d="m827.19,714.55c48.1-27.19,80.67-78.78,80.67-137.86,0-87.28-71.01-158.28-158.28-158.28s-158.28,71-158.28,158.28c0,59.08,32.56,110.68,80.67,137.86-111.04,33.42-192.17,136.57-192.17,258.36,0,8.79,7.13,15.92,15.92,15.92h507.73c8.79,0,15.92-7.13,15.92-15.92,0-121.79-81.14-224.94-192.18-258.36Z"/>
              <path d="m824.69,712.05c48.1-27.19,80.67-78.78,80.67-137.86,0-87.28-71.01-158.28-158.28-158.28s-158.28,71-158.28,158.28c0,59.08,32.56,110.68,80.67,137.86-111.04,33.42-192.17,136.57-192.17,258.36,0,8.79,7.13,15.92,15.92,15.92h507.73c8.79,0,15.92-7.13,15.92-15.92,0-121.79-81.14-224.94-192.18-258.36Z"/>
              <path d="m822.19,709.55c48.1-27.19,80.67-78.78,80.67-137.86,0-87.28-71.01-158.28-158.28-158.28s-158.28,71-158.28,158.28c0,59.08,32.56,110.68,80.67,137.86-111.04,33.42-192.17,136.57-192.17,258.36,0,8.79,7.13,15.92,15.92,15.92h507.73c8.79,0,15.92-7.13,15.92-15.92,0-121.79-81.14-224.94-192.18-258.36Z"/>
              <path d="m819.69,707.05c48.1-27.19,80.67-78.78,80.67-137.86,0-87.28-71.01-158.28-158.28-158.28s-158.28,71-158.28,158.28c0,59.08,32.56,110.68,80.67,137.86-111.04,33.42-192.17,136.57-192.17,258.36,0,8.79,7.13,15.92,15.92,15.92h507.73c8.79,0,15.92-7.13,15.92-15.92,0-121.79-81.14-224.94-192.18-258.36Z"/>
              <path d="m817.19,704.55c48.1-27.19,80.67-78.78,80.67-137.86,0-87.28-71.01-158.28-158.28-158.28s-158.28,71-158.28,158.28c0,59.08,32.56,110.68,80.67,137.86-111.04,33.42-192.17,136.57-192.17,258.36,0,8.79,7.13,15.92,15.92,15.92h507.73c8.79,0,15.92-7.13,15.92-15.92,0-121.79-81.14-224.94-192.18-258.36Z"/>
              <path d="m814.69,702.05c48.1-27.19,80.67-78.78,80.67-137.86,0-87.28-71.01-158.28-158.28-158.28s-158.28,71-158.28,158.28c0,59.08,32.56,110.68,80.67,137.86-111.04,33.42-192.17,136.57-192.17,258.36,0,8.79,7.13,15.92,15.92,15.92h507.73c8.79,0,15.92-7.13,15.92-15.92,0-121.79-81.14-224.94-192.18-258.36Z"/>
              <path d="m812.19,699.55c48.1-27.19,80.67-78.78,80.67-137.86,0-87.28-71.01-158.28-158.28-158.28s-158.28,71-158.28,158.28c0,59.08,32.56,110.68,80.67,137.86-111.04,33.42-192.17,136.57-192.17,258.36,0,8.79,7.13,15.92,15.92,15.92h507.73c8.79,0,15.92-7.13,15.92-15.92,0-121.79-81.14-224.94-192.18-258.36Z"/>
              <path d="m809.69,697.05c48.1-27.19,80.67-78.78,80.67-137.86,0-87.28-71.01-158.28-158.28-158.28s-158.28,71-158.28,158.28c0,59.08,32.56,110.68,80.67,137.86-111.04,33.42-192.17,136.57-192.17,258.36,0,8.79,7.13,15.92,15.92,15.92h507.73c8.79,0,15.92-7.13,15.92-15.92,0-121.79-81.14-224.94-192.18-258.36Z"/>
              <path d="m807.19,694.55c48.1-27.19,80.67-78.78,80.67-137.86,0-87.28-71.01-158.28-158.28-158.28s-158.28,71-158.28,158.28c0,59.08,32.56,110.68,80.67,137.86-111.04,33.42-192.17,136.57-192.17,258.36,0,8.79,7.13,15.92,15.92,15.92h507.73c8.79,0,15.92-7.13,15.92-15.92,0-121.79-81.14-224.94-192.18-258.36Z"/>
              <path d="m804.69,692.05c48.1-27.19,80.67-78.78,80.67-137.86,0-87.28-71.01-158.28-158.28-158.28s-158.28,71-158.28,158.28c0,59.08,32.56,110.68,80.67,137.86-111.04,33.42-192.17,136.57-192.17,258.36,0,8.79,7.13,15.92,15.92,15.92h507.73c8.79,0,15.92-7.13,15.92-15.92,0-121.79-81.14-224.94-192.18-258.36Z"/>
              <path d="m802.19,689.55c48.1-27.19,80.67-78.78,80.67-137.86,0-87.28-71.01-158.28-158.28-158.28s-158.28,71-158.28,158.28c0,59.08,32.56,110.68,80.67,137.86-111.04,33.42-192.17,136.57-192.17,258.36,0,8.79,7.13,15.92,15.92,15.92h507.73c8.79,0,15.92-7.13,15.92-15.92,0-121.79-81.14-224.94-192.18-258.36Z"/>
              <path d="m799.69,687.05c48.1-27.19,80.67-78.78,80.67-137.86,0-87.28-71.01-158.28-158.28-158.28s-158.28,71-158.28,158.28c0,59.08,32.56,110.68,80.67,137.86-111.04,33.42-192.17,136.57-192.17,258.36,0,8.79,7.13,15.92,15.92,15.92h507.73c8.79,0,15.92-7.13,15.92-15.92,0-121.79-81.14-224.94-192.18-258.36Z"/>
              <path d="m797.19,684.55c48.1-27.19,80.67-78.78,80.67-137.86,0-87.28-71.01-158.28-158.28-158.28s-158.28,71-158.28,158.28c0,59.08,32.56,110.68,80.67,137.86-111.04,33.42-192.17,136.57-192.17,258.36,0,8.79,7.13,15.92,15.92,15.92h507.73c8.79,0,15.92-7.13,15.92-15.92,0-121.79-81.14-224.94-192.18-258.36Z"/>
              <path d="m794.69,682.05c48.1-27.19,80.67-78.78,80.67-137.86,0-87.28-71.01-158.28-158.28-158.28s-158.28,71-158.28,158.28c0,59.08,32.56,110.68,80.67,137.86-111.04,33.42-192.17,136.57-192.17,258.36,0,8.79,7.13,15.92,15.92,15.92h507.73c8.79,0,15.92-7.13,15.92-15.92,0-121.79-81.14-224.94-192.18-258.36Z"/>
              <path d="m792.19,679.55c48.1-27.19,80.67-78.78,80.67-137.86,0-87.28-71.01-158.28-158.28-158.28s-158.28,71-158.28,158.28c0,59.08,32.56,110.68,80.67,137.86-111.04,33.42-192.17,136.57-192.17,258.36,0,8.79,7.13,15.92,15.92,15.92h507.73c8.79,0,15.92-7.13,15.92-15.92,0-121.79-81.14-224.94-192.18-258.36Z"/>
              <path d="m789.69,677.05c48.1-27.19,80.67-78.78,80.67-137.86,0-87.28-71.01-158.28-158.28-158.28s-158.28,71-158.28,158.28c0,59.08,32.56,110.68,80.67,137.86-111.04,33.42-192.17,136.57-192.17,258.36,0,8.79,7.13,15.92,15.92,15.92h507.73c8.79,0,15.92-7.13,15.92-15.92,0-121.79-81.14-224.94-192.18-258.36Z"/>
              <path d="m787.19,674.55c48.1-27.19,80.67-78.78,80.67-137.86,0-87.28-71.01-158.28-158.28-158.28s-158.28,71-158.28,158.28c0,59.08,32.56,110.68,80.67,137.86-111.04,33.42-192.17,136.57-192.17,258.36,0,8.79,7.13,15.92,15.92,15.92h507.73c8.79,0,15.92-7.13,15.92-15.92,0-121.79-81.14-224.94-192.18-258.36Z"/>
              <path d="m784.69,672.05c48.1-27.19,80.67-78.78,80.67-137.86,0-87.28-71.01-158.28-158.28-158.28s-158.28,71-158.28,158.28c0,59.08,32.56,110.68,80.67,137.86-111.04,33.42-192.17,136.57-192.17,258.36,0,8.79,7.13,15.92,15.92,15.92h507.73c8.79,0,15.92-7.13,15.92-15.92,0-121.79-81.14-224.94-192.18-258.36Z"/>
              <path d="m782.19,669.55c48.1-27.19,80.67-78.78,80.67-137.86,0-87.28-71.01-158.28-158.28-158.28s-158.28,71-158.28,158.28c0,59.08,32.56,110.68,80.67,137.86-111.04,33.42-192.17,136.57-192.17,258.36,0,8.79,7.13,15.92,15.92,15.92h507.73c8.79,0,15.92-7.13,15.92-15.92,0-121.79-81.14-224.94-192.18-258.36Z"/>
              <path d="m779.69,667.05c48.1-27.19,80.67-78.78,80.67-137.86,0-87.28-71.01-158.28-158.28-158.28s-158.28,71-158.28,158.28c0,59.08,32.56,110.68,80.67,137.86-111.04,33.42-192.17,136.57-192.17,258.36,0,8.79,7.13,15.92,15.92,15.92h507.73c8.79,0,15.92-7.13,15.92-15.92,0-121.79-81.14-224.94-192.18-258.36Z"/>
              <path d="m777.19,664.55c48.1-27.19,80.67-78.78,80.67-137.86,0-87.28-71.01-158.28-158.28-158.28s-158.28,71-158.28,158.28c0,59.08,32.56,110.68,80.67,137.86-111.04,33.42-192.17,136.57-192.17,258.36,0,8.79,7.13,15.92,15.92,15.92h507.73c8.79,0,15.92-7.13,15.92-15.92,0-121.79-81.14-224.94-192.18-258.36Z"/>
              <path d="m774.69,662.05c48.1-27.19,80.67-78.78,80.67-137.86,0-87.28-71.01-158.28-158.28-158.28s-158.28,71-158.28,158.28c0,59.08,32.56,110.68,80.67,137.86-111.04,33.42-192.17,136.57-192.17,258.36,0,8.79,7.13,15.92,15.92,15.92h507.73c8.79,0,15.92-7.13,15.92-15.92,0-121.79-81.14-224.94-192.18-258.36Z"/>
              <path d="m772.19,659.55c48.1-27.19,80.67-78.78,80.67-137.86,0-87.28-71.01-158.28-158.28-158.28s-158.28,71-158.28,158.28c0,59.08,32.56,110.68,80.67,137.86-111.04,33.42-192.17,136.57-192.17,258.36,0,8.79,7.13,15.92,15.92,15.92h507.73c8.79,0,15.92-7.13,15.92-15.92,0-121.79-81.14-224.94-192.18-258.36Z"/>
              <path d="m769.69,657.05c48.1-27.19,80.67-78.78,80.67-137.86,0-87.28-71.01-158.28-158.28-158.28s-158.28,71-158.28,158.28c0,59.08,32.56,110.68,80.67,137.86-111.04,33.42-192.17,136.57-192.17,258.36,0,8.79,7.13,15.92,15.92,15.92h507.73c8.79,0,15.92-7.13,15.92-15.92,0-121.79-81.14-224.94-192.18-258.36Z"/>
              <path d="m767.19,654.55c48.1-27.19,80.67-78.78,80.67-137.86,0-87.28-71.01-158.28-158.28-158.28s-158.28,71-158.28,158.28c0,59.08,32.56,110.68,80.67,137.86-111.04,33.42-192.17,136.57-192.17,258.36,0,8.79,7.13,15.92,15.92,15.92h507.73c8.79,0,15.92-7.13,15.92-15.92,0-121.79-81.14-224.94-192.18-258.36Z"/>
              <path d="m764.69,652.05c48.1-27.19,80.67-78.78,80.67-137.86,0-87.28-71.01-158.28-158.28-158.28s-158.28,71-158.28,158.28c0,59.08,32.56,110.68,80.67,137.86-111.04,33.42-192.17,136.57-192.17,258.36,0,8.79,7.13,15.92,15.92,15.92h507.73c8.79,0,15.92-7.13,15.92-15.92,0-121.79-81.14-224.94-192.18-258.36Z"/>
              <path d="m762.19,649.55c48.1-27.19,80.67-78.78,80.67-137.86,0-87.28-71.01-158.28-158.28-158.28s-158.28,71-158.28,158.28c0,59.08,32.56,110.68,80.67,137.86-111.04,33.42-192.17,136.57-192.17,258.36,0,8.79,7.13,15.92,15.92,15.92h507.73c8.79,0,15.92-7.13,15.92-15.92,0-121.79-81.14-224.94-192.18-258.36Z"/>
              <path d="m759.69,647.05c48.1-27.19,80.67-78.78,80.67-137.86,0-87.28-71.01-158.28-158.28-158.28s-158.28,71-158.28,158.28c0,59.08,32.56,110.68,80.67,137.86-111.04,33.42-192.17,136.57-192.17,258.36,0,8.79,7.13,15.92,15.92,15.92h507.73c8.79,0,15.92-7.13,15.92-15.92,0-121.79-81.14-224.94-192.18-258.36Z"/>
              <path d="m757.19,644.55c48.1-27.19,80.67-78.78,80.67-137.86,0-87.28-71.01-158.28-158.28-158.28s-158.28,71-158.28,158.28c0,59.08,32.56,110.68,80.67,137.86-111.04,33.42-192.17,136.57-192.17,258.36,0,8.79,7.13,15.92,15.92,15.92h507.73c8.79,0,15.92-7.13,15.92-15.92,0-121.79-81.14-224.94-192.18-258.36Z"/>
              <path d="m754.69,642.05c48.1-27.19,80.67-78.78,80.67-137.86,0-87.28-71.01-158.28-158.28-158.28s-158.28,71-158.28,158.28c0,59.08,32.56,110.68,80.67,137.86-111.04,33.42-192.17,136.57-192.17,258.36,0,8.79,7.13,15.92,15.92,15.92h507.73c8.79,0,15.92-7.13,15.92-15.92,0-121.79-81.14-224.94-192.18-258.36Z"/>
              <path d="m752.19,639.55c48.1-27.19,80.67-78.78,80.67-137.86,0-87.28-71.01-158.28-158.28-158.28s-158.28,71-158.28,158.28c0,59.08,32.56,110.68,80.67,137.86-111.04,33.42-192.17,136.57-192.17,258.36,0,8.79,7.13,15.92,15.92,15.92h507.73c8.79,0,15.92-7.13,15.92-15.92,0-121.79-81.14-224.94-192.18-258.36Z"/>
              <path d="m749.69,637.05c48.1-27.19,80.67-78.78,80.67-137.86,0-87.28-71.01-158.28-158.28-158.28s-158.28,71-158.28,158.28c0,59.08,32.56,110.68,80.67,137.86-111.04,33.42-192.17,136.57-192.17,258.36,0,8.79,7.13,15.92,15.92,15.92h507.73c8.79,0,15.92-7.13,15.92-15.92,0-121.79-81.14-224.94-192.18-258.36Z"/>
              <path d="m747.19,634.55c48.1-27.19,80.67-78.78,80.67-137.86,0-87.28-71.01-158.28-158.28-158.28s-158.28,71-158.28,158.28c0,59.08,32.56,110.68,80.67,137.86-111.04,33.42-192.17,136.57-192.17,258.36,0,8.79,7.13,15.92,15.92,15.92h507.73c8.79,0,15.92-7.13,15.92-15.92,0-121.79-81.14-224.94-192.18-258.36Z"/>
              <path d="m744.69,632.05c48.1-27.19,80.67-78.78,80.67-137.86,0-87.28-71.01-158.28-158.28-158.28s-158.28,71-158.28,158.28c0,59.08,32.56,110.68,80.67,137.86-111.04,33.42-192.17,136.57-192.17,258.36,0,8.79,7.13,15.92,15.92,15.92h507.73c8.79,0,15.92-7.13,15.92-15.92,0-121.79-81.14-224.94-192.18-258.36Z"/>
              <path d="m742.19,629.55c48.1-27.19,80.67-78.78,80.67-137.86,0-87.28-71.01-158.28-158.28-158.28s-158.28,71-158.28,158.28c0,59.08,32.56,110.68,80.67,137.86-111.04,33.42-192.17,136.57-192.17,258.36,0,8.79,7.13,15.92,15.92,15.92h507.73c8.79,0,15.92-7.13,15.92-15.92,0-121.79-81.14-224.94-192.18-258.36Z"/>
              <path d="m739.69,627.05c48.1-27.19,80.67-78.78,80.67-137.86,0-87.28-71.01-158.28-158.28-158.28s-158.28,71-158.28,158.28c0,59.08,32.56,110.68,80.67,137.86-111.04,33.42-192.17,136.57-192.17,258.36,0,8.79,7.13,15.92,15.92,15.92h507.73c8.79,0,15.92-7.13,15.92-15.92,0-121.79-81.14-224.94-192.18-258.36Z"/>
              <path d="m737.19,624.55c48.1-27.19,80.67-78.78,80.67-137.86,0-87.28-71.01-158.28-158.28-158.28s-158.28,71-158.28,158.28c0,59.08,32.56,110.68,80.67,137.86-111.04,33.42-192.17,136.57-192.17,258.36,0,8.79,7.13,15.92,15.92,15.92h507.73c8.79,0,15.92-7.13,15.92-15.92,0-121.79-81.14-224.94-192.18-258.36Z"/>
              <path d="m734.69,622.05c48.1-27.19,80.67-78.78,80.67-137.86,0-87.28-71.01-158.28-158.28-158.28s-158.28,71-158.28,158.28c0,59.08,32.56,110.68,80.67,137.86-111.04,33.42-192.17,136.57-192.17,258.36,0,8.79,7.13,15.92,15.92,15.92h507.73c8.79,0,15.92-7.13,15.92-15.92,0-121.79-81.14-224.94-192.18-258.36Z"/>
              <path d="m732.19,619.55c48.1-27.19,80.67-78.78,80.67-137.86,0-87.28-71.01-158.28-158.28-158.28s-158.28,71-158.28,158.28c0,59.08,32.56,110.68,80.67,137.86-111.04,33.42-192.17,136.57-192.17,258.36,0,8.79,7.13,15.92,15.92,15.92h507.73c8.79,0,15.92-7.13,15.92-15.92,0-121.79-81.14-224.94-192.18-258.36Z"/>
              <path d="m729.69,617.05c48.1-27.19,80.67-78.78,80.67-137.86,0-87.28-71.01-158.28-158.28-158.28s-158.28,71-158.28,158.28c0,59.08,32.56,110.68,80.67,137.86-111.04,33.42-192.17,136.57-192.17,258.36,0,8.79,7.13,15.92,15.92,15.92h507.73c8.79,0,15.92-7.13,15.92-15.92,0-121.79-81.14-224.94-192.18-258.36Z"/>
              <path d="m727.19,614.55c48.1-27.19,80.67-78.78,80.67-137.86,0-87.28-71.01-158.28-158.28-158.28s-158.28,71-158.28,158.28c0,59.08,32.56,110.68,80.67,137.86-111.04,33.42-192.17,136.57-192.17,258.36,0,8.79,7.13,15.92,15.92,15.92h507.73c8.79,0,15.92-7.13,15.92-15.92,0-121.79-81.14-224.94-192.18-258.36Z"/>
              <path d="m724.69,612.05c48.1-27.19,80.67-78.78,80.67-137.86,0-87.28-71.01-158.28-158.28-158.28s-158.28,71-158.28,158.28c0,59.08,32.56,110.68,80.67,137.86-111.04,33.42-192.17,136.57-192.17,258.36,0,8.79,7.13,15.92,15.92,15.92h507.73c8.79,0,15.92-7.13,15.92-15.92,0-121.79-81.14-224.94-192.18-258.36Z"/>
              <path d="m722.19,609.55c48.1-27.19,80.67-78.78,80.67-137.86,0-87.28-71.01-158.28-158.28-158.28s-158.28,71-158.28,158.28c0,59.08,32.56,110.68,80.67,137.86-111.04,33.42-192.17,136.57-192.17,258.36,0,8.79,7.13,15.92,15.92,15.92h507.73c8.79,0,15.92-7.13,15.92-15.92,0-121.79-81.14-224.94-192.18-258.36Z"/>
              <path d="m719.69,607.05c48.1-27.19,80.67-78.78,80.67-137.86,0-87.28-71.01-158.28-158.28-158.28s-158.28,71-158.28,158.28c0,59.08,32.56,110.68,80.67,137.86-111.04,33.42-192.17,136.57-192.17,258.36,0,8.79,7.13,15.92,15.92,15.92h507.73c8.79,0,15.92-7.13,15.92-15.92,0-121.79-81.14-224.94-192.18-258.36Z"/>
              <path d="m717.19,604.55c48.1-27.19,80.67-78.78,80.67-137.86,0-87.28-71.01-158.28-158.28-158.28s-158.28,71-158.28,158.28c0,59.08,32.56,110.68,80.67,137.86-111.04,33.42-192.17,136.57-192.17,258.36,0,8.79,7.13,15.92,15.92,15.92h507.73c8.79,0,15.92-7.13,15.92-15.92,0-121.79-81.14-224.94-192.18-258.36Z"/>
              <path d="m714.69,602.05c48.1-27.19,80.67-78.78,80.67-137.86,0-87.28-71.01-158.28-158.28-158.28s-158.28,71-158.28,158.28c0,59.08,32.56,110.68,80.67,137.86-111.04,33.42-192.17,136.57-192.17,258.36,0,8.79,7.13,15.92,15.92,15.92h507.73c8.79,0,15.92-7.13,15.92-15.92,0-121.79-81.14-224.94-192.18-258.36Z"/>
              <path d="m712.19,599.55c48.1-27.19,80.67-78.78,80.67-137.86,0-87.28-71.01-158.28-158.28-158.28s-158.28,71-158.28,158.28c0,59.08,32.56,110.68,80.67,137.86-111.04,33.42-192.17,136.57-192.17,258.36,0,8.79,7.13,15.92,15.92,15.92h507.73c8.79,0,15.92-7.13,15.92-15.92,0-121.79-81.14-224.94-192.18-258.36Z"/>
              <path d="m709.69,597.05c48.1-27.19,80.67-78.78,80.67-137.86,0-87.28-71.01-158.28-158.28-158.28s-158.28,71-158.28,158.28c0,59.08,32.56,110.68,80.67,137.86-111.04,33.42-192.17,136.57-192.17,258.36,0,8.79,7.13,15.92,15.92,15.92h507.73c8.79,0,15.92-7.13,15.92-15.92,0-121.79-81.14-224.94-192.18-258.36Z"/>
              <path d="m707.19,594.55c48.1-27.19,80.67-78.78,80.67-137.86,0-87.28-71.01-158.28-158.28-158.28s-158.28,71-158.28,158.28c0,59.08,32.56,110.68,80.67,137.86-111.04,33.42-192.17,136.57-192.17,258.36,0,8.79,7.13,15.92,15.92,15.92h507.73c8.79,0,15.92-7.13,15.92-15.92,0-121.79-81.14-224.94-192.18-258.36Z"/>
              <path d="m704.69,592.05c48.1-27.19,80.67-78.78,80.67-137.86,0-87.28-71.01-158.28-158.28-158.28s-158.28,71-158.28,158.28c0,59.08,32.56,110.68,80.67,137.86-111.04,33.42-192.17,136.57-192.17,258.36,0,8.79,7.13,15.92,15.92,15.92h507.73c8.79,0,15.92-7.13,15.92-15.92,0-121.79-81.14-224.94-192.18-258.36Z"/>
              <path d="m702.19,589.55c48.1-27.19,80.67-78.78,80.67-137.86,0-87.28-71.01-158.28-158.28-158.28s-158.28,71-158.28,158.28c0,59.08,32.56,110.68,80.67,137.86-111.04,33.42-192.17,136.57-192.17,258.36,0,8.79,7.13,15.92,15.92,15.92h507.73c8.79,0,15.92-7.13,15.92-15.92,0-121.79-81.14-224.94-192.18-258.36Z"/>
              <path d="m699.69,587.05c48.1-27.19,80.67-78.78,80.67-137.86,0-87.28-71.01-158.28-158.28-158.28s-158.28,71-158.28,158.28c0,59.08,32.56,110.68,80.67,137.86-111.04,33.42-192.17,136.57-192.17,258.36,0,8.79,7.13,15.92,15.92,15.92h507.73c8.79,0,15.92-7.13,15.92-15.92,0-121.79-81.14-224.94-192.18-258.36Z"/>
              <path d="m697.19,584.55c48.1-27.19,80.67-78.78,80.67-137.86,0-87.28-71.01-158.28-158.28-158.28s-158.28,71-158.28,158.28c0,59.08,32.56,110.68,80.67,137.86-111.04,33.42-192.17,136.57-192.17,258.36,0,8.79,7.13,15.92,15.92,15.92h507.73c8.79,0,15.92-7.13,15.92-15.92,0-121.79-81.14-224.94-192.18-258.36Z"/>
              <path d="m694.69,582.05c48.1-27.19,80.67-78.78,80.67-137.86,0-87.28-71.01-158.28-158.28-158.28s-158.28,71-158.28,158.28c0,59.08,32.56,110.68,80.67,137.86-111.04,33.42-192.17,136.57-192.17,258.36,0,8.79,7.13,15.92,15.92,15.92h507.73c8.79,0,15.92-7.13,15.92-15.92,0-121.79-81.14-224.94-192.18-258.36Z"/>
              <path d="m692.19,579.55c48.1-27.19,80.67-78.78,80.67-137.86,0-87.28-71.01-158.28-158.28-158.28s-158.28,71-158.28,158.28c0,59.08,32.56,110.68,80.67,137.86-111.04,33.42-192.17,136.57-192.17,258.36,0,8.79,7.13,15.92,15.92,15.92h507.73c8.79,0,15.92-7.13,15.92-15.92,0-121.79-81.14-224.94-192.18-258.36Z"/>
              <path d="m689.69,577.05c48.1-27.19,80.67-78.78,80.67-137.86,0-87.28-71.01-158.28-158.28-158.28s-158.28,71-158.28,158.28c0,59.08,32.56,110.68,80.67,137.86-111.04,33.42-192.17,136.57-192.17,258.36,0,8.79,7.13,15.92,15.92,15.92h507.73c8.79,0,15.92-7.13,15.92-15.92,0-121.79-81.14-224.94-192.18-258.36Z"/>
              <path d="m687.19,574.55c48.1-27.19,80.67-78.78,80.67-137.86,0-87.28-71.01-158.28-158.28-158.28s-158.28,71-158.28,158.28c0,59.08,32.56,110.68,80.67,137.86-111.04,33.42-192.17,136.57-192.17,258.36,0,8.79,7.13,15.92,15.92,15.92h507.73c8.79,0,15.92-7.13,15.92-15.92,0-121.79-81.14-224.94-192.18-258.36Z"/>
              <path d="m684.69,572.05c48.1-27.19,80.67-78.78,80.67-137.86,0-87.28-71.01-158.28-158.28-158.28s-158.28,71-158.28,158.28c0,59.08,32.56,110.68,80.67,137.86-111.04,33.42-192.17,136.57-192.17,258.36,0,8.79,7.13,15.92,15.92,15.92h507.73c8.79,0,15.92-7.13,15.92-15.92,0-121.79-81.14-224.94-192.18-258.36Z"/>
              <path d="m682.19,569.55c48.1-27.19,80.67-78.78,80.67-137.86,0-87.28-71.01-158.28-158.28-158.28s-158.28,71-158.28,158.28c0,59.08,32.56,110.68,80.67,137.86-111.04,33.42-192.17,136.57-192.17,258.36,0,8.79,7.13,15.92,15.92,15.92h507.73c8.79,0,15.92-7.13,15.92-15.92,0-121.79-81.14-224.94-192.18-258.36Z"/>
              <path d="m679.69,567.05c48.1-27.19,80.67-78.78,80.67-137.86,0-87.28-71.01-158.28-158.28-158.28s-158.28,71-158.28,158.28c0,59.08,32.56,110.68,80.67,137.86-111.04,33.42-192.17,136.57-192.17,258.36,0,8.79,7.13,15.92,15.92,15.92h507.73c8.79,0,15.92-7.13,15.92-15.92,0-121.79-81.14-224.94-192.18-258.36Z"/>
              <path d="m677.19,564.55c48.1-27.19,80.67-78.78,80.67-137.86,0-87.28-71.01-158.28-158.28-158.28s-158.28,71-158.28,158.28c0,59.08,32.56,110.68,80.67,137.86-111.04,33.42-192.17,136.57-192.17,258.36,0,8.79,7.13,15.92,15.92,15.92h507.73c8.79,0,15.92-7.13,15.92-15.92,0-121.79-81.14-224.94-192.18-258.36Z"/>
              <path d="m674.69,562.05c48.1-27.19,80.67-78.78,80.67-137.86,0-87.28-71.01-158.28-158.28-158.28s-158.28,71-158.28,158.28c0,59.08,32.56,110.68,80.67,137.86-111.04,33.42-192.17,136.57-192.17,258.36,0,8.79,7.13,15.92,15.92,15.92h507.73c8.79,0,15.92-7.13,15.92-15.92,0-121.79-81.14-224.94-192.18-258.36Z"/>
              <path d="m672.19,559.55c48.1-27.19,80.67-78.78,80.67-137.86,0-87.28-71.01-158.28-158.28-158.28s-158.28,71-158.28,158.28c0,59.08,32.56,110.68,80.67,137.86-111.04,33.42-192.17,136.57-192.17,258.36,0,8.79,7.13,15.92,15.92,15.92h507.73c8.79,0,15.92-7.13,15.92-15.92,0-121.79-81.14-224.94-192.18-258.36Z"/>
              <path d="m669.69,557.05c48.1-27.19,80.67-78.78,80.67-137.86,0-87.28-71.01-158.28-158.28-158.28s-158.28,71-158.28,158.28c0,59.08,32.56,110.68,80.67,137.86-111.04,33.42-192.17,136.57-192.17,258.36,0,8.79,7.13,15.92,15.92,15.92h507.73c8.79,0,15.92-7.13,15.92-15.92,0-121.79-81.14-224.94-192.18-258.36Z"/>
              <path d="m667.19,554.55c48.1-27.19,80.67-78.78,80.67-137.86,0-87.28-71.01-158.28-158.28-158.28s-158.28,71-158.28,158.28c0,59.08,32.56,110.68,80.67,137.86-111.04,33.42-192.17,136.57-192.17,258.36,0,8.79,7.13,15.92,15.92,15.92h507.73c8.79,0,15.92-7.13,15.92-15.92,0-121.79-81.14-224.94-192.18-258.36Z"/>
              <path d="m664.69,552.05c48.1-27.19,80.67-78.78,80.67-137.86,0-87.28-71.01-158.28-158.28-158.28s-158.28,71-158.28,158.28c0,59.08,32.56,110.68,80.67,137.86-111.04,33.42-192.17,136.57-192.17,258.36,0,8.79,7.13,15.92,15.92,15.92h507.73c8.79,0,15.92-7.13,15.92-15.92,0-121.79-81.14-224.94-192.18-258.36Z"/>
              <path d="m662.19,549.55c48.1-27.19,80.67-78.78,80.67-137.86,0-87.28-71.01-158.28-158.28-158.28s-158.28,71-158.28,158.28c0,59.08,32.56,110.68,80.67,137.86-111.04,33.42-192.17,136.57-192.17,258.36,0,8.79,7.13,15.92,15.92,15.92h507.73c8.79,0,15.92-7.13,15.92-15.92,0-121.79-81.14-224.94-192.18-258.36Z"/>
              <path d="m659.69,547.05c48.1-27.19,80.67-78.78,80.67-137.86,0-87.28-71.01-158.28-158.28-158.28s-158.28,71-158.28,158.28c0,59.08,32.56,110.68,80.67,137.86-111.04,33.42-192.17,136.57-192.17,258.36,0,8.79,7.13,15.92,15.92,15.92h507.73c8.79,0,15.92-7.13,15.92-15.92,0-121.79-81.14-224.94-192.18-258.36Z"/>
              <path d="m657.19,544.55c48.1-27.19,80.67-78.78,80.67-137.86,0-87.28-71.01-158.28-158.28-158.28s-158.28,71-158.28,158.28c0,59.08,32.56,110.68,80.67,137.86-111.04,33.42-192.17,136.57-192.17,258.36,0,8.79,7.13,15.92,15.92,15.92h507.73c8.79,0,15.92-7.13,15.92-15.92,0-121.79-81.14-224.94-192.18-258.36Z"/>
              <path d="m654.69,542.05c48.1-27.19,80.67-78.78,80.67-137.86,0-87.28-71.01-158.28-158.28-158.28s-158.28,71-158.28,158.28c0,59.08,32.56,110.68,80.67,137.86-111.04,33.42-192.17,136.57-192.17,258.36,0,8.79,7.13,15.92,15.92,15.92h507.73c8.79,0,15.92-7.13,15.92-15.92,0-121.79-81.14-224.94-192.18-258.36Z"/>
              <path d="m652.19,539.55c48.1-27.19,80.67-78.78,80.67-137.86,0-87.28-71.01-158.28-158.28-158.28s-158.28,71-158.28,158.28c0,59.08,32.56,110.68,80.67,137.86-111.04,33.42-192.17,136.57-192.17,258.36,0,8.79,7.13,15.92,15.92,15.92h507.73c8.79,0,15.92-7.13,15.92-15.92,0-121.79-81.14-224.94-192.18-258.36Z"/>
              <path d="m649.69,537.05c48.1-27.19,80.67-78.78,80.67-137.86,0-87.28-71.01-158.28-158.28-158.28s-158.28,71-158.28,158.28c0,59.08,32.56,110.68,80.67,137.86-111.04,33.42-192.17,136.57-192.17,258.36,0,8.79,7.13,15.92,15.92,15.92h507.73c8.79,0,15.92-7.13,15.92-15.92,0-121.79-81.14-224.94-192.18-258.36Z"/>
              <path d="m647.19,534.55c48.1-27.19,80.67-78.78,80.67-137.86,0-87.28-71.01-158.28-158.28-158.28s-158.28,71-158.28,158.28c0,59.08,32.56,110.68,80.67,137.86-111.04,33.42-192.17,136.57-192.17,258.36,0,8.79,7.13,15.92,15.92,15.92h507.73c8.79,0,15.92-7.13,15.92-15.92,0-121.79-81.14-224.94-192.18-258.36Z"/>
              <path d="m644.69,532.05c48.1-27.19,80.67-78.78,80.67-137.86,0-87.28-71.01-158.28-158.28-158.28s-158.28,71-158.28,158.28c0,59.08,32.56,110.68,80.67,137.86-111.04,33.42-192.17,136.57-192.17,258.36,0,8.79,7.13,15.92,15.92,15.92h507.73c8.79,0,15.92-7.13,15.92-15.92,0-121.79-81.14-224.94-192.18-258.36Z"/>
              <path d="m642.19,529.55c48.1-27.19,80.67-78.78,80.67-137.86,0-87.28-71.01-158.28-158.28-158.28s-158.28,71-158.28,158.28c0,59.08,32.56,110.68,80.67,137.86-111.04,33.42-192.17,136.57-192.17,258.36,0,8.79,7.13,15.92,15.92,15.92h507.73c8.79,0,15.92-7.13,15.92-15.92,0-121.79-81.14-224.94-192.18-258.36Z"/>
              <path d="m639.69,527.05c48.1-27.19,80.67-78.78,80.67-137.86,0-87.28-71.01-158.28-158.28-158.28s-158.28,71-158.28,158.28c0,59.08,32.56,110.68,80.67,137.86-111.04,33.42-192.17,136.57-192.17,258.36,0,8.79,7.13,15.92,15.92,15.92h507.73c8.79,0,15.92-7.13,15.92-15.92,0-121.79-81.14-224.94-192.18-258.36Z"/>
              <path d="m637.19,524.55c48.1-27.19,80.67-78.78,80.67-137.86,0-87.28-71.01-158.28-158.28-158.28s-158.28,71-158.28,158.28c0,59.08,32.56,110.68,80.67,137.86-111.04,33.42-192.17,136.57-192.17,258.36,0,8.79,7.13,15.92,15.92,15.92h507.73c8.79,0,15.92-7.13,15.92-15.92,0-121.79-81.14-224.94-192.18-258.36Z"/>
              <path d="m634.69,522.05c48.1-27.19,80.67-78.78,80.67-137.86,0-87.28-71.01-158.28-158.28-158.28s-158.28,71-158.28,158.28c0,59.08,32.56,110.68,80.67,137.86-111.04,33.42-192.17,136.57-192.17,258.36,0,8.79,7.13,15.92,15.92,15.92h507.73c8.79,0,15.92-7.13,15.92-15.92,0-121.79-81.14-224.94-192.18-258.36Z"/>
              <path d="m632.19,519.55c48.1-27.19,80.67-78.78,80.67-137.86,0-87.28-71.01-158.28-158.28-158.28s-158.28,71-158.28,158.28c0,59.08,32.56,110.68,80.67,137.86-111.04,33.42-192.17,136.57-192.17,258.36,0,8.79,7.13,15.92,15.92,15.92h507.73c8.79,0,15.92-7.13,15.92-15.92,0-121.79-81.14-224.94-192.18-258.36Z"/>
              <path d="m629.69,517.05c48.1-27.19,80.67-78.78,80.67-137.86,0-87.28-71.01-158.28-158.28-158.28s-158.28,71-158.28,158.28c0,59.08,32.56,110.68,80.67,137.86-111.04,33.42-192.17,136.57-192.17,258.36,0,8.79,7.13,15.92,15.92,15.92h507.73c8.79,0,15.92-7.13,15.92-15.92,0-121.79-81.14-224.94-192.18-258.36Z"/>
              <path d="m627.19,514.55c48.1-27.19,80.67-78.78,80.67-137.86,0-87.28-71.01-158.28-158.28-158.28s-158.28,71-158.28,158.28c0,59.08,32.56,110.68,80.67,137.86-111.04,33.42-192.17,136.57-192.17,258.36,0,8.79,7.13,15.92,15.92,15.92h507.73c8.79,0,15.92-7.13,15.92-15.92,0-121.79-81.14-224.94-192.18-258.36Z"/>
              <path d="m624.69,512.05c48.1-27.19,80.67-78.78,80.67-137.86,0-87.28-71.01-158.28-158.28-158.28s-158.28,71-158.28,158.28c0,59.08,32.56,110.68,80.67,137.86-111.04,33.42-192.17,136.57-192.17,258.36,0,8.79,7.13,15.92,15.92,15.92h507.73c8.79,0,15.92-7.13,15.92-15.92,0-121.79-81.14-224.94-192.18-258.36Z"/>
              <path d="m622.19,509.55c48.1-27.19,80.67-78.78,80.67-137.86,0-87.28-71.01-158.28-158.28-158.28s-158.28,71-158.28,158.28c0,59.08,32.56,110.68,80.67,137.86-111.04,33.42-192.17,136.57-192.17,258.36,0,8.79,7.13,15.92,15.92,15.92h507.73c8.79,0,15.92-7.13,15.92-15.92,0-121.79-81.14-224.94-192.18-258.36Z"/>
            </g>
          </g>
          <path class="cls-1" d="m622.19,509.55c48.1-27.19,80.67-78.78,80.67-137.86,0-87.28-71.01-158.28-158.28-158.28s-158.28,71-158.28,158.28c0,59.08,32.56,110.68,80.67,137.86-111.04,33.42-192.17,136.57-192.17,258.36,0,8.79,7.13,15.92,15.92,15.92h507.73c8.79,0,15.92-7.13,15.92-15.92,0-121.79-81.14-224.94-192.18-258.36Z"/>
        </g>
      </g>
    </g>
  </g>
</svg>