<?xml version="1.0" encoding="UTF-8"?>
<svg id="Layer_2" data-name="Layer 2" xmlns="http://www.w3.org/2000/svg" viewBox="0 0 727.8 153.75">
  <defs>
    <style>
      .cls-1 {
        fill: #072654;
      }

      .cls-2 {
        fill: #3395ff;
      }
    </style>
  </defs>
  <g id="Layer_1-2" data-name="Layer 1">
    <polyline class="cls-2" points="46.8 40.42 40.75 62.68 75.38 40.29 52.73 124.79 75.73 124.81 109.19 0"/>
    <path class="cls-1" d="m9.53,89.29L0,124.81h47.14l19.29-72.26L9.53,89.29m163.76-31.27c-1.15,4.28-3.37,7.43-6.68,9.44-3.3,2.01-7.94,3.01-13.92,3.01h-19.01l6.67-24.89h19.01c5.98,0,10.08,1,12.31,3.03,2.23,2.04,2.77,5.15,1.62,9.45m19.69-.54c2.42-8.99,1.42-15.9-3-20.74-4.42-4.8-12.17-7.22-23.23-7.22h-42.43l-25.54,95.3h20.61l10.29-38.41h13.52c3.04,0,5.42.5,7.17,1.46,1.75,1,2.77,2.73,3.09,5.22l3.68,31.73h22.09l-3.58-29.58c-.73-6.61-3.75-10.49-9.07-11.64,6.77-1.96,12.45-5.22,17.02-9.76,4.54-4.5,7.78-10.14,9.39-16.32m50.11,33.19c-1.73,6.45-4.38,11.33-7.96,14.75-3.59,3.42-7.87,5.11-12.88,5.11s-8.55-1.65-10.37-4.99c-1.83-3.34-1.89-8.18-.19-14.52,1.7-6.34,4.41-11.29,8.13-14.86,3.73-3.57,8.08-5.36,13.08-5.36s8.41,1.73,10.14,5.16c1.77,3.44,1.8,8.37.08,14.79l-.03-.07Zm9.04-33.73l-2.58,9.64c-1.11-3.46-3.28-6.22-6.47-8.3-3.2-2.04-7.17-3.07-11.9-3.07-5.8,0-11.37,1.5-16.71,4.49-5.34,3-10.03,7.22-14.02,12.68-3.99,5.45-6.91,11.64-8.8,18.59-1.84,6.99-2.23,13.1-1.11,18.4,1.15,5.34,3.57,9.41,7.3,12.25,3.76,2.88,8.57,4.3,14.44,4.3,4.67.02,9.29-.99,13.52-2.96,4.19-1.89,7.91-4.67,10.91-8.14l-2.69,10.05h19.93l18.2-67.9h-19.97l-.06-.03Zm91.67,0h-57.98l-4.05,15.13h33.73l-44.6,38.53-3.81,14.21h59.85l4.05-15.13h-36.14l45.28-39.1m54.7,19.97c-1.79,6.68-4.46,11.71-7.97,14.98-3.52,3.3-7.77,4.96-12.77,4.96-10.45,0-13.88-6.65-10.32-19.94,1.77-6.61,4.44-11.57,8.01-14.92,3.57-3.36,7.9-5.03,12.99-5.03s8.37,1.66,10.1,5.01c1.74,3.34,1.72,8.32-.05,14.93m11.67-31.05c-4.59-2.86-10.45-4.29-17.59-4.29s-13.93,1.42-20.09,4.26c-6.14,2.82-11.53,7.04-15.75,12.32-4.34,5.34-7.46,11.6-9.38,18.74-1.88,7.12-2.11,13.37-.65,18.72,1.46,5.34,4.53,9.45,9.14,12.29,4.65,2.86,10.56,4.29,17.82,4.29s13.79-1.44,19.9-4.29c6.11-2.87,11.33-6.95,15.67-12.33,4.34-5.36,7.45-11.6,9.37-18.75,1.92-7.14,2.15-13.38.69-18.74-1.46-5.34-4.49-9.45-9.06-12.31m71.1,15.67l5.11-18.48c-1.73-.88-3.99-1.35-6.84-1.35-4.57,0-8.95,1.13-13.17,3.42-3.63,1.94-6.72,4.69-9.33,8.12l2.65-9.95-5.79.02h-14.21l-18.32,67.87h20.22l9.51-35.48c1.38-5.16,3.87-9.22,7.46-12.1,3.57-2.89,8.03-4.34,13.41-4.34,3.3,0,6.38.76,9.3,2.27m56.27,15.79c-1.73,6.34-4.34,11.18-7.91,14.52-3.57,3.36-7.87,5.03-12.87,5.03s-8.41-1.69-10.22-5.07c-1.84-3.4-1.88-8.3-.15-14.73,1.73-6.43,4.38-11.37,8.03-14.79,3.65-3.45,7.95-5.17,12.95-5.17s8.22,1.77,9.99,5.34c1.77,3.57,1.81,8.53.11,14.87m14.14-31.27c-3.74-3-8.53-4.5-14.33-4.5-5.08,0-9.93,1.15-14.52,3.48-4.59,2.32-8.32,5.49-11.18,9.5l.07-.46,3.39-10.79h-19.74l-5.03,18.78-.15.65-20.74,77.38h20.24l10.45-38.95c1.04,3.46,3.15,6.18,6.38,8.15,3.23,1.96,7.21,2.93,11.95,2.93,5.88,0,11.48-1.42,16.8-4.26,5.34-2.85,9.95-6.95,13.87-12.25,3.92-5.3,6.83-11.45,8.68-18.4,1.88-6.96,2.27-13.18,1.19-18.61-1.09-5.44-3.52-9.66-7.26-12.64m67.08,30.98c-1.73,6.41-4.38,11.33-7.95,14.71-3.57,3.4-7.87,5.1-12.87,5.1s-8.57-1.65-10.37-4.99c-1.84-3.34-1.88-8.18-.19-14.52,1.69-6.34,4.39-11.29,8.11-14.86,3.73-3.57,8.09-5.35,13.09-5.35s8.37,1.73,10.14,5.15c1.77,3.43,1.78,8.36.06,14.79h-.02Zm9.03-33.74l-2.59,9.64c-1.11-3.48-3.27-6.24-6.45-8.3-3.23-2.05-7.18-3.07-11.91-3.07-5.8,0-11.4,1.5-16.75,4.49-5.34,3-10.03,7.2-14.02,12.64-3.99,5.44-6.91,11.64-8.8,18.59-1.86,6.98-2.23,13.1-1.11,18.42,1.12,5.3,3.55,9.39,7.3,12.25,3.74,2.84,8.57,4.28,14.44,4.28,4.72,0,9.24-.98,13.52-2.96,4.17-1.9,7.89-4.68,10.88-8.15l-2.69,10.06h19.93l18.2-67.87h-19.94l-.03-.02Zm103.66.02v-.02s-12.24,0-12.24,0c-.39,0-.74.02-1.1.03h-6.36l-3.26,4.53-.81,1.08-.35.54-25.83,35.98-5.34-42.14h-21.16l10.72,64.03-23.66,32.76h21.09l5.72-8.12c.16-.24.31-.44.5-.69l6.68-9.49.19-.27,29.93-42.44,25.24-35.72.04-.02h-.01v-.04Z"/>
  </g>
</svg>