<svg width="40" height="40" viewBox="0 0 40 40" fill="none" xmlns="http://www.w3.org/2000/svg">
<path fill-rule="evenodd" clip-rule="evenodd" d="M9.99813 1.47574L7.14453 3.12324C10.1908 4.88199 13.237 6.64074 16.2832 8.39949V12.5549L13.633 14.085V9.92965L4.49422 4.6534L1.64062 6.3009C1.39219 6.44434 1.25 6.69059 1.25 6.97746V16.6279C1.25 16.9148 1.39219 17.1611 1.64062 17.3045L9.99813 22.1296C10.2466 22.2731 10.5309 22.2731 10.7793 22.1296L19.1368 17.3045C19.3852 17.1611 19.5274 16.9148 19.5274 16.6279V6.97746C19.5274 6.69059 19.3852 6.44434 19.1368 6.3009L10.7793 1.47574C10.5309 1.3323 10.2466 1.3323 9.99813 1.47574ZM13.0916 30.174L13.2722 28.4788L17.3891 32.2307L12.5252 35.4929L12.6988 33.8632C6.46578 33.1996 3.3632 27.6618 5.21625 23.9847C5.80266 27.9922 10.8977 29.9404 13.0916 30.174ZM26.9084 9.82637L26.7279 11.5216L22.6109 7.76965L27.4748 4.50746L27.3013 6.13715C33.5344 6.80082 36.637 12.3386 34.7839 16.0157C34.1973 12.0082 29.1023 10.06 26.9084 9.82637ZM29.2206 17.8707L26.367 19.5182C29.4133 21.277 32.4595 23.0357 35.5057 24.7945V28.9499L32.8555 30.48V26.3247L23.7168 21.0484L20.8631 22.6959C20.6147 22.8393 20.4725 23.0856 20.4725 23.3725V33.0229C20.4725 33.3098 20.6147 33.5561 20.8631 33.6995L29.2206 38.5247C29.4691 38.6681 29.7534 38.6681 30.0018 38.5247L38.3593 33.6995C38.6077 33.5561 38.7499 33.3098 38.7499 33.0229V23.3725C38.7499 23.0856 38.6077 22.8393 38.3593 22.6959L30.0018 17.8707C29.7534 17.7274 29.4691 17.7273 29.2206 17.8707Z" fill="#214CDB"/>
</svg>
