<svg width="1345" height="25" viewBox="0 0 1345 25" fill="none" xmlns="http://www.w3.org/2000/svg">
<g clip-path="url(#clip0_268_2127)">
<rect width="1342.74" height="24.0942" transform="matrix(1 0 -0.0722408 0.997387 1.74023 0)" fill="#214CDB"/>
<path d="M-81.9087 5.07371C-80.5407 5.07371 -79.5903 5.37292 -79.0577 5.97135C-78.6586 6.42616 -78.4842 7.00066 -78.5345 7.69484C-78.5519 7.93421 -78.5941 8.18555 -78.6611 8.44886L-79.0146 9.8492C-79.2149 10.6272 -79.5124 11.2555 -79.9071 11.7343C-80.2898 12.213 -80.7045 12.5541 -81.1512 12.7576L-79.8929 17.9998H-83.5289L-84.6911 13.1705H-85.8071L-86.8949 17.9998H-90.3509L-87.1287 5.07371H-81.9087ZM-83.2455 7.87437H-84.5955L-85.2898 10.9982H-84.0298C-83.3938 10.9982 -82.9269 10.8486 -82.6293 10.5494C-82.3307 10.2382 -82.1633 9.83124 -82.1269 9.32856C-82.0566 8.3591 -82.4295 7.87437 -83.2455 7.87437ZM-69.5024 17.9998H-78.5384L-75.3162 5.07371H-66.2802L-66.987 7.87437H-72.783L-73.3726 10.298H-68.5846L-69.2914 13.0987H-74.0794L-74.5916 15.1992H-68.7956L-69.5024 17.9998ZM-63.7245 14.3195C-63.7843 15.1453 -63.2202 15.5582 -62.0322 15.5582C-60.8322 15.5582 -60.2053 15.1872 -60.1516 14.4452C-60.123 14.0502 -60.3036 13.727 -60.6934 13.4757C-61.0831 13.2244 -61.566 13.0149 -62.1418 12.8473C-62.7057 12.6798 -63.2738 12.4883 -63.8462 12.2728C-64.4058 12.0454 -64.8726 11.6984 -65.2468 11.2316C-65.6201 10.7528 -65.7812 10.1604 -65.7301 9.45423C-65.5125 6.4501 -63.4657 4.94803 -59.5897 4.94803C-58.1737 4.94803 -57.1252 5.21733 -56.4442 5.75592C-55.7504 6.28254 -55.4377 7.01861 -55.5062 7.96413C-55.5313 8.31123 -55.6036 8.64635 -55.723 8.9695C-55.8295 9.28069 -55.9355 9.50211 -56.0411 9.63376L-56.2007 9.8492H-59.3867C-59.1027 9.57392 -58.9456 9.22683 -58.9153 8.80792C-58.8589 8.02996 -59.3407 7.64098 -60.3607 7.64098C-61.6447 7.64098 -62.3162 8.04792 -62.3752 8.86178C-62.4046 9.26872 -62.224 9.59187 -61.8334 9.83124C-61.4427 10.0706 -60.9646 10.2621 -60.399 10.4057C-59.8205 10.5374 -59.2447 10.705 -58.6714 10.9084C-58.0981 11.1119 -57.6248 11.453 -57.2515 11.9317C-56.8773 12.3985 -56.7175 13.0089 -56.7722 13.7629C-56.8823 15.283 -57.4202 16.414 -58.3859 17.1561C-59.3508 17.8861 -60.7812 18.2512 -62.6772 18.2512C-64.5732 18.2512 -65.845 17.9161 -66.4924 17.2458C-66.972 16.7431 -67.1797 16.049 -67.1156 15.1633C-67.0913 14.8282 -67.0289 14.4631 -66.9283 14.0681L-66.8535 13.7809H-63.6135L-63.6651 13.9963C-63.6977 14.116 -63.7175 14.2237 -63.7245 14.3195ZM-42.1898 7.87437H-46.6178L-49.1332 17.9998H-52.3912L-49.8758 7.87437H-54.3218L-53.6149 5.07371H-41.4829L-42.1898 7.87437ZM-35.2766 4.94803C-32.3846 4.94803 -31.024 6.12695 -31.1948 8.48477C-31.2234 8.87974 -31.2962 9.30462 -31.4131 9.75943L-32.3032 13.35C-32.7117 15.0137 -33.425 16.2464 -34.443 17.0483C-35.4611 17.8502 -36.8402 18.2512 -38.5802 18.2512C-40.3202 18.2512 -41.5031 17.8502 -42.129 17.0483C-42.5572 16.4978 -42.7361 15.7378 -42.6659 14.7683C-42.6347 14.3374 -42.5524 13.8647 -42.4192 13.35L-41.5291 9.75943C-40.7328 6.55183 -38.6486 4.94803 -35.2766 4.94803ZM-37.8926 15.4685C-37.2926 15.4685 -36.8013 15.3129 -36.4188 15.0017C-36.0363 14.6905 -35.7427 14.116 -35.538 13.2782L-34.6763 9.83124C-34.623 9.59187 -34.5894 9.37643 -34.5755 9.18494C-34.5053 8.21548 -34.9622 7.73075 -35.9462 7.73075C-37.1839 7.75468 -37.9726 8.45485 -38.3123 9.83124L-39.174 13.2782C-39.2436 13.5774 -39.2902 13.8886 -39.3136 14.2118C-39.3743 15.0496 -38.9006 15.4685 -37.8926 15.4685ZM-22.8286 5.07371C-21.4606 5.07371 -20.5103 5.37292 -19.9776 5.97135C-19.5786 6.42616 -19.4042 7.00066 -19.4544 7.69484C-19.4718 7.93421 -19.514 8.18555 -19.5811 8.44886L-19.9345 9.8492C-20.1348 10.6272 -20.4323 11.2555 -20.827 11.7343C-21.2097 12.213 -21.6244 12.5541 -22.0711 12.7576L-20.8128 17.9998H-24.4488L-25.611 13.1705H-26.727L-27.8148 17.9998H-31.2708L-28.0486 5.07371L-22.8286 5.07371ZM-24.1654 7.87437H-25.5154L-26.2097 10.9982H-24.9497C-24.3137 10.9982 -23.8469 10.8486 -23.5492 10.5494C-23.2507 10.2382 -23.0832 9.83124 -23.0468 9.32856C-22.9766 8.3591 -23.3494 7.87437 -24.1654 7.87437ZM-13.0503 17.9998L-12.7382 15.1812H-15.7442L-16.8303 17.9998H-20.2683L-14.7061 5.07371H-8.76609L-9.63033 17.9998H-13.0503ZM-13.0797 8.21548L-14.8319 12.7755H-12.4739L-11.9457 8.21548H-13.0797ZM4.6032 7.87437H0.175195L-2.34019 17.9998H-5.59819L-3.08281 7.87437H-7.52881L-6.82195 5.07371H5.31005L4.6032 7.87437ZM10.0313 5.07371L6.82701 17.9998H3.56901L6.79125 5.07371H10.0313ZM17.3171 4.94803C20.2091 4.94803 21.5697 6.12695 21.399 8.48477C21.3704 8.87974 21.2976 9.30462 21.1806 9.75943L20.2906 13.35C19.8821 15.0137 19.1688 16.2464 18.1507 17.0483C17.1326 17.8502 15.7536 18.2512 14.0136 18.2512C12.2736 18.2512 11.0906 17.8502 10.4647 17.0483C10.0366 16.4978 9.85763 15.7378 9.92785 14.7683C9.95906 14.3374 10.0413 13.8647 10.1746 13.35L11.0646 9.75943C11.861 6.55183 13.9451 4.94803 17.3171 4.94803ZM14.7011 15.4685C15.3011 15.4685 15.7924 15.3129 16.1749 15.0017C16.5575 14.6905 16.8511 14.116 17.0558 13.2782L17.9174 9.83124C17.9708 9.59187 18.0044 9.37643 18.0183 9.18494C18.0885 8.21548 17.6316 7.73075 16.6476 7.73075C15.4098 7.75468 14.6211 8.45485 14.2814 9.83124L13.4198 13.2782C13.3501 13.5774 13.3036 13.8886 13.2802 14.2118C13.2195 15.0496 13.6931 15.4685 14.7011 15.4685ZM34.5352 5.07371L31.3309 17.9998H28.0729L26.3172 10.9264L24.5809 17.9998H21.3229L24.5452 5.07371H27.8932L29.6466 11.6804L31.2952 5.07371H34.5352ZM42.5897 18.2512C39.6857 18.2512 38.3065 17.2458 38.4522 15.2351C38.5233 14.2537 38.8513 13.4518 39.4364 12.8294C40.0344 12.1951 40.7293 11.8779 41.5213 11.8779L41.5252 11.824C40.9852 11.824 40.577 11.5787 40.3005 11.088C40.0241 10.5972 39.9088 10.0347 39.9548 9.40037C40.0493 8.09579 40.6304 7.03058 41.6982 6.20474C42.7669 5.36694 44.2013 4.94803 46.0013 4.94803C47.3933 4.94803 48.4242 5.21135 49.094 5.73797C49.7768 6.25262 50.0848 6.97074 50.018 7.89232C49.9937 8.22744 49.9228 8.54461 49.8051 8.84383C49.6994 9.14305 49.5938 9.35848 49.4883 9.49014L49.3313 9.66967H46.1453C46.4155 9.41833 46.5666 9.07123 46.5987 8.62839C46.642 8.02996 46.2017 7.73075 45.2777 7.73075C44.7017 7.73075 44.2164 7.88634 43.8219 8.19752C43.4282 8.49674 43.2149 8.87375 43.182 9.32856C43.149 9.78337 43.2666 10.1484 43.5347 10.4237C43.8027 10.699 44.1883 10.8426 44.6914 10.8546H50.2174L49.7157 12.8114H48.9237L48.6464 13.9066C48.2766 15.3667 47.5617 16.4559 46.5017 17.174C45.4537 17.8921 44.1497 18.2512 42.5897 18.2512ZM41.9051 14.2836C41.8799 14.6307 41.9851 14.9179 42.2207 15.1453C42.4571 15.3608 42.7853 15.4685 43.2053 15.4685C44.5373 15.4685 45.331 14.9478 45.5864 13.9066L45.8637 12.8114H43.8117C42.6117 12.8114 41.9762 13.3022 41.9051 14.2836ZM59.0638 18.2512C57.3478 18.2512 56.1867 17.8802 55.5804 17.1381C55.1626 16.6115 54.9879 15.8754 55.0564 14.9299C55.0858 14.523 55.1595 14.0861 55.2773 13.6193L56.3144 9.49014C57.0737 6.46207 59.1333 4.94803 62.4933 4.94803C63.8853 4.94803 64.9197 5.24725 65.5963 5.84568C66.2738 6.43215 66.5753 7.24003 66.5008 8.26933C66.4661 8.74808 66.3594 9.22683 66.1807 9.70557C66.0149 10.1723 65.8578 10.5194 65.7093 10.7468L65.4853 11.1059H62.2993C62.7283 10.6511 62.9731 10.0048 63.0338 9.16698C63.0658 8.72414 62.977 8.37705 62.7672 8.12571C62.5582 7.8624 62.2318 7.73075 61.7878 7.73075C60.5758 7.73075 59.8072 8.40099 59.4821 9.74148L58.5895 13.368C58.5069 13.6792 58.4548 13.9844 58.4332 14.2836C58.3759 15.0735 58.8213 15.4685 59.7693 15.4685C60.9093 15.4685 61.6397 14.8282 61.9605 13.5475H65.2005L65.0728 14.0681C64.3908 16.8568 62.3878 18.2512 59.0638 18.2512ZM75.1779 17.0663C74.1727 17.8562 72.8001 18.2512 71.0601 18.2512C69.3201 18.2512 68.1431 17.8502 67.5292 17.0483C67.0891 16.4978 66.9041 15.7378 66.9744 14.7683C67.0056 14.3374 67.0878 13.8647 67.2211 13.35L69.2785 5.07371H72.5185L70.4663 13.2782C70.3966 13.5774 70.3501 13.8886 70.3267 14.2118C70.266 15.0496 70.7396 15.4685 71.7476 15.4685C72.3476 15.4685 72.8389 15.3129 73.2214 15.0017C73.604 14.6905 73.8976 14.116 74.1023 13.2782L76.1545 5.07371H79.3945L77.3371 13.35C76.9157 15.0256 76.196 16.2644 75.1779 17.0663ZM82.3322 14.3195C82.2724 15.1453 82.8364 15.5582 84.0244 15.5582C85.2244 15.5582 85.8513 15.1872 85.9051 14.4452C85.9337 14.0502 85.7531 13.727 85.3633 13.4757C84.9735 13.2244 84.4907 13.0149 83.9148 12.8473C83.3509 12.6798 82.7828 12.4883 82.2104 12.2728C81.6509 12.0454 81.184 11.6984 80.8098 11.2316C80.4365 10.7528 80.2754 10.1604 80.3266 9.45423C80.5442 6.4501 82.5909 4.94803 86.4669 4.94803C87.8829 4.94803 88.9314 5.21733 89.6124 5.75592C90.3063 6.28254 90.619 7.01861 90.5505 7.96413C90.5254 8.31123 90.4531 8.64635 90.3337 8.9695C90.2271 9.28069 90.1211 9.50211 90.0156 9.63376L89.856 9.8492H86.67C86.9539 9.57392 87.111 9.22683 87.1414 8.80792C87.1977 8.02996 86.7159 7.64098 85.6959 7.64098C84.4119 7.64098 83.7404 8.04792 83.6815 8.86178C83.652 9.26872 83.8326 9.59187 84.2233 9.83124C84.6139 10.0706 85.092 10.2621 85.6576 10.4057C86.2361 10.5374 86.812 10.705 87.3852 10.9084C87.9585 11.1119 88.4318 11.453 88.8051 11.9317C89.1793 12.3985 89.3391 13.0089 89.2845 13.7629C89.1744 15.283 88.6365 16.414 87.6707 17.1561C86.7058 17.8861 85.2754 18.2512 83.3794 18.2512C81.4834 18.2512 80.2117 17.9161 79.5642 17.2458C79.0846 16.7431 78.8769 16.049 78.9411 15.1633C78.9653 14.8282 79.0278 14.4631 79.1284 14.0681L79.2032 13.7809H82.4432L82.3916 13.9963C82.3589 14.116 82.3391 14.2237 82.3322 14.3195ZM103.867 7.87437L99.4389 7.87437L96.9235 17.9998H93.6655L96.1809 7.87437H91.7349L92.4417 5.07371L104.574 5.07371L103.867 7.87437ZM110.78 4.94803C113.672 4.94803 115.033 6.12695 114.862 8.48477C114.833 8.87974 114.76 9.30462 114.644 9.75943L113.753 13.35C113.345 15.0137 112.632 16.2464 111.614 17.0483C110.596 17.8502 109.216 18.2512 107.476 18.2512C105.736 18.2512 104.554 17.8502 103.928 17.0483C103.499 16.4978 103.321 15.7378 103.391 14.7683C103.422 14.3374 103.504 13.8647 103.637 13.35L104.528 9.75943C105.324 6.55183 107.408 4.94803 110.78 4.94803ZM108.164 15.4685C108.764 15.4685 109.255 15.3129 109.638 15.0017C110.02 14.6905 110.314 14.116 110.519 13.2782L111.38 9.83124C111.434 9.59187 111.467 9.37643 111.481 9.18494C111.551 8.21548 111.094 7.73075 110.11 7.73075C108.873 7.75468 108.084 8.45485 107.744 9.83124L106.883 13.2782C106.813 13.5774 106.766 13.8886 106.743 14.2118C106.682 15.0496 107.156 15.4685 108.164 15.4685ZM121.392 5.07371L122.869 11.2675L127.458 5.07371H130.86L127.638 17.9998H124.38L126.204 10.7109L123.117 15.0556H120.759L119.85 10.7109L118.026 17.9998H114.786L118.008 5.07371H121.392ZM142.968 5.07371C144.336 5.07371 145.287 5.37292 145.819 5.97135C146.218 6.42616 146.393 7.00066 146.342 7.69484C146.325 7.93421 146.283 8.18555 146.216 8.44886L145.991 9.31061C145.81 9.99282 145.513 10.5254 145.102 10.9084C144.702 11.2914 144.358 11.4829 144.07 11.4829L144.042 11.6265C144.378 11.6265 144.706 11.8121 145.027 12.1831C145.348 12.5541 145.491 12.991 145.454 13.4936C145.44 13.6971 145.4 13.9126 145.336 14.14L145.187 14.6965C144.921 15.7258 144.4 16.5337 143.626 17.1201C142.863 17.7066 141.834 17.9998 140.538 17.9998H134.526L137.748 5.07371H142.968ZM140.794 12.7217H139.084L138.473 15.1992H140.183C140.207 15.1992 140.231 15.1992 140.255 15.1992C140.807 15.1992 141.254 15.0735 141.596 14.8222C141.939 14.5589 142.124 14.2417 142.151 13.8707C142.207 13.1047 141.754 12.7217 140.794 12.7217ZM141.631 7.87437H140.281L139.62 10.5494H140.952C142.104 10.5494 142.716 10.0467 142.789 9.04131C142.814 8.69422 142.726 8.41296 142.526 8.19752C142.338 7.98209 142.039 7.87437 141.631 7.87437ZM155.352 17.0663C154.347 17.8562 152.974 18.2512 151.234 18.2512C149.494 18.2512 148.317 17.8502 147.703 17.0483C147.263 16.4978 147.078 15.7378 147.148 14.7683C147.179 14.3374 147.262 13.8647 147.395 13.35L149.452 5.07371H152.692L150.64 13.2782C150.57 13.5774 150.524 13.8886 150.5 14.2118C150.44 15.0496 150.913 15.4685 151.921 15.4685C152.521 15.4685 153.013 15.3129 153.395 15.0017C153.778 14.6905 154.071 14.116 154.276 13.2782L156.328 5.07371H159.568L157.511 13.35C157.09 15.0256 156.37 16.2644 155.352 17.0663ZM165.264 5.07371L162.059 17.9998H158.801L162.024 5.07371H165.264ZM172.81 17.9998L164.602 17.9998L167.824 5.07371H171.064L168.549 15.1992H173.517L172.81 17.9998ZM182.515 5.07371C184.087 5.07371 185.18 5.46867 185.795 6.2586C186.244 6.85703 186.435 7.60507 186.37 8.50272C186.347 8.82588 186.292 9.16698 186.206 9.52604L185.214 13.5296C184.876 14.882 184.21 15.9652 183.215 16.779C182.22 17.5929 180.979 17.9998 179.491 17.9998H174.253L177.475 5.07371H182.515ZM181.178 7.87437H180.008L178.199 15.1992H179.909C180.473 15.1992 180.922 15.0496 181.256 14.7504C181.603 14.4392 181.861 13.9365 182.031 13.2423L182.766 10.298C182.834 10.0347 182.875 9.79534 182.89 9.5799C182.973 8.44288 182.402 7.87437 181.178 7.87437ZM189.998 14.3195C189.938 15.1453 190.502 15.5582 191.69 15.5582C192.89 15.5582 193.517 15.1872 193.571 14.4452C193.6 14.0502 193.419 13.727 193.029 13.4757C192.64 13.2244 192.157 13.0149 191.581 12.8473C191.017 12.6798 190.449 12.4883 189.876 12.2728C189.317 12.0454 188.85 11.6984 188.476 11.2316C188.103 10.7528 187.941 10.1604 187.993 9.45423C188.21 6.4501 190.257 4.94803 194.133 4.94803C195.549 4.94803 196.597 5.21733 197.278 5.75592C197.972 6.28254 198.285 7.01861 198.217 7.96413C198.191 8.31123 198.119 8.64635 198 8.9695C197.893 9.28069 197.787 9.50211 197.682 9.63376L197.522 9.8492H194.336C194.62 9.57392 194.777 9.22683 194.807 8.80792C194.864 8.02996 194.382 7.64098 193.362 7.64098C192.078 7.64098 191.406 8.04792 191.347 8.86178C191.318 9.26872 191.499 9.59187 191.889 9.83124C192.28 10.0706 192.758 10.2621 193.324 10.4057C193.902 10.5374 194.478 10.705 195.051 10.9084C195.625 11.1119 196.098 11.453 196.471 11.9317C196.845 12.3985 197.005 13.0089 196.95 13.7629C196.84 15.283 196.302 16.414 195.337 17.1561C194.372 17.8861 192.941 18.2512 191.045 18.2512C189.149 18.2512 187.878 17.9161 187.23 17.2458C186.751 16.7431 186.543 16.049 186.607 15.1633C186.631 14.8282 186.694 14.4631 186.794 14.0681L186.869 13.7809H190.109L190.058 13.9963C190.025 14.116 190.005 14.2237 189.998 14.3195Z" fill="white"/>
<path d="M227.091 5.07371C228.459 5.07371 229.41 5.37292 229.942 5.97135C230.341 6.42616 230.516 7.00066 230.465 7.69484C230.448 7.93421 230.406 8.18555 230.339 8.44886L229.985 9.8492C229.785 10.6272 229.488 11.2555 229.093 11.7343C228.71 12.213 228.296 12.5541 227.849 12.7576L229.107 17.9998H225.471L224.309 13.1705H223.193L222.105 17.9998H218.649L221.871 5.07371H227.091ZM225.754 7.87437H224.404L223.71 10.9982H224.97C225.606 10.9982 226.073 10.8486 226.371 10.5494C226.669 10.2382 226.837 9.83124 226.873 9.32856C226.943 8.3591 226.57 7.87437 225.754 7.87437ZM239.498 17.9998H230.462L233.684 5.07371H242.72L242.013 7.87437H236.217L235.627 10.298H240.415L239.709 13.0987H234.921L234.408 15.1992H240.204L239.498 17.9998ZM245.276 14.3195C245.216 15.1453 245.78 15.5582 246.968 15.5582C248.168 15.5582 248.795 15.1872 248.848 14.4452C248.877 14.0502 248.696 13.727 248.307 13.4757C247.917 13.2244 247.434 13.0149 246.858 12.8473C246.294 12.6798 245.726 12.4883 245.154 12.2728C244.594 12.0454 244.127 11.6984 243.753 11.2316C243.38 10.7528 243.219 10.1604 243.27 9.45423C243.488 6.4501 245.534 4.94803 249.41 4.94803C250.826 4.94803 251.875 5.21733 252.556 5.75592C253.25 6.28254 253.562 7.01861 253.494 7.96413C253.469 8.31123 253.396 8.64635 253.277 8.9695C253.17 9.28069 253.064 9.50211 252.959 9.63376L252.799 9.8492H249.613C249.897 9.57392 250.054 9.22683 250.085 8.80792C250.141 8.02996 249.659 7.64098 248.639 7.64098C247.355 7.64098 246.684 8.04792 246.625 8.86178C246.595 9.26872 246.776 9.59187 247.167 9.83124C247.557 10.0706 248.035 10.2621 248.601 10.4057C249.179 10.5374 249.755 10.705 250.329 10.9084C250.902 11.1119 251.375 11.453 251.748 11.9317C252.123 12.3985 252.282 13.0089 252.228 13.7629C252.118 15.283 251.58 16.414 250.614 17.1561C249.649 17.8861 248.219 18.2512 246.323 18.2512C244.427 18.2512 243.155 17.9161 242.508 17.2458C242.028 16.7431 241.82 16.049 241.884 15.1633C241.909 14.8282 241.971 14.4631 242.072 14.0681L242.147 13.7809H245.387L245.335 13.9963C245.302 14.116 245.282 14.2237 245.276 14.3195ZM266.81 7.87437H262.382L259.867 17.9998H256.609L259.124 7.87437H254.678L255.385 5.07371H267.517L266.81 7.87437ZM273.723 4.94803C276.615 4.94803 277.976 6.12695 277.805 8.48477C277.777 8.87974 277.704 9.30462 277.587 9.75943L276.697 13.35C276.288 15.0137 275.575 16.2464 274.557 17.0483C273.539 17.8502 272.16 18.2512 270.42 18.2512C268.68 18.2512 267.497 17.8502 266.871 17.0483C266.443 16.4978 266.264 15.7378 266.334 14.7683C266.365 14.3374 266.448 13.8647 266.581 13.35L267.471 9.75943C268.267 6.55183 270.351 4.94803 273.723 4.94803ZM271.107 15.4685C271.707 15.4685 272.199 15.3129 272.581 15.0017C272.964 14.6905 273.257 14.116 273.462 13.2782L274.324 9.83124C274.377 9.59187 274.411 9.37643 274.425 9.18494C274.495 8.21548 274.038 7.73075 273.054 7.73075C271.816 7.75468 271.027 8.45485 270.688 9.83124L269.826 13.2782C269.756 13.5774 269.71 13.8886 269.686 14.2118C269.626 15.0496 270.099 15.4685 271.107 15.4685ZM286.171 5.07371C287.539 5.07371 288.49 5.37292 289.022 5.97135C289.421 6.42616 289.596 7.00066 289.546 7.69484C289.528 7.93421 289.486 8.18555 289.419 8.44886L289.066 9.8492C288.865 10.6272 288.568 11.2555 288.173 11.7343C287.79 12.213 287.376 12.5541 286.929 12.7576L288.187 17.9998H284.551L283.389 13.1705H282.273L281.185 17.9998H277.729L280.951 5.07371L286.171 5.07371ZM284.835 7.87437H283.485L282.79 10.9982H284.05C284.686 10.9982 285.153 10.8486 285.451 10.5494C285.749 10.2382 285.917 9.83124 285.953 9.32856C286.023 8.3591 285.651 7.87437 284.835 7.87437ZM295.95 17.9998L296.262 15.1812H293.256L292.17 17.9998H288.732L294.294 5.07371H300.234L299.37 17.9998H295.95ZM295.92 8.21548L294.168 12.7755H296.526L297.054 8.21548H295.92ZM313.603 7.87437H309.175L306.66 17.9998H303.402L305.917 7.87437H301.471L302.178 5.07371H314.31L313.603 7.87437ZM319.031 5.07371L315.827 17.9998H312.569L315.791 5.07371H319.031ZM326.317 4.94803C329.209 4.94803 330.57 6.12695 330.399 8.48477C330.37 8.87974 330.298 9.30462 330.181 9.75943L329.291 13.35C328.882 15.0137 328.169 16.2464 327.151 17.0483C326.133 17.8502 324.754 18.2512 323.014 18.2512C321.274 18.2512 320.091 17.8502 319.465 17.0483C319.037 16.4978 318.858 15.7378 318.928 14.7683C318.959 14.3374 319.041 13.8647 319.175 13.35L320.065 9.75943C320.861 6.55183 322.945 4.94803 326.317 4.94803ZM323.701 15.4685C324.301 15.4685 324.792 15.3129 325.175 15.0017C325.557 14.6905 325.851 14.116 326.056 13.2782L326.917 9.83124C326.971 9.59187 327.004 9.37643 327.018 9.18494C327.088 8.21548 326.632 7.73075 325.648 7.73075C324.41 7.75468 323.621 8.45485 323.281 9.83124L322.42 13.2782C322.35 13.5774 322.304 13.8886 322.28 14.2118C322.219 15.0496 322.693 15.4685 323.701 15.4685ZM343.535 5.07371L340.331 17.9998H337.073L335.317 10.9264L333.581 17.9998H330.323L333.545 5.07371H336.893L338.647 11.6804L340.295 5.07371H343.535ZM351.59 18.2512C348.686 18.2512 347.307 17.2458 347.452 15.2351C347.523 14.2537 347.851 13.4518 348.436 12.8294C349.034 12.1951 349.729 11.8779 350.521 11.8779L350.525 11.824C349.985 11.824 349.577 11.5787 349.301 11.088C349.024 10.5972 348.909 10.0347 348.955 9.40037C349.049 8.09579 349.63 7.03058 350.698 6.20474C351.767 5.36694 353.201 4.94803 355.001 4.94803C356.393 4.94803 357.424 5.21135 358.094 5.73797C358.777 6.25262 359.085 6.97074 359.018 7.89232C358.994 8.22744 358.923 8.54461 358.805 8.84383C358.699 9.14305 358.594 9.35848 358.488 9.49014L358.331 9.66967H355.145C355.415 9.41833 355.567 9.07123 355.599 8.62839C355.642 8.02996 355.202 7.73075 354.278 7.73075C353.702 7.73075 353.216 7.88634 352.822 8.19752C352.428 8.49674 352.215 8.87375 352.182 9.32856C352.149 9.78337 352.267 10.1484 352.535 10.4237C352.803 10.699 353.188 10.8426 353.691 10.8546H359.217L358.716 12.8114H357.924L357.646 13.9066C357.277 15.3667 356.562 16.4559 355.502 17.174C354.454 17.8921 353.15 18.2512 351.59 18.2512ZM350.905 14.2836C350.88 14.6307 350.985 14.9179 351.221 15.1453C351.457 15.3608 351.785 15.4685 352.205 15.4685C353.537 15.4685 354.331 14.9478 354.586 13.9066L354.864 12.8114H352.812C351.612 12.8114 350.976 13.3022 350.905 14.2836ZM368.064 18.2512C366.348 18.2512 365.187 17.8802 364.58 17.1381C364.163 16.6115 363.988 15.8754 364.056 14.9299C364.086 14.523 364.159 14.0861 364.277 13.6193L365.314 9.49014C366.074 6.46207 368.133 4.94803 371.493 4.94803C372.885 4.94803 373.92 5.24725 374.596 5.84568C375.274 6.43215 375.575 7.24003 375.501 8.26933C375.466 8.74808 375.359 9.22683 375.181 9.70557C375.015 10.1723 374.858 10.5194 374.709 10.7468L374.485 11.1059H371.299C371.728 10.6511 371.973 10.0048 372.034 9.16698C372.066 8.72414 371.977 8.37705 371.767 8.12571C371.558 7.8624 371.232 7.73075 370.788 7.73075C369.576 7.73075 368.807 8.40099 368.482 9.74148L367.589 13.368C367.507 13.6792 367.455 13.9844 367.433 14.2836C367.376 15.0735 367.821 15.4685 368.769 15.4685C369.909 15.4685 370.64 14.8282 370.96 13.5475H374.2L374.073 14.0681C373.391 16.8568 371.388 18.2512 368.064 18.2512ZM384.178 17.0663C383.173 17.8562 381.8 18.2512 380.06 18.2512C378.32 18.2512 377.143 17.8502 376.529 17.0483C376.089 16.4978 375.904 15.7378 375.974 14.7683C376.006 14.3374 376.088 13.8647 376.221 13.35L378.279 5.07371H381.519L379.466 13.2782C379.397 13.5774 379.35 13.8886 379.327 14.2118C379.266 15.0496 379.74 15.4685 380.748 15.4685C381.348 15.4685 381.839 15.3129 382.221 15.0017C382.604 14.6905 382.898 14.116 383.102 13.2782L385.155 5.07371H388.395L386.337 13.35C385.916 15.0256 385.196 16.2644 384.178 17.0663ZM391.332 14.3195C391.272 15.1453 391.836 15.5582 393.024 15.5582C394.224 15.5582 394.851 15.1872 394.905 14.4452C394.934 14.0502 394.753 13.727 394.363 13.4757C393.973 13.2244 393.491 13.0149 392.915 12.8473C392.351 12.6798 391.783 12.4883 391.21 12.2728C390.651 12.0454 390.184 11.6984 389.81 11.2316C389.437 10.7528 389.275 10.1604 389.327 9.45423C389.544 6.4501 391.591 4.94803 395.467 4.94803C396.883 4.94803 397.931 5.21733 398.612 5.75592C399.306 6.28254 399.619 7.01861 399.55 7.96413C399.525 8.31123 399.453 8.64635 399.334 8.9695C399.227 9.28069 399.121 9.50211 399.016 9.63376L398.856 9.8492H395.67C395.954 9.57392 396.111 9.22683 396.141 8.80792C396.198 8.02996 395.716 7.64098 394.696 7.64098C393.412 7.64098 392.74 8.04792 392.681 8.86178C392.652 9.26872 392.833 9.59187 393.223 9.83124C393.614 10.0706 394.092 10.2621 394.658 10.4057C395.236 10.5374 395.812 10.705 396.385 10.9084C396.958 11.1119 397.432 11.453 397.805 11.9317C398.179 12.3985 398.339 13.0089 398.284 13.7629C398.174 15.283 397.636 16.414 396.671 17.1561C395.706 17.8861 394.275 18.2512 392.379 18.2512C390.483 18.2512 389.212 17.9161 388.564 17.2458C388.085 16.7431 387.877 16.049 387.941 15.1633C387.965 14.8282 388.028 14.4631 388.128 14.0681L388.203 13.7809H391.443L391.392 13.9963C391.359 14.116 391.339 14.2237 391.332 14.3195ZM412.867 7.87437L408.439 7.87437L405.923 17.9998H402.665L405.181 7.87437H400.735L401.442 5.07371L413.574 5.07371L412.867 7.87437ZM419.78 4.94803C422.672 4.94803 424.033 6.12695 423.862 8.48477C423.833 8.87974 423.76 9.30462 423.644 9.75943L422.753 13.35C422.345 15.0137 421.632 16.2464 420.614 17.0483C419.596 17.8502 418.216 18.2512 416.476 18.2512C414.736 18.2512 413.554 17.8502 412.928 17.0483C412.499 16.4978 412.321 15.7378 412.391 14.7683C412.422 14.3374 412.504 13.8647 412.637 13.35L413.528 9.75943C414.324 6.55183 416.408 4.94803 419.78 4.94803ZM417.164 15.4685C417.764 15.4685 418.255 15.3129 418.638 15.0017C419.02 14.6905 419.314 14.116 419.519 13.2782L420.38 9.83124C420.434 9.59187 420.467 9.37643 420.481 9.18494C420.551 8.21548 420.094 7.73075 419.11 7.73075C417.873 7.75468 417.084 8.45485 416.744 9.83124L415.883 13.2782C415.813 13.5774 415.766 13.8886 415.743 14.2118C415.682 15.0496 416.156 15.4685 417.164 15.4685ZM430.392 5.07371L431.869 11.2675L436.458 5.07371H439.86L436.638 17.9998H433.38L435.204 10.7109L432.117 15.0556H429.759L428.85 10.7109L427.026 17.9998H423.786L427.008 5.07371H430.392ZM451.968 5.07371C453.336 5.07371 454.287 5.37292 454.819 5.97135C455.218 6.42616 455.393 7.00066 455.342 7.69484C455.325 7.93421 455.283 8.18555 455.216 8.44886L454.991 9.31061C454.81 9.99282 454.513 10.5254 454.102 10.9084C453.702 11.2914 453.358 11.4829 453.07 11.4829L453.042 11.6265C453.378 11.6265 453.706 11.8121 454.027 12.1831C454.348 12.5541 454.491 12.991 454.454 13.4936C454.44 13.6971 454.4 13.9126 454.336 14.14L454.187 14.6965C453.921 15.7258 453.4 16.5337 452.626 17.1201C451.863 17.7066 450.834 17.9998 449.538 17.9998H443.526L446.748 5.07371H451.968ZM449.794 12.7217H448.084L447.473 15.1992H449.183C449.207 15.1992 449.231 15.1992 449.255 15.1992C449.807 15.1992 450.254 15.0735 450.596 14.8222C450.939 14.5589 451.124 14.2417 451.151 13.8707C451.207 13.1047 450.754 12.7217 449.794 12.7217ZM450.631 7.87437H449.281L448.62 10.5494H449.952C451.104 10.5494 451.716 10.0467 451.789 9.04131C451.814 8.69422 451.726 8.41296 451.526 8.19752C451.338 7.98209 451.039 7.87437 450.631 7.87437ZM464.352 17.0663C463.347 17.8562 461.974 18.2512 460.234 18.2512C458.494 18.2512 457.317 17.8502 456.703 17.0483C456.263 16.4978 456.078 15.7378 456.148 14.7683C456.179 14.3374 456.262 13.8647 456.395 13.35L458.452 5.07371H461.692L459.64 13.2782C459.57 13.5774 459.524 13.8886 459.5 14.2118C459.44 15.0496 459.913 15.4685 460.921 15.4685C461.521 15.4685 462.013 15.3129 462.395 15.0017C462.778 14.6905 463.071 14.116 463.276 13.2782L465.328 5.07371H468.568L466.511 13.35C466.09 15.0256 465.37 16.2644 464.352 17.0663ZM474.264 5.07371L471.059 17.9998H467.801L471.024 5.07371H474.264ZM481.81 17.9998L473.602 17.9998L476.824 5.07371H480.064L477.549 15.1992H482.517L481.81 17.9998ZM491.515 5.07371C493.087 5.07371 494.18 5.46867 494.795 6.2586C495.244 6.85703 495.435 7.60507 495.37 8.50272C495.347 8.82588 495.292 9.16698 495.206 9.52604L494.214 13.5296C493.876 14.882 493.21 15.9652 492.215 16.779C491.22 17.5929 489.979 17.9998 488.491 17.9998H483.253L486.475 5.07371H491.515ZM490.178 7.87437H489.008L487.199 15.1992H488.909C489.473 15.1992 489.922 15.0496 490.256 14.7504C490.603 14.4392 490.861 13.9365 491.031 13.2423L491.766 10.298C491.834 10.0347 491.875 9.79534 491.89 9.5799C491.973 8.44288 491.402 7.87437 490.178 7.87437ZM498.998 14.3195C498.938 15.1453 499.502 15.5582 500.69 15.5582C501.89 15.5582 502.517 15.1872 502.571 14.4452C502.6 14.0502 502.419 13.727 502.029 13.4757C501.64 13.2244 501.157 13.0149 500.581 12.8473C500.017 12.6798 499.449 12.4883 498.876 12.2728C498.317 12.0454 497.85 11.6984 497.476 11.2316C497.103 10.7528 496.941 10.1604 496.993 9.45423C497.21 6.4501 499.257 4.94803 503.133 4.94803C504.549 4.94803 505.597 5.21733 506.278 5.75592C506.972 6.28254 507.285 7.01861 507.217 7.96413C507.191 8.31123 507.119 8.64635 507 8.9695C506.893 9.28069 506.787 9.50211 506.682 9.63376L506.522 9.8492H503.336C503.62 9.57392 503.777 9.22683 503.807 8.80792C503.864 8.02996 503.382 7.64098 502.362 7.64098C501.078 7.64098 500.406 8.04792 500.347 8.86178C500.318 9.26872 500.499 9.59187 500.889 9.83124C501.28 10.0706 501.758 10.2621 502.324 10.4057C502.902 10.5374 503.478 10.705 504.051 10.9084C504.625 11.1119 505.098 11.453 505.471 11.9317C505.845 12.3985 506.005 13.0089 505.95 13.7629C505.84 15.283 505.302 16.414 504.337 17.1561C503.372 17.8861 501.941 18.2512 500.045 18.2512C498.149 18.2512 496.878 17.9161 496.23 17.2458C495.751 16.7431 495.543 16.049 495.607 15.1633C495.631 14.8282 495.694 14.4631 495.794 14.0681L495.869 13.7809H499.109L499.058 13.9963C499.025 14.116 499.005 14.2237 498.998 14.3195Z" fill="white"/>
<path d="M536.091 5.07371C537.459 5.07371 538.41 5.37292 538.942 5.97135C539.341 6.42616 539.516 7.00066 539.465 7.69484C539.448 7.93421 539.406 8.18555 539.339 8.44886L538.985 9.8492C538.785 10.6272 538.488 11.2555 538.093 11.7343C537.71 12.213 537.296 12.5541 536.849 12.7576L538.107 17.9998H534.471L533.309 13.1705H532.193L531.105 17.9998H527.649L530.871 5.07371H536.091ZM534.754 7.87437H533.404L532.71 10.9982H533.97C534.606 10.9982 535.073 10.8486 535.371 10.5494C535.669 10.2382 535.837 9.83124 535.873 9.32856C535.943 8.3591 535.57 7.87437 534.754 7.87437ZM548.498 17.9998H539.462L542.684 5.07371H551.72L551.013 7.87437H545.217L544.627 10.298H549.415L548.709 13.0987H543.921L543.408 15.1992H549.204L548.498 17.9998ZM554.276 14.3195C554.216 15.1453 554.78 15.5582 555.968 15.5582C557.168 15.5582 557.795 15.1872 557.848 14.4452C557.877 14.0502 557.696 13.727 557.307 13.4757C556.917 13.2244 556.434 13.0149 555.858 12.8473C555.294 12.6798 554.726 12.4883 554.154 12.2728C553.594 12.0454 553.127 11.6984 552.753 11.2316C552.38 10.7528 552.219 10.1604 552.27 9.45423C552.488 6.4501 554.534 4.94803 558.41 4.94803C559.826 4.94803 560.875 5.21733 561.556 5.75592C562.25 6.28254 562.562 7.01861 562.494 7.96413C562.469 8.31123 562.396 8.64635 562.277 8.9695C562.17 9.28069 562.064 9.50211 561.959 9.63376L561.799 9.8492H558.613C558.897 9.57392 559.054 9.22683 559.085 8.80792C559.141 8.02996 558.659 7.64098 557.639 7.64098C556.355 7.64098 555.684 8.04792 555.625 8.86178C555.595 9.26872 555.776 9.59187 556.167 9.83124C556.557 10.0706 557.035 10.2621 557.601 10.4057C558.179 10.5374 558.755 10.705 559.329 10.9084C559.902 11.1119 560.375 11.453 560.748 11.9317C561.123 12.3985 561.282 13.0089 561.228 13.7629C561.118 15.283 560.58 16.414 559.614 17.1561C558.649 17.8861 557.219 18.2512 555.323 18.2512C553.427 18.2512 552.155 17.9161 551.508 17.2458C551.028 16.7431 550.82 16.049 550.884 15.1633C550.909 14.8282 550.971 14.4631 551.072 14.0681L551.147 13.7809H554.387L554.335 13.9963C554.302 14.116 554.282 14.2237 554.276 14.3195ZM575.81 7.87437H571.382L568.867 17.9998H565.609L568.124 7.87437H563.678L564.385 5.07371H576.517L575.81 7.87437ZM582.723 4.94803C585.615 4.94803 586.976 6.12695 586.805 8.48477C586.777 8.87974 586.704 9.30462 586.587 9.75943L585.697 13.35C585.288 15.0137 584.575 16.2464 583.557 17.0483C582.539 17.8502 581.16 18.2512 579.42 18.2512C577.68 18.2512 576.497 17.8502 575.871 17.0483C575.443 16.4978 575.264 15.7378 575.334 14.7683C575.365 14.3374 575.448 13.8647 575.581 13.35L576.471 9.75943C577.267 6.55183 579.351 4.94803 582.723 4.94803ZM580.107 15.4685C580.707 15.4685 581.199 15.3129 581.581 15.0017C581.964 14.6905 582.257 14.116 582.462 13.2782L583.324 9.83124C583.377 9.59187 583.411 9.37643 583.425 9.18494C583.495 8.21548 583.038 7.73075 582.054 7.73075C580.816 7.75468 580.027 8.45485 579.688 9.83124L578.826 13.2782C578.756 13.5774 578.71 13.8886 578.686 14.2118C578.626 15.0496 579.099 15.4685 580.107 15.4685ZM595.171 5.07371C596.539 5.07371 597.49 5.37292 598.022 5.97135C598.421 6.42616 598.596 7.00066 598.546 7.69484C598.528 7.93421 598.486 8.18555 598.419 8.44886L598.066 9.8492C597.865 10.6272 597.568 11.2555 597.173 11.7343C596.79 12.213 596.376 12.5541 595.929 12.7576L597.187 17.9998H593.551L592.389 13.1705H591.273L590.185 17.9998H586.729L589.951 5.07371L595.171 5.07371ZM593.835 7.87437H592.485L591.79 10.9982H593.05C593.686 10.9982 594.153 10.8486 594.451 10.5494C594.749 10.2382 594.917 9.83124 594.953 9.32856C595.023 8.3591 594.651 7.87437 593.835 7.87437ZM604.95 17.9998L605.262 15.1812H602.256L601.17 17.9998H597.732L603.294 5.07371H609.234L608.37 17.9998H604.95ZM604.92 8.21548L603.168 12.7755H605.526L606.054 8.21548H604.92ZM622.603 7.87437H618.175L615.66 17.9998H612.402L614.917 7.87437H610.471L611.178 5.07371H623.31L622.603 7.87437ZM628.031 5.07371L624.827 17.9998H621.569L624.791 5.07371H628.031ZM635.317 4.94803C638.209 4.94803 639.57 6.12695 639.399 8.48477C639.37 8.87974 639.298 9.30462 639.181 9.75943L638.291 13.35C637.882 15.0137 637.169 16.2464 636.151 17.0483C635.133 17.8502 633.754 18.2512 632.014 18.2512C630.274 18.2512 629.091 17.8502 628.465 17.0483C628.037 16.4978 627.858 15.7378 627.928 14.7683C627.959 14.3374 628.041 13.8647 628.175 13.35L629.065 9.75943C629.861 6.55183 631.945 4.94803 635.317 4.94803ZM632.701 15.4685C633.301 15.4685 633.792 15.3129 634.175 15.0017C634.557 14.6905 634.851 14.116 635.056 13.2782L635.917 9.83124C635.971 9.59187 636.004 9.37643 636.018 9.18494C636.088 8.21548 635.632 7.73075 634.648 7.73075C633.41 7.75468 632.621 8.45485 632.281 9.83124L631.42 13.2782C631.35 13.5774 631.304 13.8886 631.28 14.2118C631.219 15.0496 631.693 15.4685 632.701 15.4685ZM652.535 5.07371L649.331 17.9998H646.073L644.317 10.9264L642.581 17.9998H639.323L642.545 5.07371H645.893L647.647 11.6804L649.295 5.07371H652.535ZM660.59 18.2512C657.686 18.2512 656.307 17.2458 656.452 15.2351C656.523 14.2537 656.851 13.4518 657.436 12.8294C658.034 12.1951 658.729 11.8779 659.521 11.8779L659.525 11.824C658.985 11.824 658.577 11.5787 658.301 11.088C658.024 10.5972 657.909 10.0347 657.955 9.40037C658.049 8.09579 658.63 7.03058 659.698 6.20474C660.767 5.36694 662.201 4.94803 664.001 4.94803C665.393 4.94803 666.424 5.21135 667.094 5.73797C667.777 6.25262 668.085 6.97074 668.018 7.89232C667.994 8.22744 667.923 8.54461 667.805 8.84383C667.699 9.14305 667.594 9.35848 667.488 9.49014L667.331 9.66967H664.145C664.415 9.41833 664.567 9.07123 664.599 8.62839C664.642 8.02996 664.202 7.73075 663.278 7.73075C662.702 7.73075 662.216 7.88634 661.822 8.19752C661.428 8.49674 661.215 8.87375 661.182 9.32856C661.149 9.78337 661.267 10.1484 661.535 10.4237C661.803 10.699 662.188 10.8426 662.691 10.8546H668.217L667.716 12.8114H666.924L666.646 13.9066C666.277 15.3667 665.562 16.4559 664.502 17.174C663.454 17.8921 662.15 18.2512 660.59 18.2512ZM659.905 14.2836C659.88 14.6307 659.985 14.9179 660.221 15.1453C660.457 15.3608 660.785 15.4685 661.205 15.4685C662.537 15.4685 663.331 14.9478 663.586 13.9066L663.864 12.8114H661.812C660.612 12.8114 659.976 13.3022 659.905 14.2836ZM677.064 18.2512C675.348 18.2512 674.187 17.8802 673.58 17.1381C673.163 16.6115 672.988 15.8754 673.056 14.9299C673.086 14.523 673.159 14.0861 673.277 13.6193L674.314 9.49014C675.074 6.46207 677.133 4.94803 680.493 4.94803C681.885 4.94803 682.92 5.24725 683.596 5.84568C684.274 6.43215 684.575 7.24003 684.501 8.26933C684.466 8.74808 684.359 9.22683 684.181 9.70557C684.015 10.1723 683.858 10.5194 683.709 10.7468L683.485 11.1059H680.299C680.728 10.6511 680.973 10.0048 681.034 9.16698C681.066 8.72414 680.977 8.37705 680.767 8.12571C680.558 7.8624 680.232 7.73075 679.788 7.73075C678.576 7.73075 677.807 8.40099 677.482 9.74148L676.589 13.368C676.507 13.6792 676.455 13.9844 676.433 14.2836C676.376 15.0735 676.821 15.4685 677.769 15.4685C678.909 15.4685 679.64 14.8282 679.96 13.5475H683.2L683.073 14.0681C682.391 16.8568 680.388 18.2512 677.064 18.2512ZM693.178 17.0663C692.173 17.8562 690.8 18.2512 689.06 18.2512C687.32 18.2512 686.143 17.8502 685.529 17.0483C685.089 16.4978 684.904 15.7378 684.974 14.7683C685.006 14.3374 685.088 13.8647 685.221 13.35L687.279 5.07371H690.519L688.466 13.2782C688.397 13.5774 688.35 13.8886 688.327 14.2118C688.266 15.0496 688.74 15.4685 689.748 15.4685C690.348 15.4685 690.839 15.3129 691.221 15.0017C691.604 14.6905 691.898 14.116 692.102 13.2782L694.155 5.07371H697.395L695.337 13.35C694.916 15.0256 694.196 16.2644 693.178 17.0663ZM700.332 14.3195C700.272 15.1453 700.836 15.5582 702.024 15.5582C703.224 15.5582 703.851 15.1872 703.905 14.4452C703.934 14.0502 703.753 13.727 703.363 13.4757C702.973 13.2244 702.491 13.0149 701.915 12.8473C701.351 12.6798 700.783 12.4883 700.21 12.2728C699.651 12.0454 699.184 11.6984 698.81 11.2316C698.437 10.7528 698.275 10.1604 698.327 9.45423C698.544 6.4501 700.591 4.94803 704.467 4.94803C705.883 4.94803 706.931 5.21733 707.612 5.75592C708.306 6.28254 708.619 7.01861 708.55 7.96413C708.525 8.31123 708.453 8.64635 708.334 8.9695C708.227 9.28069 708.121 9.50211 708.016 9.63376L707.856 9.8492H704.67C704.954 9.57392 705.111 9.22683 705.141 8.80792C705.198 8.02996 704.716 7.64098 703.696 7.64098C702.412 7.64098 701.74 8.04792 701.681 8.86178C701.652 9.26872 701.833 9.59187 702.223 9.83124C702.614 10.0706 703.092 10.2621 703.658 10.4057C704.236 10.5374 704.812 10.705 705.385 10.9084C705.958 11.1119 706.432 11.453 706.805 11.9317C707.179 12.3985 707.339 13.0089 707.284 13.7629C707.174 15.283 706.636 16.414 705.671 17.1561C704.706 17.8861 703.275 18.2512 701.379 18.2512C699.483 18.2512 698.212 17.9161 697.564 17.2458C697.085 16.7431 696.877 16.049 696.941 15.1633C696.965 14.8282 697.028 14.4631 697.128 14.0681L697.203 13.7809H700.443L700.392 13.9963C700.359 14.116 700.339 14.2237 700.332 14.3195ZM721.867 7.87437L717.439 7.87437L714.923 17.9998H711.665L714.181 7.87437H709.735L710.442 5.07371L722.574 5.07371L721.867 7.87437ZM728.78 4.94803C731.672 4.94803 733.033 6.12695 732.862 8.48477C732.833 8.87974 732.76 9.30462 732.644 9.75943L731.753 13.35C731.345 15.0137 730.632 16.2464 729.614 17.0483C728.596 17.8502 727.216 18.2512 725.476 18.2512C723.736 18.2512 722.554 17.8502 721.928 17.0483C721.499 16.4978 721.321 15.7378 721.391 14.7683C721.422 14.3374 721.504 13.8647 721.637 13.35L722.528 9.75943C723.324 6.55183 725.408 4.94803 728.78 4.94803ZM726.164 15.4685C726.764 15.4685 727.255 15.3129 727.638 15.0017C728.02 14.6905 728.314 14.116 728.519 13.2782L729.38 9.83124C729.434 9.59187 729.467 9.37643 729.481 9.18494C729.551 8.21548 729.094 7.73075 728.11 7.73075C726.873 7.75468 726.084 8.45485 725.744 9.83124L724.883 13.2782C724.813 13.5774 724.766 13.8886 724.743 14.2118C724.682 15.0496 725.156 15.4685 726.164 15.4685ZM739.392 5.07371L740.869 11.2675L745.458 5.07371H748.86L745.638 17.9998H742.38L744.204 10.7109L741.117 15.0556H738.759L737.85 10.7109L736.026 17.9998H732.786L736.008 5.07371H739.392ZM760.968 5.07371C762.336 5.07371 763.287 5.37292 763.819 5.97135C764.218 6.42616 764.393 7.00066 764.342 7.69484C764.325 7.93421 764.283 8.18555 764.216 8.44886L763.991 9.31061C763.81 9.99282 763.513 10.5254 763.102 10.9084C762.702 11.2914 762.358 11.4829 762.07 11.4829L762.042 11.6265C762.378 11.6265 762.706 11.8121 763.027 12.1831C763.348 12.5541 763.491 12.991 763.454 13.4936C763.44 13.6971 763.4 13.9126 763.336 14.14L763.187 14.6965C762.921 15.7258 762.4 16.5337 761.626 17.1201C760.863 17.7066 759.834 17.9998 758.538 17.9998H752.526L755.748 5.07371H760.968ZM758.794 12.7217H757.084L756.473 15.1992H758.183C758.207 15.1992 758.231 15.1992 758.255 15.1992C758.807 15.1992 759.254 15.0735 759.596 14.8222C759.939 14.5589 760.124 14.2417 760.151 13.8707C760.207 13.1047 759.754 12.7217 758.794 12.7217ZM759.631 7.87437H758.281L757.62 10.5494H758.952C760.104 10.5494 760.716 10.0467 760.789 9.04131C760.814 8.69422 760.726 8.41296 760.526 8.19752C760.338 7.98209 760.039 7.87437 759.631 7.87437ZM773.352 17.0663C772.347 17.8562 770.974 18.2512 769.234 18.2512C767.494 18.2512 766.317 17.8502 765.703 17.0483C765.263 16.4978 765.078 15.7378 765.148 14.7683C765.179 14.3374 765.262 13.8647 765.395 13.35L767.452 5.07371H770.692L768.64 13.2782C768.57 13.5774 768.524 13.8886 768.5 14.2118C768.44 15.0496 768.913 15.4685 769.921 15.4685C770.521 15.4685 771.013 15.3129 771.395 15.0017C771.778 14.6905 772.071 14.116 772.276 13.2782L774.328 5.07371H777.568L775.511 13.35C775.09 15.0256 774.37 16.2644 773.352 17.0663ZM783.264 5.07371L780.059 17.9998H776.801L780.024 5.07371H783.264ZM790.81 17.9998L782.602 17.9998L785.824 5.07371H789.064L786.549 15.1992H791.517L790.81 17.9998ZM800.515 5.07371C802.087 5.07371 803.18 5.46867 803.795 6.2586C804.244 6.85703 804.435 7.60507 804.37 8.50272C804.347 8.82588 804.292 9.16698 804.206 9.52604L803.214 13.5296C802.876 14.882 802.21 15.9652 801.215 16.779C800.22 17.5929 798.979 17.9998 797.491 17.9998H792.253L795.475 5.07371H800.515ZM799.178 7.87437H798.008L796.199 15.1992H797.909C798.473 15.1992 798.922 15.0496 799.256 14.7504C799.603 14.4392 799.861 13.9365 800.031 13.2423L800.766 10.298C800.834 10.0347 800.875 9.79534 800.89 9.5799C800.973 8.44288 800.402 7.87437 799.178 7.87437ZM807.998 14.3195C807.938 15.1453 808.502 15.5582 809.69 15.5582C810.89 15.5582 811.517 15.1872 811.571 14.4452C811.6 14.0502 811.419 13.727 811.029 13.4757C810.64 13.2244 810.157 13.0149 809.581 12.8473C809.017 12.6798 808.449 12.4883 807.876 12.2728C807.317 12.0454 806.85 11.6984 806.476 11.2316C806.103 10.7528 805.941 10.1604 805.993 9.45423C806.21 6.4501 808.257 4.94803 812.133 4.94803C813.549 4.94803 814.597 5.21733 815.278 5.75592C815.972 6.28254 816.285 7.01861 816.217 7.96413C816.191 8.31123 816.119 8.64635 816 8.9695C815.893 9.28069 815.787 9.50211 815.682 9.63376L815.522 9.8492H812.336C812.62 9.57392 812.777 9.22683 812.807 8.80792C812.864 8.02996 812.382 7.64098 811.362 7.64098C810.078 7.64098 809.406 8.04792 809.347 8.86178C809.318 9.26872 809.499 9.59187 809.889 9.83124C810.28 10.0706 810.758 10.2621 811.324 10.4057C811.902 10.5374 812.478 10.705 813.051 10.9084C813.625 11.1119 814.098 11.453 814.471 11.9317C814.845 12.3985 815.005 13.0089 814.95 13.7629C814.84 15.283 814.302 16.414 813.337 17.1561C812.372 17.8861 810.941 18.2512 809.045 18.2512C807.149 18.2512 805.878 17.9161 805.23 17.2458C804.751 16.7431 804.543 16.049 804.607 15.1633C804.631 14.8282 804.694 14.4631 804.794 14.0681L804.869 13.7809H808.109L808.058 13.9963C808.025 14.116 808.005 14.2237 807.998 14.3195Z" fill="white"/>
<path d="M845.091 5.07371C846.459 5.07371 847.41 5.37292 847.942 5.97135C848.341 6.42616 848.516 7.00066 848.465 7.69484C848.448 7.93421 848.406 8.18555 848.339 8.44886L847.985 9.8492C847.785 10.6272 847.488 11.2555 847.093 11.7343C846.71 12.213 846.296 12.5541 845.849 12.7576L847.107 17.9998H843.471L842.309 13.1705H841.193L840.105 17.9998H836.649L839.871 5.07371H845.091ZM843.754 7.87437H842.404L841.71 10.9982H842.97C843.606 10.9982 844.073 10.8486 844.371 10.5494C844.669 10.2382 844.837 9.83124 844.873 9.32856C844.943 8.3591 844.57 7.87437 843.754 7.87437ZM857.498 17.9998H848.462L851.684 5.07371H860.72L860.013 7.87437H854.217L853.627 10.298H858.415L857.709 13.0987H852.921L852.408 15.1992H858.204L857.498 17.9998ZM863.276 14.3195C863.216 15.1453 863.78 15.5582 864.968 15.5582C866.168 15.5582 866.795 15.1872 866.848 14.4452C866.877 14.0502 866.696 13.727 866.307 13.4757C865.917 13.2244 865.434 13.0149 864.858 12.8473C864.294 12.6798 863.726 12.4883 863.154 12.2728C862.594 12.0454 862.127 11.6984 861.753 11.2316C861.38 10.7528 861.219 10.1604 861.27 9.45423C861.488 6.4501 863.534 4.94803 867.41 4.94803C868.826 4.94803 869.875 5.21733 870.556 5.75592C871.25 6.28254 871.562 7.01861 871.494 7.96413C871.469 8.31123 871.396 8.64635 871.277 8.9695C871.17 9.28069 871.064 9.50211 870.959 9.63376L870.799 9.8492H867.613C867.897 9.57392 868.054 9.22683 868.085 8.80792C868.141 8.02996 867.659 7.64098 866.639 7.64098C865.355 7.64098 864.684 8.04792 864.625 8.86178C864.595 9.26872 864.776 9.59187 865.167 9.83124C865.557 10.0706 866.035 10.2621 866.601 10.4057C867.179 10.5374 867.755 10.705 868.329 10.9084C868.902 11.1119 869.375 11.453 869.748 11.9317C870.123 12.3985 870.282 13.0089 870.228 13.7629C870.118 15.283 869.58 16.414 868.614 17.1561C867.649 17.8861 866.219 18.2512 864.323 18.2512C862.427 18.2512 861.155 17.9161 860.508 17.2458C860.028 16.7431 859.82 16.049 859.884 15.1633C859.909 14.8282 859.971 14.4631 860.072 14.0681L860.147 13.7809H863.387L863.335 13.9963C863.302 14.116 863.282 14.2237 863.276 14.3195ZM884.81 7.87437H880.382L877.867 17.9998H874.609L877.124 7.87437H872.678L873.385 5.07371H885.517L884.81 7.87437ZM891.723 4.94803C894.615 4.94803 895.976 6.12695 895.805 8.48477C895.777 8.87974 895.704 9.30462 895.587 9.75943L894.697 13.35C894.288 15.0137 893.575 16.2464 892.557 17.0483C891.539 17.8502 890.16 18.2512 888.42 18.2512C886.68 18.2512 885.497 17.8502 884.871 17.0483C884.443 16.4978 884.264 15.7378 884.334 14.7683C884.365 14.3374 884.448 13.8647 884.581 13.35L885.471 9.75943C886.267 6.55183 888.351 4.94803 891.723 4.94803ZM889.107 15.4685C889.707 15.4685 890.199 15.3129 890.581 15.0017C890.964 14.6905 891.257 14.116 891.462 13.2782L892.324 9.83124C892.377 9.59187 892.411 9.37643 892.425 9.18494C892.495 8.21548 892.038 7.73075 891.054 7.73075C889.816 7.75468 889.027 8.45485 888.688 9.83124L887.826 13.2782C887.756 13.5774 887.71 13.8886 887.686 14.2118C887.626 15.0496 888.099 15.4685 889.107 15.4685ZM904.171 5.07371C905.539 5.07371 906.49 5.37292 907.022 5.97135C907.421 6.42616 907.596 7.00066 907.546 7.69484C907.528 7.93421 907.486 8.18555 907.419 8.44886L907.066 9.8492C906.865 10.6272 906.568 11.2555 906.173 11.7343C905.79 12.213 905.376 12.5541 904.929 12.7576L906.187 17.9998H902.551L901.389 13.1705H900.273L899.185 17.9998H895.729L898.951 5.07371L904.171 5.07371ZM902.835 7.87437H901.485L900.79 10.9982H902.05C902.686 10.9982 903.153 10.8486 903.451 10.5494C903.749 10.2382 903.917 9.83124 903.953 9.32856C904.023 8.3591 903.651 7.87437 902.835 7.87437ZM913.95 17.9998L914.262 15.1812H911.256L910.17 17.9998H906.732L912.294 5.07371H918.234L917.37 17.9998H913.95ZM913.92 8.21548L912.168 12.7755H914.526L915.054 8.21548H913.92ZM931.603 7.87437H927.175L924.66 17.9998H921.402L923.917 7.87437H919.471L920.178 5.07371H932.31L931.603 7.87437ZM937.031 5.07371L933.827 17.9998H930.569L933.791 5.07371H937.031ZM944.317 4.94803C947.209 4.94803 948.57 6.12695 948.399 8.48477C948.37 8.87974 948.298 9.30462 948.181 9.75943L947.291 13.35C946.882 15.0137 946.169 16.2464 945.151 17.0483C944.133 17.8502 942.754 18.2512 941.014 18.2512C939.274 18.2512 938.091 17.8502 937.465 17.0483C937.037 16.4978 936.858 15.7378 936.928 14.7683C936.959 14.3374 937.041 13.8647 937.175 13.35L938.065 9.75943C938.861 6.55183 940.945 4.94803 944.317 4.94803ZM941.701 15.4685C942.301 15.4685 942.792 15.3129 943.175 15.0017C943.557 14.6905 943.851 14.116 944.056 13.2782L944.917 9.83124C944.971 9.59187 945.004 9.37643 945.018 9.18494C945.088 8.21548 944.632 7.73075 943.648 7.73075C942.41 7.75468 941.621 8.45485 941.281 9.83124L940.42 13.2782C940.35 13.5774 940.304 13.8886 940.28 14.2118C940.219 15.0496 940.693 15.4685 941.701 15.4685ZM961.535 5.07371L958.331 17.9998H955.073L953.317 10.9264L951.581 17.9998H948.323L951.545 5.07371H954.893L956.647 11.6804L958.295 5.07371H961.535ZM969.59 18.2512C966.686 18.2512 965.307 17.2458 965.452 15.2351C965.523 14.2537 965.851 13.4518 966.436 12.8294C967.034 12.1951 967.729 11.8779 968.521 11.8779L968.525 11.824C967.985 11.824 967.577 11.5787 967.301 11.088C967.024 10.5972 966.909 10.0347 966.955 9.40037C967.049 8.09579 967.63 7.03058 968.698 6.20474C969.767 5.36694 971.201 4.94803 973.001 4.94803C974.393 4.94803 975.424 5.21135 976.094 5.73797C976.777 6.25262 977.085 6.97074 977.018 7.89232C976.994 8.22744 976.923 8.54461 976.805 8.84383C976.699 9.14305 976.594 9.35848 976.488 9.49014L976.331 9.66967H973.145C973.415 9.41833 973.567 9.07123 973.599 8.62839C973.642 8.02996 973.202 7.73075 972.278 7.73075C971.702 7.73075 971.216 7.88634 970.822 8.19752C970.428 8.49674 970.215 8.87375 970.182 9.32856C970.149 9.78337 970.267 10.1484 970.535 10.4237C970.803 10.699 971.188 10.8426 971.691 10.8546H977.217L976.716 12.8114H975.924L975.646 13.9066C975.277 15.3667 974.562 16.4559 973.502 17.174C972.454 17.8921 971.15 18.2512 969.59 18.2512ZM968.905 14.2836C968.88 14.6307 968.985 14.9179 969.221 15.1453C969.457 15.3608 969.785 15.4685 970.205 15.4685C971.537 15.4685 972.331 14.9478 972.586 13.9066L972.864 12.8114H970.812C969.612 12.8114 968.976 13.3022 968.905 14.2836ZM986.064 18.2512C984.348 18.2512 983.187 17.8802 982.58 17.1381C982.163 16.6115 981.988 15.8754 982.056 14.9299C982.086 14.523 982.159 14.0861 982.277 13.6193L983.314 9.49014C984.074 6.46207 986.133 4.94803 989.493 4.94803C990.885 4.94803 991.92 5.24725 992.596 5.84568C993.274 6.43215 993.575 7.24003 993.501 8.26933C993.466 8.74808 993.359 9.22683 993.181 9.70557C993.015 10.1723 992.858 10.5194 992.709 10.7468L992.485 11.1059H989.299C989.728 10.6511 989.973 10.0048 990.034 9.16698C990.066 8.72414 989.977 8.37705 989.767 8.12571C989.558 7.8624 989.232 7.73075 988.788 7.73075C987.576 7.73075 986.807 8.40099 986.482 9.74148L985.589 13.368C985.507 13.6792 985.455 13.9844 985.433 14.2836C985.376 15.0735 985.821 15.4685 986.769 15.4685C987.909 15.4685 988.64 14.8282 988.96 13.5475H992.2L992.073 14.0681C991.391 16.8568 989.388 18.2512 986.064 18.2512ZM1002.18 17.0663C1001.17 17.8562 999.8 18.2512 998.06 18.2512C996.32 18.2512 995.143 17.8502 994.529 17.0483C994.089 16.4978 993.904 15.7378 993.974 14.7683C994.006 14.3374 994.088 13.8647 994.221 13.35L996.279 5.07371H999.519L997.466 13.2782C997.397 13.5774 997.35 13.8886 997.327 14.2118C997.266 15.0496 997.74 15.4685 998.748 15.4685C999.348 15.4685 999.839 15.3129 1000.22 15.0017C1000.6 14.6905 1000.9 14.116 1001.1 13.2782L1003.15 5.07371H1006.39L1004.34 13.35C1003.92 15.0256 1003.2 16.2644 1002.18 17.0663ZM1009.33 14.3195C1009.27 15.1453 1009.84 15.5582 1011.02 15.5582C1012.22 15.5582 1012.85 15.1872 1012.91 14.4452C1012.93 14.0502 1012.75 13.727 1012.36 13.4757C1011.97 13.2244 1011.49 13.0149 1010.91 12.8473C1010.35 12.6798 1009.78 12.4883 1009.21 12.2728C1008.65 12.0454 1008.18 11.6984 1007.81 11.2316C1007.44 10.7528 1007.28 10.1604 1007.33 9.45423C1007.54 6.4501 1009.59 4.94803 1013.47 4.94803C1014.88 4.94803 1015.93 5.21733 1016.61 5.75592C1017.31 6.28254 1017.62 7.01861 1017.55 7.96413C1017.53 8.31123 1017.45 8.64635 1017.33 8.9695C1017.23 9.28069 1017.12 9.50211 1017.02 9.63376L1016.86 9.8492H1013.67C1013.95 9.57392 1014.11 9.22683 1014.14 8.80792C1014.2 8.02996 1013.72 7.64098 1012.7 7.64098C1011.41 7.64098 1010.74 8.04792 1010.68 8.86178C1010.65 9.26872 1010.83 9.59187 1011.22 9.83124C1011.61 10.0706 1012.09 10.2621 1012.66 10.4057C1013.24 10.5374 1013.81 10.705 1014.39 10.9084C1014.96 11.1119 1015.43 11.453 1015.81 11.9317C1016.18 12.3985 1016.34 13.0089 1016.28 13.7629C1016.17 15.283 1015.64 16.414 1014.67 17.1561C1013.71 17.8861 1012.28 18.2512 1010.38 18.2512C1008.48 18.2512 1007.21 17.9161 1006.56 17.2458C1006.08 16.7431 1005.88 16.049 1005.94 15.1633C1005.97 14.8282 1006.03 14.4631 1006.13 14.0681L1006.2 13.7809H1009.44L1009.39 13.9963C1009.36 14.116 1009.34 14.2237 1009.33 14.3195ZM1030.87 7.87437L1026.44 7.87437L1023.92 17.9998H1020.67L1023.18 7.87437H1018.73L1019.44 5.07371L1031.57 5.07371L1030.87 7.87437ZM1037.78 4.94803C1040.67 4.94803 1042.03 6.12695 1041.86 8.48477C1041.83 8.87974 1041.76 9.30462 1041.64 9.75943L1040.75 13.35C1040.34 15.0137 1039.63 16.2464 1038.61 17.0483C1037.6 17.8502 1036.22 18.2512 1034.48 18.2512C1032.74 18.2512 1031.55 17.8502 1030.93 17.0483C1030.5 16.4978 1030.32 15.7378 1030.39 14.7683C1030.42 14.3374 1030.5 13.8647 1030.64 13.35L1031.53 9.75943C1032.32 6.55183 1034.41 4.94803 1037.78 4.94803ZM1035.16 15.4685C1035.76 15.4685 1036.26 15.3129 1036.64 15.0017C1037.02 14.6905 1037.31 14.116 1037.52 13.2782L1038.38 9.83124C1038.43 9.59187 1038.47 9.37643 1038.48 9.18494C1038.55 8.21548 1038.09 7.73075 1037.11 7.73075C1035.87 7.75468 1035.08 8.45485 1034.74 9.83124L1033.88 13.2782C1033.81 13.5774 1033.77 13.8886 1033.74 14.2118C1033.68 15.0496 1034.16 15.4685 1035.16 15.4685ZM1048.39 5.07371L1049.87 11.2675L1054.46 5.07371H1057.86L1054.64 17.9998H1051.38L1053.2 10.7109L1050.12 15.0556H1047.76L1046.85 10.7109L1045.03 17.9998H1041.79L1045.01 5.07371H1048.39ZM1069.97 5.07371C1071.34 5.07371 1072.29 5.37292 1072.82 5.97135C1073.22 6.42616 1073.39 7.00066 1073.34 7.69484C1073.33 7.93421 1073.28 8.18555 1073.22 8.44886L1072.99 9.31061C1072.81 9.99282 1072.51 10.5254 1072.1 10.9084C1071.7 11.2914 1071.36 11.4829 1071.07 11.4829L1071.04 11.6265C1071.38 11.6265 1071.71 11.8121 1072.03 12.1831C1072.35 12.5541 1072.49 12.991 1072.45 13.4936C1072.44 13.6971 1072.4 13.9126 1072.34 14.14L1072.19 14.6965C1071.92 15.7258 1071.4 16.5337 1070.63 17.1201C1069.86 17.7066 1068.83 17.9998 1067.54 17.9998H1061.53L1064.75 5.07371H1069.97ZM1067.79 12.7217H1066.08L1065.47 15.1992H1067.18C1067.21 15.1992 1067.23 15.1992 1067.25 15.1992C1067.81 15.1992 1068.25 15.0735 1068.6 14.8222C1068.94 14.5589 1069.12 14.2417 1069.15 13.8707C1069.21 13.1047 1068.75 12.7217 1067.79 12.7217ZM1068.63 7.87437H1067.28L1066.62 10.5494H1067.95C1069.1 10.5494 1069.72 10.0467 1069.79 9.04131C1069.81 8.69422 1069.73 8.41296 1069.53 8.19752C1069.34 7.98209 1069.04 7.87437 1068.63 7.87437ZM1082.35 17.0663C1081.35 17.8562 1079.97 18.2512 1078.23 18.2512C1076.49 18.2512 1075.32 17.8502 1074.7 17.0483C1074.26 16.4978 1074.08 15.7378 1074.15 14.7683C1074.18 14.3374 1074.26 13.8647 1074.39 13.35L1076.45 5.07371H1079.69L1077.64 13.2782C1077.57 13.5774 1077.52 13.8886 1077.5 14.2118C1077.44 15.0496 1077.91 15.4685 1078.92 15.4685C1079.52 15.4685 1080.01 15.3129 1080.4 15.0017C1080.78 14.6905 1081.07 14.116 1081.28 13.2782L1083.33 5.07371H1086.57L1084.51 13.35C1084.09 15.0256 1083.37 16.2644 1082.35 17.0663ZM1092.26 5.07371L1089.06 17.9998H1085.8L1089.02 5.07371H1092.26ZM1099.81 17.9998L1091.6 17.9998L1094.82 5.07371H1098.06L1095.55 15.1992H1100.52L1099.81 17.9998ZM1109.51 5.07371C1111.09 5.07371 1112.18 5.46867 1112.8 6.2586C1113.24 6.85703 1113.44 7.60507 1113.37 8.50272C1113.35 8.82588 1113.29 9.16698 1113.21 9.52604L1112.21 13.5296C1111.88 14.882 1111.21 15.9652 1110.22 16.779C1109.22 17.5929 1107.98 17.9998 1106.49 17.9998H1101.25L1104.47 5.07371H1109.51ZM1108.18 7.87437H1107.01L1105.2 15.1992H1106.91C1107.47 15.1992 1107.92 15.0496 1108.26 14.7504C1108.6 14.4392 1108.86 13.9365 1109.03 13.2423L1109.77 10.298C1109.83 10.0347 1109.87 9.79534 1109.89 9.5799C1109.97 8.44288 1109.4 7.87437 1108.18 7.87437ZM1117 14.3195C1116.94 15.1453 1117.5 15.5582 1118.69 15.5582C1119.89 15.5582 1120.52 15.1872 1120.57 14.4452C1120.6 14.0502 1120.42 13.727 1120.03 13.4757C1119.64 13.2244 1119.16 13.0149 1118.58 12.8473C1118.02 12.6798 1117.45 12.4883 1116.88 12.2728C1116.32 12.0454 1115.85 11.6984 1115.48 11.2316C1115.1 10.7528 1114.94 10.1604 1114.99 9.45423C1115.21 6.4501 1117.26 4.94803 1121.13 4.94803C1122.55 4.94803 1123.6 5.21733 1124.28 5.75592C1124.97 6.28254 1125.28 7.01861 1125.22 7.96413C1125.19 8.31123 1125.12 8.64635 1125 8.9695C1124.89 9.28069 1124.79 9.50211 1124.68 9.63376L1124.52 9.8492H1121.34C1121.62 9.57392 1121.78 9.22683 1121.81 8.80792C1121.86 8.02996 1121.38 7.64098 1120.36 7.64098C1119.08 7.64098 1118.41 8.04792 1118.35 8.86178C1118.32 9.26872 1118.5 9.59187 1118.89 9.83124C1119.28 10.0706 1119.76 10.2621 1120.32 10.4057C1120.9 10.5374 1121.48 10.705 1122.05 10.9084C1122.62 11.1119 1123.1 11.453 1123.47 11.9317C1123.85 12.3985 1124.01 13.0089 1123.95 13.7629C1123.84 15.283 1123.3 16.414 1122.34 17.1561C1121.37 17.8861 1119.94 18.2512 1118.05 18.2512C1116.15 18.2512 1114.88 17.9161 1114.23 17.2458C1113.75 16.7431 1113.54 16.049 1113.61 15.1633C1113.63 14.8282 1113.69 14.4631 1113.79 14.0681L1113.87 13.7809H1117.11L1117.06 13.9963C1117.02 14.116 1117.01 14.2237 1117 14.3195Z" fill="white"/>
<path d="M1154.09 5.07371C1155.46 5.07371 1156.41 5.37292 1156.94 5.97135C1157.34 6.42616 1157.52 7.00066 1157.47 7.69484C1157.45 7.93421 1157.41 8.18555 1157.34 8.44886L1156.99 9.8492C1156.79 10.6272 1156.49 11.2555 1156.09 11.7343C1155.71 12.213 1155.3 12.5541 1154.85 12.7576L1156.11 17.9998H1152.47L1151.31 13.1705H1150.19L1149.11 17.9998H1145.65L1148.87 5.07371H1154.09ZM1152.76 7.87437H1151.41L1150.71 10.9982H1151.97C1152.61 10.9982 1153.07 10.8486 1153.37 10.5494C1153.67 10.2382 1153.84 9.83124 1153.87 9.32856C1153.94 8.3591 1153.57 7.87437 1152.76 7.87437ZM1166.5 17.9998H1157.46L1160.68 5.07371H1169.72L1169.01 7.87437H1163.22L1162.63 10.298H1167.42L1166.71 13.0987H1161.92L1161.41 15.1992H1167.21L1166.5 17.9998ZM1172.28 14.3195C1172.22 15.1453 1172.78 15.5582 1173.97 15.5582C1175.17 15.5582 1175.8 15.1872 1175.85 14.4452C1175.88 14.0502 1175.7 13.727 1175.31 13.4757C1174.92 13.2244 1174.43 13.0149 1173.86 12.8473C1173.3 12.6798 1172.73 12.4883 1172.15 12.2728C1171.6 12.0454 1171.13 11.6984 1170.75 11.2316C1170.38 10.7528 1170.22 10.1604 1170.27 9.45423C1170.49 6.4501 1172.54 4.94803 1176.41 4.94803C1177.83 4.94803 1178.88 5.21733 1179.56 5.75592C1180.25 6.28254 1180.56 7.01861 1180.49 7.96413C1180.47 8.31123 1180.4 8.64635 1180.28 8.9695C1180.17 9.28069 1180.07 9.50211 1179.96 9.63376L1179.8 9.8492H1176.61C1176.9 9.57392 1177.06 9.22683 1177.09 8.80792C1177.14 8.02996 1176.66 7.64098 1175.64 7.64098C1174.36 7.64098 1173.68 8.04792 1173.63 8.86178C1173.6 9.26872 1173.78 9.59187 1174.17 9.83124C1174.56 10.0706 1175.04 10.2621 1175.6 10.4057C1176.18 10.5374 1176.76 10.705 1177.33 10.9084C1177.9 11.1119 1178.38 11.453 1178.75 11.9317C1179.12 12.3985 1179.28 13.0089 1179.23 13.7629C1179.12 15.283 1178.58 16.414 1177.62 17.1561C1176.65 17.8861 1175.22 18.2512 1173.32 18.2512C1171.43 18.2512 1170.16 17.9161 1169.51 17.2458C1169.03 16.7431 1168.82 16.049 1168.89 15.1633C1168.91 14.8282 1168.97 14.4631 1169.07 14.0681L1169.15 13.7809H1172.39L1172.34 13.9963C1172.3 14.116 1172.28 14.2237 1172.28 14.3195ZM1193.81 7.87437H1189.38L1186.87 17.9998H1183.61L1186.13 7.87437H1181.68L1182.39 5.07371H1194.52L1193.81 7.87437ZM1200.72 4.94803C1203.62 4.94803 1204.98 6.12695 1204.81 8.48477C1204.78 8.87974 1204.7 9.30462 1204.59 9.75943L1203.7 13.35C1203.29 15.0137 1202.58 16.2464 1201.56 17.0483C1200.54 17.8502 1199.16 18.2512 1197.42 18.2512C1195.68 18.2512 1194.5 17.8502 1193.87 17.0483C1193.44 16.4978 1193.26 15.7378 1193.34 14.7683C1193.37 14.3374 1193.45 13.8647 1193.58 13.35L1194.47 9.75943C1195.27 6.55183 1197.35 4.94803 1200.72 4.94803ZM1198.11 15.4685C1198.71 15.4685 1199.2 15.3129 1199.58 15.0017C1199.96 14.6905 1200.26 14.116 1200.46 13.2782L1201.32 9.83124C1201.38 9.59187 1201.41 9.37643 1201.43 9.18494C1201.5 8.21548 1201.04 7.73075 1200.05 7.73075C1198.82 7.75468 1198.03 8.45485 1197.69 9.83124L1196.83 13.2782C1196.76 13.5774 1196.71 13.8886 1196.69 14.2118C1196.63 15.0496 1197.1 15.4685 1198.11 15.4685ZM1213.17 5.07371C1214.54 5.07371 1215.49 5.37292 1216.02 5.97135C1216.42 6.42616 1216.6 7.00066 1216.55 7.69484C1216.53 7.93421 1216.49 8.18555 1216.42 8.44886L1216.07 9.8492C1215.87 10.6272 1215.57 11.2555 1215.17 11.7343C1214.79 12.213 1214.38 12.5541 1213.93 12.7576L1215.19 17.9998H1211.55L1210.39 13.1705H1209.27L1208.19 17.9998H1204.73L1207.95 5.07371L1213.17 5.07371ZM1211.84 7.87437H1210.49L1209.79 10.9982H1211.05C1211.69 10.9982 1212.15 10.8486 1212.45 10.5494C1212.75 10.2382 1212.92 9.83124 1212.95 9.32856C1213.02 8.3591 1212.65 7.87437 1211.84 7.87437ZM1222.95 17.9998L1223.26 15.1812H1220.26L1219.17 17.9998H1215.73L1221.29 5.07371H1227.23L1226.37 17.9998H1222.95ZM1222.92 8.21548L1221.17 12.7755H1223.53L1224.06 8.21548H1222.92ZM1240.6 7.87437H1236.18L1233.66 17.9998H1230.4L1232.92 7.87437H1228.47L1229.18 5.07371H1241.31L1240.6 7.87437ZM1246.03 5.07371L1242.83 17.9998H1239.57L1242.79 5.07371H1246.03ZM1253.32 4.94803C1256.21 4.94803 1257.57 6.12695 1257.4 8.48477C1257.37 8.87974 1257.3 9.30462 1257.18 9.75943L1256.29 13.35C1255.88 15.0137 1255.17 16.2464 1254.15 17.0483C1253.13 17.8502 1251.75 18.2512 1250.01 18.2512C1248.27 18.2512 1247.09 17.8502 1246.47 17.0483C1246.04 16.4978 1245.86 15.7378 1245.93 14.7683C1245.96 14.3374 1246.04 13.8647 1246.18 13.35L1247.07 9.75943C1247.86 6.55183 1249.95 4.94803 1253.32 4.94803ZM1250.7 15.4685C1251.3 15.4685 1251.79 15.3129 1252.18 15.0017C1252.56 14.6905 1252.85 14.116 1253.06 13.2782L1253.92 9.83124C1253.97 9.59187 1254.01 9.37643 1254.02 9.18494C1254.09 8.21548 1253.63 7.73075 1252.65 7.73075C1251.41 7.75468 1250.62 8.45485 1250.28 9.83124L1249.42 13.2782C1249.35 13.5774 1249.3 13.8886 1249.28 14.2118C1249.22 15.0496 1249.69 15.4685 1250.7 15.4685ZM1270.54 5.07371L1267.33 17.9998H1264.07L1262.32 10.9264L1260.58 17.9998H1257.32L1260.55 5.07371H1263.89L1265.65 11.6804L1267.3 5.07371H1270.54ZM1278.59 18.2512C1275.69 18.2512 1274.31 17.2458 1274.45 15.2351C1274.52 14.2537 1274.85 13.4518 1275.44 12.8294C1276.04 12.1951 1276.73 11.8779 1277.52 11.8779L1277.53 11.824C1276.99 11.824 1276.58 11.5787 1276.3 11.088C1276.03 10.5972 1275.91 10.0347 1275.96 9.40037C1276.05 8.09579 1276.63 7.03058 1277.7 6.20474C1278.77 5.36694 1280.2 4.94803 1282 4.94803C1283.39 4.94803 1284.43 5.21135 1285.1 5.73797C1285.78 6.25262 1286.09 6.97074 1286.02 7.89232C1285.99 8.22744 1285.92 8.54461 1285.81 8.84383C1285.7 9.14305 1285.59 9.35848 1285.49 9.49014L1285.33 9.66967H1282.15C1282.42 9.41833 1282.57 9.07123 1282.6 8.62839C1282.64 8.02996 1282.2 7.73075 1281.28 7.73075C1280.7 7.73075 1280.22 7.88634 1279.82 8.19752C1279.43 8.49674 1279.22 8.87375 1279.18 9.32856C1279.15 9.78337 1279.27 10.1484 1279.54 10.4237C1279.8 10.699 1280.19 10.8426 1280.69 10.8546H1286.22L1285.72 12.8114H1284.92L1284.65 13.9066C1284.28 15.3667 1283.56 16.4559 1282.5 17.174C1281.45 17.8921 1280.15 18.2512 1278.59 18.2512ZM1277.91 14.2836C1277.88 14.6307 1277.99 14.9179 1278.22 15.1453C1278.46 15.3608 1278.79 15.4685 1279.21 15.4685C1280.54 15.4685 1281.33 14.9478 1281.59 13.9066L1281.86 12.8114H1279.81C1278.61 12.8114 1277.98 13.3022 1277.91 14.2836ZM1295.06 18.2512C1293.35 18.2512 1292.19 17.8802 1291.58 17.1381C1291.16 16.6115 1290.99 15.8754 1291.06 14.9299C1291.09 14.523 1291.16 14.0861 1291.28 13.6193L1292.32 9.49014C1293.07 6.46207 1295.13 4.94803 1298.49 4.94803C1299.89 4.94803 1300.92 5.24725 1301.6 5.84568C1302.27 6.43215 1302.58 7.24003 1302.5 8.26933C1302.47 8.74808 1302.36 9.22683 1302.18 9.70557C1302.02 10.1723 1301.86 10.5194 1301.71 10.7468L1301.49 11.1059H1298.3C1298.73 10.6511 1298.97 10.0048 1299.03 9.16698C1299.07 8.72414 1298.98 8.37705 1298.77 8.12571C1298.56 7.8624 1298.23 7.73075 1297.79 7.73075C1296.58 7.73075 1295.81 8.40099 1295.48 9.74148L1294.59 13.368C1294.51 13.6792 1294.46 13.9844 1294.43 14.2836C1294.38 15.0735 1294.82 15.4685 1295.77 15.4685C1296.91 15.4685 1297.64 14.8282 1297.96 13.5475H1301.2L1301.07 14.0681C1300.39 16.8568 1298.39 18.2512 1295.06 18.2512ZM1311.18 17.0663C1310.17 17.8562 1308.8 18.2512 1307.06 18.2512C1305.32 18.2512 1304.14 17.8502 1303.53 17.0483C1303.09 16.4978 1302.91 15.7378 1302.98 14.7683C1303.01 14.3374 1303.09 13.8647 1303.22 13.35L1305.28 5.07371H1308.52L1306.47 13.2782C1306.4 13.5774 1306.35 13.8886 1306.33 14.2118C1306.27 15.0496 1306.74 15.4685 1307.75 15.4685C1308.35 15.4685 1308.84 15.3129 1309.22 15.0017C1309.6 14.6905 1309.9 14.116 1310.1 13.2782L1312.16 5.07371H1315.4L1313.34 13.35C1312.92 15.0256 1312.2 16.2644 1311.18 17.0663ZM1318.33 14.3195C1318.27 15.1453 1318.84 15.5582 1320.03 15.5582C1321.23 15.5582 1321.85 15.1872 1321.91 14.4452C1321.93 14.0502 1321.75 13.727 1321.36 13.4757C1320.97 13.2244 1320.49 13.0149 1319.92 12.8473C1319.35 12.6798 1318.78 12.4883 1318.21 12.2728C1317.65 12.0454 1317.18 11.6984 1316.81 11.2316C1316.44 10.7528 1316.28 10.1604 1316.33 9.45423C1316.55 6.4501 1318.59 4.94803 1322.47 4.94803C1323.88 4.94803 1324.93 5.21733 1325.61 5.75592C1326.31 6.28254 1326.62 7.01861 1326.55 7.96413C1326.53 8.31123 1326.45 8.64635 1326.33 8.9695C1326.23 9.28069 1326.12 9.50211 1326.02 9.63376L1325.86 9.8492H1322.67C1322.95 9.57392 1323.11 9.22683 1323.14 8.80792C1323.2 8.02996 1322.72 7.64098 1321.7 7.64098C1320.41 7.64098 1319.74 8.04792 1319.68 8.86178C1319.65 9.26872 1319.83 9.59187 1320.22 9.83124C1320.61 10.0706 1321.09 10.2621 1321.66 10.4057C1322.24 10.5374 1322.81 10.705 1323.39 10.9084C1323.96 11.1119 1324.43 11.453 1324.81 11.9317C1325.18 12.3985 1325.34 13.0089 1325.29 13.7629C1325.18 15.283 1324.64 16.414 1323.67 17.1561C1322.71 17.8861 1321.28 18.2512 1319.38 18.2512C1317.48 18.2512 1316.21 17.9161 1315.57 17.2458C1315.09 16.7431 1314.88 16.049 1314.94 15.1633C1314.97 14.8282 1315.03 14.4631 1315.13 14.0681L1315.2 13.7809H1318.44L1318.39 13.9963C1318.36 14.116 1318.34 14.2237 1318.33 14.3195ZM1339.87 7.87437L1335.44 7.87437L1332.92 17.9998H1329.67L1332.18 7.87437H1327.74L1328.44 5.07371L1340.57 5.07371L1339.87 7.87437ZM1346.78 4.94803C1349.67 4.94803 1351.03 6.12695 1350.86 8.48477C1350.83 8.87974 1350.76 9.30462 1350.64 9.75943L1349.75 13.35C1349.35 15.0137 1348.63 16.2464 1347.61 17.0483C1346.6 17.8502 1345.22 18.2512 1343.48 18.2512C1341.74 18.2512 1340.55 17.8502 1339.93 17.0483C1339.5 16.4978 1339.32 15.7378 1339.39 14.7683C1339.42 14.3374 1339.51 13.8647 1339.64 13.35L1340.53 9.75943C1341.32 6.55183 1343.41 4.94803 1346.78 4.94803ZM1344.17 15.4685C1344.77 15.4685 1345.26 15.3129 1345.64 15.0017C1346.02 14.6905 1346.31 14.116 1346.52 13.2782L1347.38 9.83124C1347.43 9.59187 1347.47 9.37643 1347.48 9.18494C1347.55 8.21548 1347.1 7.73075 1346.11 7.73075C1344.87 7.75468 1344.09 8.45485 1343.75 9.83124L1342.88 13.2782C1342.81 13.5774 1342.77 13.8886 1342.74 14.2118C1342.68 15.0496 1343.16 15.4685 1344.17 15.4685ZM1357.39 5.07371L1358.87 11.2675L1363.46 5.07371H1366.86L1363.64 17.9998H1360.38L1362.2 10.7109L1359.12 15.0556H1356.76L1355.85 10.7109L1354.03 17.9998H1350.79L1354.01 5.07371H1357.39ZM1378.97 5.07371C1380.34 5.07371 1381.29 5.37292 1381.82 5.97135C1382.22 6.42616 1382.39 7.00066 1382.34 7.69484C1382.33 7.93421 1382.28 8.18555 1382.22 8.44886L1381.99 9.31061C1381.81 9.99282 1381.51 10.5254 1381.1 10.9084C1380.7 11.2914 1380.36 11.4829 1380.07 11.4829L1380.04 11.6265C1380.38 11.6265 1380.71 11.8121 1381.03 12.1831C1381.35 12.5541 1381.49 12.991 1381.46 13.4936C1381.44 13.6971 1381.4 13.9126 1381.34 14.14L1381.19 14.6965C1380.92 15.7258 1380.4 16.5337 1379.63 17.1201C1378.86 17.7066 1377.84 17.9998 1376.54 17.9998H1370.53L1373.75 5.07371H1378.97ZM1376.8 12.7217H1375.09L1374.47 15.1992H1376.18C1376.21 15.1992 1376.23 15.1992 1376.26 15.1992C1376.81 15.1992 1377.25 15.0735 1377.6 14.8222C1377.94 14.5589 1378.13 14.2417 1378.15 13.8707C1378.21 13.1047 1377.76 12.7217 1376.8 12.7217ZM1377.63 7.87437H1376.28L1375.62 10.5494H1376.95C1378.1 10.5494 1378.72 10.0467 1378.79 9.04131C1378.82 8.69422 1378.73 8.41296 1378.53 8.19752C1378.34 7.98209 1378.04 7.87437 1377.63 7.87437ZM1391.35 17.0663C1390.35 17.8562 1388.97 18.2512 1387.23 18.2512C1385.49 18.2512 1384.32 17.8502 1383.7 17.0483C1383.26 16.4978 1383.08 15.7378 1383.15 14.7683C1383.18 14.3374 1383.26 13.8647 1383.4 13.35L1385.45 5.07371H1388.69L1386.64 13.2782C1386.57 13.5774 1386.52 13.8886 1386.5 14.2118C1386.44 15.0496 1386.91 15.4685 1387.92 15.4685C1388.52 15.4685 1389.01 15.3129 1389.4 15.0017C1389.78 14.6905 1390.07 14.116 1390.28 13.2782L1392.33 5.07371H1395.57L1393.51 13.35C1393.09 15.0256 1392.37 16.2644 1391.35 17.0663ZM1401.26 5.07371L1398.06 17.9998H1394.8L1398.02 5.07371H1401.26ZM1408.81 17.9998L1400.6 17.9998L1403.83 5.07371H1407.07L1404.55 15.1992H1409.52L1408.81 17.9998ZM1418.52 5.07371C1420.09 5.07371 1421.18 5.46867 1421.8 6.2586C1422.24 6.85703 1422.44 7.60507 1422.37 8.50272C1422.35 8.82588 1422.29 9.16698 1422.21 9.52604L1421.22 13.5296C1420.88 14.882 1420.21 15.9652 1419.22 16.779C1418.22 17.5929 1416.98 17.9998 1415.49 17.9998H1410.25L1413.48 5.07371H1418.52ZM1417.18 7.87437H1416.01L1414.2 15.1992H1415.91C1416.47 15.1992 1416.92 15.0496 1417.26 14.7504C1417.6 14.4392 1417.86 13.9365 1418.03 13.2423L1418.77 10.298C1418.83 10.0347 1418.88 9.79534 1418.89 9.5799C1418.97 8.44288 1418.4 7.87437 1417.18 7.87437ZM1426 14.3195C1425.94 15.1453 1426.5 15.5582 1427.69 15.5582C1428.89 15.5582 1429.52 15.1872 1429.57 14.4452C1429.6 14.0502 1429.42 13.727 1429.03 13.4757C1428.64 13.2244 1428.16 13.0149 1427.58 12.8473C1427.02 12.6798 1426.45 12.4883 1425.88 12.2728C1425.32 12.0454 1424.85 11.6984 1424.48 11.2316C1424.1 10.7528 1423.94 10.1604 1423.99 9.45423C1424.21 6.4501 1426.26 4.94803 1430.13 4.94803C1431.55 4.94803 1432.6 5.21733 1433.28 5.75592C1433.97 6.28254 1434.29 7.01861 1434.22 7.96413C1434.19 8.31123 1434.12 8.64635 1434 8.9695C1433.89 9.28069 1433.79 9.50211 1433.68 9.63376L1433.52 9.8492H1430.34C1430.62 9.57392 1430.78 9.22683 1430.81 8.80792C1430.86 8.02996 1430.38 7.64098 1429.36 7.64098C1428.08 7.64098 1427.41 8.04792 1427.35 8.86178C1427.32 9.26872 1427.5 9.59187 1427.89 9.83124C1428.28 10.0706 1428.76 10.2621 1429.32 10.4057C1429.9 10.5374 1430.48 10.705 1431.05 10.9084C1431.63 11.1119 1432.1 11.453 1432.47 11.9317C1432.85 12.3985 1433.01 13.0089 1432.95 13.7629C1432.84 15.283 1432.3 16.414 1431.34 17.1561C1430.37 17.8861 1428.94 18.2512 1427.05 18.2512C1425.15 18.2512 1423.88 17.9161 1423.23 17.2458C1422.75 16.7431 1422.54 16.049 1422.61 15.1633C1422.63 14.8282 1422.69 14.4631 1422.8 14.0681L1422.87 13.7809H1426.11L1426.06 13.9963C1426.03 14.116 1426.01 14.2237 1426 14.3195Z" fill="white"/>
</g>
<defs>
<clipPath id="clip0_268_2127">
<rect width="1342.74" height="24.0942" fill="white" transform="matrix(1 0 -0.0722408 0.997387 1.74023 0)"/>
</clipPath>
</defs>
</svg>
