<svg width="20" height="21" viewBox="0 0 20 21" fill="none" xmlns="http://www.w3.org/2000/svg">
<path fill-rule="evenodd" clip-rule="evenodd" d="M9.08871 2.44727C13.0017 2.44727 16.1774 5.62301 16.1774 9.53597C16.1774 13.4489 13.0017 16.6247 9.08871 16.6247C5.17574 16.6247 2 13.4489 2 9.53597C2 5.62301 5.17574 2.44727 9.08871 2.44727ZM9.08871 15.0494C12.1345 15.0494 14.6021 12.5818 14.6021 9.53597C14.6021 6.4894 12.1345 4.02253 9.08871 4.02253C6.04214 4.02253 3.57527 6.4894 3.57527 9.53597C3.57527 12.5818 6.04214 15.0494 9.08871 15.0494ZM18 17.3328L15.7718 15.1053L14.6581 16.2191L16.8855 18.4473L18 17.3328Z" fill="black"/>
</svg>