<svg width="21" height="20"  xmlns="http://www.w3.org/2000/svg">
<path d="M14.8353 4.16699C14.8353 3.67254 14.9819 3.18919 15.2566 2.77807C15.5313 2.36695 15.9218 2.04651 16.3786 1.85729C16.8354 1.66808 17.3381 1.61857 17.823 1.71503C18.308 1.81149 18.7534 2.0496 19.1031 2.39923C19.4527 2.74886 19.6908 3.19432 19.7873 3.67927C19.8837 4.16422 19.8342 4.66689 19.645 5.1237C19.4558 5.58052 19.1353 5.97096 18.7242 6.24567C18.3131 6.52037 17.8297 6.66699 17.3353 6.66699C16.6722 6.66699 16.0364 6.4036 15.5675 5.93476C15.0987 5.46592 14.8353 4.83003 14.8353 4.16699ZM2.33529 5.00033H12.3353C12.5563 5.00033 12.7683 4.91253 12.9245 4.75625C13.0808 4.59997 13.1686 4.38801 13.1686 4.16699C13.1686 3.94598 13.0808 3.73402 12.9245 3.57774C12.7683 3.42146 12.5563 3.33366 12.3353 3.33366H2.33529C2.11427 3.33366 1.90231 3.42146 1.74603 3.57774C1.58975 3.73402 1.50195 3.94598 1.50195 4.16699C1.50195 4.38801 1.58975 4.59997 1.74603 4.75625C1.90231 4.91253 2.11427 5.00033 2.33529 5.00033ZM7.33529 7.50033C6.8195 7.50178 6.31679 7.66273 5.89607 7.96111C5.47535 8.25949 5.15721 8.6807 4.98529 9.16699H2.33529C2.11427 9.16699 1.90231 9.25479 1.74603 9.41107C1.58975 9.56735 1.50195 9.77931 1.50195 10.0003C1.50195 10.2213 1.58975 10.4333 1.74603 10.5896C1.90231 10.7459 2.11427 10.8337 2.33529 10.8337H4.98529C5.13816 11.2661 5.40704 11.6481 5.76249 11.9379C6.11794 12.2277 6.54626 12.4142 7.00059 12.4769C7.45491 12.5395 7.91773 12.476 8.33838 12.2933C8.75903 12.1106 9.12131 11.8157 9.38557 11.4408C9.64984 11.066 9.8059 10.6257 9.83667 10.1681C9.86745 9.71048 9.77175 9.25324 9.56006 8.84639C9.34838 8.43954 9.02885 8.09876 8.63645 7.86135C8.24406 7.62394 7.79391 7.49904 7.33529 7.50033ZM19.002 9.16699H12.3353C12.1143 9.16699 11.9023 9.25479 11.746 9.41107C11.5898 9.56735 11.502 9.77931 11.502 10.0003C11.502 10.2213 11.5898 10.4333 11.746 10.5896C11.9023 10.7459 12.1143 10.8337 12.3353 10.8337H19.002C19.223 10.8337 19.4349 10.7459 19.5912 10.5896C19.7475 10.4333 19.8353 10.2213 19.8353 10.0003C19.8353 9.77931 19.7475 9.56735 19.5912 9.41107C19.4349 9.25479 19.223 9.16699 19.002 9.16699ZM9.00195 15.0003H2.33529C2.11427 15.0003 1.90231 15.0881 1.74603 15.2444C1.58975 15.4007 1.50195 15.6126 1.50195 15.8337C1.50195 16.0547 1.58975 16.2666 1.74603 16.4229C1.90231 16.5792 2.11427 16.667 2.33529 16.667H9.00195C9.22297 16.667 9.43493 16.5792 9.59121 16.4229C9.74749 16.2666 9.83529 16.0547 9.83529 15.8337C9.83529 15.6126 9.74749 15.4007 9.59121 15.2444C9.43493 15.0881 9.22297 15.0003 9.00195 15.0003ZM19.002 15.0003H16.352C16.1554 14.4443 15.7686 13.9757 15.2599 13.6773C14.7512 13.3789 14.1534 13.2699 13.5722 13.3697C12.9909 13.4694 12.4637 13.7714 12.0835 14.2223C11.7034 14.6732 11.4949 15.2439 11.4949 15.8337C11.4949 16.4234 11.7034 16.9942 12.0835 17.445C12.4637 17.8959 12.9909 18.1979 13.5722 18.2977C14.1534 18.3974 14.7512 18.2884 15.2599 17.99C15.7686 17.6916 16.1554 17.223 16.352 16.667H19.002C19.223 16.667 19.4349 16.5792 19.5912 16.4229C19.7475 16.2666 19.8353 16.0547 19.8353 15.8337C19.8353 15.6126 19.7475 15.4007 19.5912 15.2444C19.4349 15.0881 19.223 15.0003 19.002 15.0003Z" fill="white"/>
</svg>
