<svg width="20" height="20" viewBox="0 0 20 20" fill="none" xmlns="http://www.w3.org/2000/svg">
<g clip-path="url(#clip0_167_1275)">
<mask id="mask0_167_1275" style="mask-type:luminance" maskUnits="userSpaceOnUse" x="0" y="0" width="20" height="20">
<rect width="20" height="20" fill="white"/>
</mask>
<g mask="url(#mask0_167_1275)">
<path d="M19.9824 7.7256C19.9401 7.59601 19.8281 7.5015 19.6931 7.48181L13.217 6.54064L10.3209 0.672416C10.2607 0.549983 10.1361 0.472656 10.0001 0.472656C9.86406 0.472656 9.73912 0.549983 9.67934 0.672416L6.78282 6.541L0.306722 7.48217C0.171758 7.50185 0.0600646 7.59601 0.0174634 7.72596C-0.0244218 7.85519 0.0103036 7.99768 0.108036 8.09254L4.79452 12.6606L3.68797 19.1109C3.66505 19.2451 3.72019 19.3808 3.83009 19.461C3.94071 19.5419 4.08713 19.5523 4.20706 19.4882L10.0001 16.4431L15.7924 19.4882C15.8447 19.5158 15.9023 19.5294 15.9593 19.5294C16.0334 19.5294 16.1071 19.5065 16.1698 19.461C16.28 19.3808 16.3351 19.2451 16.3119 19.1109L15.2057 12.6609L19.8922 8.09254C19.9895 7.99696 20.0246 7.85484 19.9824 7.7256Z" fill="#F2C94C"/>
</g>
</g>
<defs>
<clipPath id="clip0_167_1275">
<rect width="20" height="20" fill="white"/>
</clipPath>
</defs>
</svg>
