<svg width="18" height="13" viewBox="0 0 18 13" fill="none" xmlns="http://www.w3.org/2000/svg">
<path fill-rule="evenodd" clip-rule="evenodd" d="M0.75 6.25C1.41297 6.60066 1.41286 6.60088 1.41276 6.60107L1.41308 6.60047L1.41737 6.59255C1.42161 6.58475 1.42861 6.57198 1.43835 6.55457C1.45785 6.51975 1.48828 6.4664 1.52947 6.39719C1.55515 6.35403 1.58498 6.30475 1.61891 6.25C1.69388 6.37097 1.78886 6.51869 1.90336 6.68629C2.23692 7.17452 2.73131 7.82439 3.37344 8.47188C4.6685 9.77774 6.48795 11 8.75 11C11.0121 11 12.8315 9.77774 14.1266 8.47188C14.7687 7.82439 15.2631 7.17452 15.5966 6.68629C15.7112 6.51869 15.8061 6.37097 15.8811 6.25C15.915 6.30475 15.9448 6.35403 15.9705 6.39719C16.0117 6.4664 16.0421 6.51975 16.0616 6.55457C16.0714 6.57198 16.0784 6.58475 16.0826 6.59255L16.0869 6.60047L16.0872 6.60104C16.0878 6.60047 16.1093 6.58888 16.75 6.25C17.413 6.60066 17.4128 6.60092 17.4127 6.6012L17.4123 6.60185L17.4114 6.60355L17.4088 6.60844L17.4004 6.6241C17.3933 6.63712 17.3833 6.65524 17.3705 6.67811C17.3449 6.72385 17.3079 6.78867 17.2596 6.86985C17.163 7.03211 17.0211 7.26029 16.8352 7.53246C16.4642 8.07548 15.9131 8.80061 15.1916 9.52812C13.7594 10.9723 11.5789 12.5 8.75 12.5C5.92114 12.5 3.74059 10.9723 2.30838 9.52812C1.58688 8.80061 1.03581 8.07548 0.664818 7.53246C0.478874 7.26029 0.336969 7.03211 0.240418 6.86985C0.192114 6.78867 0.155076 6.72385 0.129472 6.67811C0.116668 6.65524 0.106716 6.63712 0.0996362 6.6241L0.0911712 6.60844L0.0885582 6.60355L0.0876573 6.60185L0.0873073 6.6012C0.0871613 6.60092 0.0870262 6.60066 0.749953 6.25002L0.0870263 6.60066C-0.0290087 6.38129 -0.0290087 6.11871 0.0870263 5.89934L0.749835 6.24991C0.0870263 5.89934 0.0871613 5.89908 0.0873073 5.8988L0.0876573 5.89815L0.0885582 5.89645L0.0911712 5.89156L0.0996362 5.8759C0.106716 5.86288 0.116668 5.84476 0.129472 5.82189C0.155076 5.77615 0.192114 5.71133 0.240418 5.63015C0.336969 5.46789 0.478874 5.23971 0.664818 4.96754C1.03581 4.42452 1.58688 3.69939 2.30838 2.97187C3.74059 1.52774 5.92114 0 8.75 0C11.5789 0 13.7594 1.52774 15.1916 2.97187C15.9131 3.69939 16.4642 4.42452 16.8352 4.96754C17.0211 5.23971 17.163 5.46789 17.2596 5.63015C17.3079 5.71133 17.3449 5.77615 17.3705 5.82189C17.3833 5.84476 17.3933 5.86288 17.4004 5.8759L17.4088 5.89156L17.4114 5.89645L17.4123 5.89815L17.4127 5.8988C17.4128 5.89908 17.413 5.89934 16.75 6.25C16.087 5.89934 16.0871 5.89912 16.0872 5.89893L16.0869 5.89953L16.0826 5.90745C16.0784 5.91525 16.0714 5.92802 16.0616 5.94543C16.0421 5.98025 16.0117 6.0336 15.9705 6.10281C15.9448 6.14597 15.915 6.19525 15.8811 6.25C15.8061 6.12903 15.7112 5.98131 15.5966 5.81371C15.2631 5.32548 14.7687 4.67561 14.1266 4.02813C12.8315 2.72226 11.0121 1.5 8.75 1.5C6.48795 1.5 4.6685 2.72226 3.37344 4.02813C2.73131 4.67561 2.23692 5.32548 1.90336 5.81371C1.78886 5.98131 1.69388 6.12903 1.61891 6.25C1.58498 6.19525 1.55515 6.14597 1.52947 6.10281C1.48828 6.0336 1.45785 5.98025 1.43835 5.94543C1.42861 5.92802 1.42161 5.91525 1.41737 5.90745L1.41308 5.89953L1.41276 5.89893C1.41286 5.89912 1.41297 5.89934 0.75 6.25ZM16.75 6.25L17.413 6.60066C17.529 6.38129 17.529 6.11871 17.413 5.89934L16.75 6.25Z" fill="#fff"/>
<path fill-rule="evenodd" clip-rule="evenodd" d="M7.5 6.25C7.5 5.11868 8.20717 4.5 8.75 4.5C9.29283 4.5 10 5.11868 10 6.25C10 7.38132 9.29283 8 8.75 8C8.20717 8 7.5 7.38132 7.5 6.25ZM11.5 6.25C11.5 7.8801 10.4163 9.5 8.75 9.5C7.08369 9.5 6 7.8801 6 6.25C6 4.6199 7.08369 3 8.75 3C10.4163 3 11.5 4.6199 11.5 6.25Z" fill="#fff"/>
</svg>
