<svg width="42" height="14" viewBox="0 0 42 14" fill="none" xmlns="http://www.w3.org/2000/svg">
<path fill-rule="evenodd" clip-rule="evenodd" d="M30.0027 9.259C30.0118 7.21886 28.2962 6.33192 26.9236 5.62225C26.0019 5.14576 25.2349 4.74919 25.2481 4.13715C25.2588 3.6739 25.7068 3.18126 26.6877 3.05501C27.8354 2.94763 28.9913 3.14729 30.0335 3.63293L30.6299 0.893268C29.6145 0.517792 28.5393 0.323767 27.4546 0.320312C24.1004 0.320312 21.7391 2.07687 21.7202 4.59144C21.6979 6.45245 23.4053 7.4895 24.6918 8.10829C26.0134 8.74147 26.4568 9.14769 26.4519 9.71389C26.4419 10.5814 25.3972 10.9636 24.4204 10.9786C22.7647 11.004 21.783 10.5523 21.0053 10.1946L20.9349 10.1622L20.3204 12.9938C21.1126 13.3521 22.5764 13.6648 24.0944 13.6801C27.6599 13.6801 29.9917 11.9461 30.0027 9.259ZM15.9461 0.556622L10.4475 13.478H6.86025L4.15426 3.16584C3.9899 2.53097 3.84749 2.29793 3.348 2.03096C2.53225 1.59444 1.18508 1.18541 0 0.931341L0.0799361 0.556622H5.85507C6.23263 0.556003 6.59796 0.688467 6.88499 0.930062C7.17202 1.17165 7.36181 1.50643 7.42004 1.87386L8.84923 9.35126L12.3814 0.556622H15.9461ZM42 13.478H38.8612L38.451 11.5476H34.0973L33.3892 13.478H29.8263L34.9187 1.5043C35.0354 1.22195 35.2355 0.980655 35.4931 0.811678C35.7507 0.6427 36.0539 0.553842 36.3633 0.556622H39.2601L42 13.478ZM35.074 8.8997L36.8607 4.04804L37.8891 8.8997H35.074ZM17.9893 13.478L20.7955 0.556622H17.4024L14.595 13.478H17.9893Z" fill="white"/>
</svg>
